<?xml version="1.0" standalone="no"?>
<!DOCTYPE svg PUBLIC "-//W3C//DTD SVG 20010904//EN"
 "http://www.w3.org/TR/2001/REC-SVG-20010904/DTD/svg10.dtd">
<svg version="1.0" xmlns="http://www.w3.org/2000/svg"
 width="900.000000pt" height="900.000000pt" viewBox="0 0 900.000000 900.000000"
 preserveAspectRatio="xMidYMid meet">
<metadata>
Created by potrace 1.16, written by Peter Selinger 2001-2019
</metadata>
<g transform="translate(0.000000,900.000000) scale(0.100000,-0.100000)"
fill="#000000" stroke="none">
<path d="M3564 8535 c-4 -8 -1 -21 4 -28 16 -18 -26 -167 -53 -189 -16 -14
-40 -17 -117 -18 -53 0 -99 4 -102 9 -3 5 -15 7 -26 4 -11 -3 -26 0 -34 6 -7
6 -20 9 -28 6 -12 -5 -259 43 -375 72 -20 5 -21 1 -27 -104 -8 -162 -8 -416
-1 -436 9 -22 -11 -47 -37 -47 -27 0 -248 69 -274 85 -12 8 -48 21 -80 30 -32
9 -124 36 -204 60 -80 24 -162 47 -182 51 -35 6 -38 4 -38 -16 0 -15 -102
-125 -350 -373 -192 -194 -350 -357 -350 -364 0 -6 5 -15 11 -19 8 -4 9 -55 4
-170 -5 -118 -4 -164 4 -164 6 0 62 26 125 57 113 56 115 57 135 38 24 -20 27
-48 9 -62 -7 -5 -73 -31 -145 -58 -124 -44 -133 -50 -134 -74 0 -14 -4 -91 -8
-171 -7 -143 -8 -146 -37 -175 -32 -32 -31 -32 -242 -42 l-103 -4 6 133 c5 95
11 136 21 144 21 17 17 44 -6 44 -14 0 -20 -7 -20 -23 0 -34 -66 -107 -96
-107 -29 0 -34 -35 -6 -42 12 -3 22 -22 30 -54 6 -27 14 -59 18 -72 l7 -23
-99 3 c-55 2 -107 7 -116 12 -24 11 -35 -19 -15 -42 15 -16 67 -202 67 -237 0
-12 -17 -3 -61 32 -34 26 -70 58 -80 72 -24 30 -50 21 -48 -16 2 -21 -83 -361
-128 -514 -3 -12 2 -16 19 -15 17 1 24 8 26 27 2 19 51 76 163 190 87 90 159
168 159 174 0 6 -4 15 -10 21 -11 11 -74 244 -67 250 6 6 153 -97 194 -136 37
-35 51 -37 61 -12 4 10 47 53 96 95 74 63 92 74 107 66 15 -7 19 -6 19 5 0 18
6 22 51 30 29 5 40 2 62 -18 l25 -24 8 27 c4 14 8 42 9 61 1 24 18 58 56 112
30 42 94 138 143 213 49 74 95 135 103 135 16 0 62 -33 191 -133 103 -82 103
-81 75 -74 -13 3 -23 0 -23 -5 0 -7 -20 -9 -56 -5 l-56 6 6 -31 c3 -17 6 -38
7 -47 1 -9 4 -5 8 9 9 33 55 59 78 44 24 -15 40 -127 25 -168 -6 -16 -8 -26
-5 -22 3 3 12 1 18 -4 9 -8 15 2 24 37 6 27 26 76 43 111 25 50 29 65 19 72
-20 12 -66 349 -51 373 6 10 8 22 5 27 -10 16 -39 11 -52 -9 -12 -20 -233
-137 -233 -124 0 4 7 26 16 49 15 40 20 43 220 142 141 70 216 102 239 102 28
0 35 4 35 19 0 30 -21 37 -41 12 -17 -21 -23 -21 -187 -19 l-169 3 26 65 26
64 100 32 c55 18 103 33 106 33 3 1 30 -33 60 -74 29 -41 55 -75 57 -75 7 0
-8 93 -20 122 -6 16 -15 25 -22 21 -6 -3 -1 5 11 17 12 13 46 31 75 40 374
120 601 190 612 190 10 0 6 -27 -17 -107 -16 -60 -34 -113 -41 -120 -19 -20
-382 -203 -402 -203 -10 0 -25 -4 -33 -9 -12 -8 -12 -12 -2 -25 8 -9 21 -16
30 -16 25 0 311 -329 311 -357 0 -16 6 -23 20 -23 11 0 20 7 20 15 0 9 28 46
63 83 34 37 80 89 102 116 l39 48 50 -7 c87 -11 114 -28 140 -87 48 -109 190
-494 190 -518 1 -39 40 -34 44 5 2 16 32 97 67 180 35 82 70 167 79 188 8 20
19 37 25 37 5 0 42 -32 83 -72 40 -39 154 -145 253 -235 99 -90 190 -178 203
-196 34 -47 47 -41 49 23 1 30 17 148 36 263 27 167 37 210 53 222 16 11 17
17 7 32 -69 104 -143 235 -143 251 0 16 19 32 73 63 39 23 123 73 185 111 62
37 118 68 124 68 6 0 8 -10 3 -27 -8 -34 1 -26 23 19 17 33 137 116 150 103 4
-3 -33 -45 -81 -93 -70 -68 -90 -83 -98 -72 -7 12 -10 11 -15 -7 -4 -13 -12
-23 -19 -23 -20 0 -37 -27 -30 -50 12 -38 65 -18 65 26 0 24 161 184 185 184
7 0 22 16 34 35 11 19 32 40 46 47 27 12 34 38 11 38 -8 0 -27 18 -43 40 -15
22 -32 40 -36 40 -4 0 2 -13 14 -30 26 -35 22 -46 -9 -24 -16 11 -21 24 -20
47 1 18 -3 41 -7 52 -9 19 -8 20 18 2 30 -20 37 -21 37 -7 0 5 -11 12 -25 16
-14 3 -30 15 -36 25 -18 34 -38 23 -36 -21 1 -22 -3 -44 -9 -50 -11 -11 -97
34 -327 173 -67 41 -150 89 -184 108 -35 19 -61 39 -60 44 2 6 69 11 167 13
140 2 165 0 181 -14 11 -10 27 -14 39 -11 13 3 81 -19 178 -60 86 -36 256
-107 377 -158 121 -50 275 -114 343 -141 67 -27 121 -53 119 -59 -2 -5 -62
-31 -133 -58 l-128 -48 -51 21 c-27 12 -72 33 -99 47 -27 14 -46 22 -43 16 3
-5 37 -24 76 -43 72 -35 96 -64 86 -104 -5 -20 -4 -20 6 2 7 12 15 22 20 22
11 0 67 -95 71 -121 5 -35 33 -35 51 0 23 45 180 240 195 241 18 0 26 28 13
43 -12 15 -48 284 -39 293 4 3 16 0 28 -6 16 -9 25 -9 33 -1 6 6 14 11 18 11
13 0 131 -189 124 -200 -4 -7 -2 -22 4 -33 11 -24 33 -236 25 -249 -3 -4 -26
-8 -52 -9 l-47 0 52 -20 c49 -19 52 -22 58 -62 9 -61 11 -194 3 -202 -12 -13
-354 -19 -362 -6 -12 19 -39 13 -33 -8 3 -12 -3 -27 -15 -38 -36 -32 -403
-417 -393 -411 10 5 173 94 535 291 237 129 273 147 287 147 7 0 37 -33 66
-72 30 -40 100 -135 156 -212 57 -76 99 -142 94 -146 -4 -5 -141 -20 -303 -35
-162 -15 -385 -35 -495 -45 -476 -44 -513 -47 -590 -38 -23 2 -30 -1 -33 -16
-5 -25 25 -48 47 -37 17 10 150 -21 344 -79 60 -18 110 -30 112 -28 5 5 -135
48 -295 90 -122 33 -127 35 -117 44 6 6 438 47 622 58 55 4 216 16 357 27 142
12 263 19 270 17 6 -2 -11 -12 -38 -23 -27 -10 -170 -65 -319 -123 -148 -58
-281 -104 -295 -103 -14 1 -35 -4 -47 -10 -17 -9 -32 -8 -68 5 -33 11 -53 13
-65 6 -10 -6 -50 -10 -88 -10 -44 0 -73 -5 -80 -12 -5 -7 -13 -46 -17 -86 -7
-68 -9 -72 -34 -78 -14 -3 -56 -14 -93 -25 -36 -10 -68 -19 -71 -19 -3 0 -20
23 -38 51 -17 28 -43 57 -55 66 -22 14 -28 12 -99 -28 -48 -28 -77 -52 -81
-66 -4 -13 5 -45 20 -79 14 -31 26 -61 26 -67 0 -13 -125 -137 -138 -137 -6 0
-37 11 -69 25 -32 15 -67 24 -78 21 -12 -3 -38 -37 -63 -80 -55 -96 -57 -92
81 -187 5 -3 -1 -37 -12 -75 -10 -38 -22 -81 -25 -95 -6 -25 -10 -27 -78 -34
-40 -4 -79 -12 -85 -17 -18 -14 -18 -192 0 -206 6 -6 45 -14 85 -17 67 -7 73
-9 78 -34 3 -14 14 -56 25 -93 10 -36 19 -68 19 -70 0 -3 -25 -22 -55 -43 -82
-56 -84 -62 -33 -151 26 -45 50 -77 63 -80 11 -3 46 6 78 21 32 14 61 25 66
25 5 0 39 -31 78 -68 l69 -68 -29 -63 c-15 -35 -27 -73 -25 -85 3 -23 141
-109 168 -104 8 2 35 31 60 65 30 41 50 60 60 56 8 -3 52 -14 96 -25 l82 -21
7 -71 c4 -39 11 -77 17 -83 7 -9 41 -13 104 -13 104 0 114 6 114 73 0 86 5 93
88 115 43 11 86 22 97 26 16 5 28 -6 63 -54 23 -34 49 -63 57 -67 23 -8 165
77 171 103 3 13 -6 45 -26 83 l-31 62 70 70 c38 38 73 69 79 69 5 0 35 -12 66
-26 71 -32 95 -27 125 27 25 44 41 40 41 -11 0 -38 18 -50 71 -50 l48 0 25
-56 26 -57 -35 -38 c-19 -22 -35 -42 -35 -46 0 -11 65 -92 79 -98 8 -3 31 6
51 20 20 14 39 25 43 25 4 0 30 -16 58 -36 41 -30 49 -41 44 -58 -3 -12 -8
-36 -12 -53 -5 -31 -3 -34 42 -53 69 -30 82 -27 107 25 l22 46 61 -7 c33 -4
63 -10 68 -13 4 -4 13 -27 20 -52 13 -43 14 -44 53 -43 21 0 51 4 66 7 25 7
27 12 30 64 l3 56 58 25 58 25 32 -32 c18 -17 40 -31 48 -31 21 0 99 61 99 78
0 7 -12 29 -26 48 -30 39 -28 49 25 112 28 33 29 33 75 21 55 -14 60 -11 86
58 21 57 18 64 -46 96 -30 15 -31 17 -26 74 2 32 7 61 11 66 4 4 27 13 52 20
l44 13 -2 60 c-3 70 -16 83 -76 77 l-42 -5 -28 63 -27 63 37 38 37 38 -31 42
c-46 63 -55 66 -103 34 l-42 -27 -54 37 c-45 31 -54 42 -49 59 3 11 9 36 12
56 5 35 5 35 -52 57 -31 12 -61 19 -66 16 -5 -3 -19 -24 -30 -46 -21 -40 -21
-40 -66 -34 -25 3 -56 6 -68 6 -17 0 -24 10 -36 48 l-14 47 -52 -1 c-79 -2
-83 -6 -83 -66 l0 -53 -59 -26 -59 -27 -33 34 c-18 19 -40 34 -48 34 -9 0 -36
-18 -61 -40 -43 -37 -44 -40 -31 -62 48 -77 47 -69 6 -123 -22 -28 -45 -49
-54 -48 -9 2 -33 6 -53 9 -37 6 -38 5 -58 -37 -31 -68 -27 -86 23 -110 l43
-21 -4 -62 c-2 -33 -7 -64 -11 -68 -3 -3 -23 -10 -43 -13 -36 -7 -38 -6 -38
18 0 20 -13 35 -61 68 -50 35 -59 46 -53 63 3 12 15 55 26 97 l21 77 71 7 c39
4 77 11 84 17 8 7 12 41 12 103 0 62 -4 96 -12 103 -7 5 -45 13 -85 17 -71 7
-72 7 -78 38 -4 18 -16 60 -27 95 -11 35 -18 65 -17 66 2 2 30 22 62 45 41 30
57 48 57 65 0 27 -52 126 -80 151 -19 17 -25 17 -53 6 -18 -7 -51 -20 -75 -29
l-42 -16 -70 69 -70 70 30 63 c17 35 30 70 30 78 0 8 -23 30 -50 50 -28 20
-49 38 -47 40 8 8 234 -70 253 -87 24 -23 42 -24 63 -5 42 36 241 102 241 80
0 -5 5 -51 10 -103 9 -84 8 -96 -7 -113 -22 -24 -7 -53 28 -53 20 0 25 6 29
37 6 41 187 327 208 328 7 0 23 7 36 15 19 13 65 14 352 5 181 -6 364 -10 407
-9 56 0 85 -4 103 -16 22 -14 24 -14 24 1 0 15 13 16 141 10 98 -5 146 -11
155 -21 8 -7 22 -11 31 -9 25 7 305 -129 320 -155 13 -20 -4 -37 -154 -154
-24 -18 -98 25 -273 160 l-35 27 25 -27 c14 -14 68 -57 120 -94 108 -78 118
-97 69 -134 -60 -45 -74 -61 -27 -30 26 17 50 36 53 41 10 16 25 12 25 -7 0
-13 3 -14 12 -5 8 8 24 -6 65 -61 30 -40 58 -71 63 -70 4 1 16 -7 25 -17 20
-22 7 -28 -14 -7 -11 10 -11 8 -1 -9 18 -30 7 -50 -40 -74 -29 -15 -51 -19
-71 -15 l-29 7 -2 116 -2 117 -3 -115 c-2 -63 -7 -118 -11 -122 -9 -9 -220 46
-236 62 -11 11 25 50 92 99 15 11 25 22 22 24 -3 3 -41 -26 -85 -64 -84 -73
-141 -109 -173 -109 -25 0 -34 -11 -21 -26 7 -9 -10 -29 -68 -78 l-78 -66 -5
28 c-5 25 -6 24 -13 -12 -8 -51 -2 -57 26 -24 12 14 49 47 82 73 32 26 65 54
73 61 7 8 17 14 21 14 15 0 102 -61 107 -75 4 -8 12 -15 19 -15 20 0 123 -73
128 -90 2 -8 -5 -28 -16 -45 l-19 -30 20 23 c28 31 55 28 97 -12 l36 -34 19
20 c11 12 17 25 14 30 -11 17 19 38 55 37 l36 0 -37 -16 c-21 -8 -38 -19 -38
-24 0 -5 22 2 50 16 60 31 73 31 119 3 73 -44 261 -180 261 -189 0 -5 12 -14
27 -20 34 -13 153 -97 153 -109 0 -5 -12 -18 -26 -29 -15 -12 -22 -21 -17 -21
5 0 18 9 28 20 10 11 24 20 32 20 18 0 85 -51 78 -59 -10 -9 -145 -8 -145 1 0
14 -48 9 -53 -6 -3 -8 -4 -16 -1 -18 2 -3 50 -3 107 -1 l102 4 -144 -86 c-108
-64 -147 -83 -156 -75 -9 8 -15 8 -20 0 -9 -15 3 -30 20 -23 8 3 15 2 15 -1 0
-3 20 -97 45 -207 25 -111 45 -209 45 -219 0 -14 -12 -19 -56 -24 -62 -7 -94
5 -115 46 -7 13 -17 26 -23 30 -6 4 -11 12 -11 18 0 5 -3 9 -7 8 -10 -4 -37
35 -32 44 3 5 -2 8 -10 8 -9 0 -15 3 -13 8 1 4 -8 18 -21 32 -44 50 -50 58
-44 65 4 4 0 5 -8 3 -9 -2 -14 4 -14 15 1 9 -11 31 -27 48 -16 17 -29 33 -29
36 0 8 -61 87 -83 106 -17 15 -18 20 -6 48 11 28 10 33 -6 45 -26 19 -55 1
-55 -35 0 -20 -15 -48 -47 -88 -26 -32 -40 -52 -31 -45 10 8 34 36 55 63 20
27 42 49 48 49 7 0 11 -25 11 -69 -1 -38 -4 -67 -7 -65 -6 3 -27 -188 -35
-315 -2 -35 -7 -67 -10 -72 -10 -16 -35 -9 -79 21 -24 17 -48 30 -52 30 -5 0
-18 8 -29 18 -10 10 -34 28 -51 40 -18 13 -33 31 -33 41 0 10 23 49 51 87 29
38 42 61 31 50 -12 -10 -36 -40 -54 -67 -18 -27 -38 -49 -43 -49 -19 0 -33
-21 -28 -41 4 -13 11 -18 24 -14 11 4 39 -10 79 -39 34 -25 80 -56 101 -68 33
-18 39 -27 39 -54 0 -30 -4 -34 -42 -45 -24 -7 -64 -13 -90 -13 -55 -1 -67
-10 -46 -33 9 -10 23 -33 32 -50 l17 -33 -58 0 c-65 -1 -56 -13 17 -25 56 -9
80 -21 80 -40 0 -18 -11 -18 -112 -1 -43 7 -78 10 -78 6 0 -3 46 -13 102 -21
l103 -14 42 -69 42 -68 7 61 c4 34 11 61 18 61 40 0 190 -31 196 -40 5 -8 9
-7 13 3 3 8 0 20 -6 26 -8 8 -7 11 6 11 9 0 17 -6 17 -14 0 -19 19 -25 120
-31 91 -7 117 -18 88 -39 -23 -17 -162 -41 -178 -31 -7 4 -15 2 -19 -4 -4 -6
-45 -18 -92 -27 -46 -9 -88 -20 -92 -24 -4 -4 26 -13 68 -20 42 -7 74 -17 73
-22 -2 -5 -53 -30 -113 -57 -61 -27 -150 -67 -200 -91 -49 -23 -117 -52 -150
-65 -33 -13 -104 -44 -158 -69 -81 -38 -105 -45 -135 -41 -61 10 -79 24 -85
64 -3 20 -9 46 -12 58 -6 17 0 26 33 47 22 14 43 30 47 36 3 5 -6 34 -22 63
-24 45 -32 52 -58 52 -17 0 -36 -6 -43 -12 -23 -22 -45 -13 -86 33 l-39 45 24
50 c27 58 26 59 -55 101 l-40 20 -35 -40 -36 -41 -62 21 -63 21 0 41 c0 23 -4
46 -8 52 -11 17 -111 27 -127 14 -8 -7 -17 -32 -21 -56 -7 -46 -4 -44 -74 -59
-8 -2 -25 -6 -37 -10 -18 -5 -27 2 -49 34 -31 48 -51 51 -109 18 -44 -25 -49
-45 -25 -103 13 -29 12 -32 -31 -72 -48 -45 -61 -49 -99 -27 -43 25 -63 18
-92 -29 -16 -24 -28 -50 -28 -58 0 -8 18 -28 40 -43 22 -16 38 -33 36 -39 -3
-6 -12 -35 -21 -63 l-16 -53 -50 0 c-45 0 -51 -3 -60 -27 -5 -15 -9 -47 -7
-72 l3 -46 52 -9 c52 -9 52 -10 62 -55 5 -25 13 -53 16 -63 5 -12 -6 -25 -40
-48 -39 -27 -46 -36 -41 -56 5 -17 2 -24 -9 -24 -8 0 -15 -9 -15 -19 0 -21 22
-33 44 -25 7 3 16 -2 19 -10 8 -21 38 -20 82 1 l35 17 44 -50 44 -49 -19 -37
c-29 -56 -25 -73 25 -102 58 -34 73 -33 110 9 l31 34 54 -14 c30 -8 56 -17 59
-19 2 -3 5 -23 6 -45 3 -61 19 -72 90 -69 l61 3 5 47 c3 26 9 50 12 54 4 3 26
10 50 14 24 5 50 11 59 15 13 5 23 -4 40 -34 12 -22 29 -43 37 -46 8 -3 37 7
66 23 55 30 59 40 35 100 -13 32 -13 33 34 79 l48 46 38 -21 c21 -12 46 -22
54 -22 15 0 77 87 77 108 0 8 -49 51 -78 68 -2 1 6 28 17 60 16 48 24 60 48
66 40 11 52 5 170 -84 59 -45 123 -90 142 -100 l36 -20 -30 24 c-16 12 -37 28
-46 33 -9 6 -58 41 -108 78 -74 56 -90 73 -87 90 3 12 8 44 11 70 6 48 7 49
68 77 34 16 96 42 137 58 41 17 154 67 250 112 267 125 361 154 376 115 9 -22
44 -19 44 4 0 31 142 141 182 141 18 0 23 -12 64 -168 28 -106 26 -135 -6 -93
l-18 24 -53 -23 c-30 -13 -92 -36 -139 -51 -47 -15 -85 -31 -84 -36 0 -4 9
-28 21 -53 31 -70 47 -119 41 -126 -4 -3 -31 13 -62 35 l-55 41 6 -117 c3 -65
8 -142 12 -172 l6 -55 57 75 c32 41 71 85 87 96 l29 22 133 -35 c73 -18 134
-34 135 -34 1 0 4 -9 7 -20 3 -11 12 -23 21 -26 22 -9 48 15 42 39 -3 12 8 40
28 71 18 28 59 93 91 145 32 51 70 104 84 117 14 13 23 26 20 29 -3 3 -70 7
-149 10 -160 5 -180 9 -180 33 0 9 24 112 53 227 l53 210 54 38 c29 20 64 37
76 37 25 0 35 17 24 40 -7 13 3 441 12 510 2 17 -2 25 -14 28 -12 2 -18 -3
-18 -16 0 -11 -36 -91 -80 -178 -68 -134 -84 -160 -107 -166 -15 -4 -31 -4
-35 0 -6 6 77 376 121 538 17 63 45 82 173 115 62 16 126 29 142 29 25 0 27 3
21 23 -19 58 -95 438 -97 487 -2 41 -7 55 -18 55 -9 0 -17 -14 -21 -37 -3 -21
-37 -126 -75 -234 -63 -180 -69 -193 -74 -158 -4 34 -8 39 -32 39 -14 1 -32 6
-40 13 -8 6 -23 9 -34 6 -12 -3 -26 1 -33 10 -14 17 -15 16 39 20 8 1 20 4 27
9 7 4 16 0 23 -10 6 -10 9 -11 6 -3 -3 8 -9 23 -12 32 -6 16 -10 15 -55 -7
-60 -31 -79 -31 -154 -2 l-60 23 0 87 c0 48 2 163 3 257 2 167 2 170 25 175
21 5 333 -53 369 -69 28 -12 36 23 11 43 -11 9 -38 50 -58 91 -94 185 -189
350 -199 347 -6 -2 -14 -17 -17 -33 -4 -16 -30 -91 -58 -168 l-52 -138 -171
-207 c-221 -266 -235 -281 -269 -281 -15 0 -31 4 -34 10 -8 12 106 220 121
220 14 0 21 65 30 265 4 85 13 164 20 181 7 18 36 48 63 69 32 23 75 72 118
133 37 53 93 132 125 176 58 77 59 79 39 93 -12 8 -88 68 -170 134 l-150 120
-86 166 c-53 105 -83 174 -79 185 5 17 -5 18 -150 18 -124 0 -162 3 -190 17
-31 14 -33 18 -19 28 9 7 13 17 9 23 -9 15 -39 15 -53 1 -13 -13 -87 22 -97
46 -5 15 -9 15 -33 1 -16 -8 -77 -22 -137 -31 -98 -14 -110 -14 -126 0 -9 8
-23 15 -30 15 -8 0 -25 10 -38 23 l-24 22 7 -37 c7 -36 6 -37 -27 -42 -18 -3
-60 -10 -92 -16 -78 -13 -221 -13 -271 1 -67 18 -69 24 -33 88 17 31 41 65 54
76 12 11 37 46 55 78 l32 58 38 -6 c31 -5 40 -3 45 9 4 10 18 16 35 16 19 0
29 5 29 15 0 27 81 98 119 105 30 4 36 9 36 30 0 31 -42 41 -61 15 -11 -15
-27 -16 -129 -11 -131 7 -136 4 -110 -58 14 -32 14 -40 3 -47 -17 -11 -55 -11
-98 1 -19 5 -55 12 -80 15 -74 9 -161 25 -240 43 -85 20 -97 37 -55 76 15 14
25 31 22 38 -5 16 86 201 113 228 11 11 20 28 20 39 0 27 -46 32 -318 32 -240
1 -244 2 -255 44 -4 19 -5 18 -6 -2 0 -12 -5 -24 -10 -28 -14 -8 -81 26 -81
42 0 17 53 113 63 113 4 0 7 -8 8 -17 1 -10 5 2 10 27 10 52 1 67 -31 50 -32
-17 -312 -35 -349 -22 -21 8 -32 7 -42 -3 -12 -12 -201 -74 -793 -261 -100
-32 -142 -41 -151 -34 -15 13 -26 60 -14 60 5 0 9 10 8 23 0 20 -1 20 -8 3 -5
-12 -10 -15 -14 -9 -4 6 0 16 8 23 8 7 15 9 15 5 0 -4 6 -2 14 4 10 8 40 8
121 -4 60 -8 111 -13 113 -10 3 3 -5 5 -18 5 -18 0 -20 3 -11 14 9 11 1 34
-35 105 -25 50 -50 89 -55 86 -5 -4 -9 3 -9 15 0 12 -4 18 -10 15 -5 -3 -10
-1 -10 4 0 6 6 11 13 11 9 0 9 2 -1 9 -10 6 -10 10 3 21 8 7 15 19 15 27 0 21
-31 29 -45 10 -8 -11 -64 -28 -164 -50 -84 -18 -150 -35 -147 -37 8 -9 -77 -4
-98 5 -11 5 -26 4 -36 -3 -13 -8 -55 -3 -166 18 -175 34 -180 35 -187 61 -6
23 -35 25 -43 4z m1720 -171 c3 -9 6 -28 6 -43 0 -27 -5 -30 -143 -79 -88 -32
-151 -49 -165 -45 -26 6 -52 -12 -52 -38 0 -23 17 -33 55 -31 20 1 82 -25 190
-81 l160 -82 12 -100 c6 -55 14 -121 17 -147 4 -31 3 -48 -4 -48 -6 0 -95 36
-198 79 -209 88 -556 233 -704 293 -54 22 -98 44 -98 48 0 4 19 12 43 19 23 7
148 46 277 88 349 111 574 181 586 182 7 1 15 -6 18 -15z m-2261 -33 c82 -16
151 -32 154 -35 6 -6 11 -4 -176 -46 -163 -37 -171 -37 -171 -6 0 63 13 116
29 116 9 0 83 -13 164 -29z m2480 -42 c34 -17 64 -35 65 -40 2 -5 13 -9 23 -9
26 0 69 -23 93 -49 11 -12 24 -21 30 -21 9 0 237 -216 244 -232 8 -17 -50 -6
-69 13 -22 22 -49 19 -49 -6 0 -9 -9 -15 -22 -14 -62 1 -368 36 -375 42 -7 8
11 47 82 175 25 45 44 82 41 82 -2 0 -33 -50 -67 -110 -49 -87 -70 -114 -96
-127 -20 -9 -38 -12 -42 -7 -5 5 -16 71 -26 148 -18 151 -18 152 38 173 49 18
62 16 130 -18z m-2122 -29 c51 -16 94 -28 95 -27 1 1 6 12 12 23 7 13 24 24
44 26 26 4 57 -10 185 -85 129 -75 154 -93 151 -111 -3 -23 8 -20 -346 -105
-111 -26 -205 -44 -208 -40 -11 18 -44 9 -44 -11 0 -13 7 -20 19 -20 26 0 115
-124 116 -159 0 -32 38 -37 43 -6 2 13 53 55 139 115 75 52 169 119 210 148
64 45 113 65 113 47 0 -3 14 -148 31 -323 17 -174 32 -356 32 -403 l2 -85
-120 -127 c-88 -93 -128 -128 -150 -133 -26 -5 -200 0 -260 7 -21 3 -350 125
-375 140 -8 4 -10 8 -5 8 47 0 505 57 505 63 0 4 -24 45 -53 90 -30 46 -66
105 -82 132 l-28 48 84 -7 c46 -4 90 -12 96 -17 17 -14 43 -3 43 18 0 13 -7
15 -32 12 -44 -7 -189 9 -201 21 -6 6 -19 11 -29 11 -13 0 -26 18 -43 56 -14
31 -25 62 -25 68 0 6 -11 31 -24 56 -12 25 -34 77 -47 115 -29 85 -25 79 -43
72 -14 -6 -13 -10 3 -39 11 -18 35 -71 54 -118 53 -131 107 -243 120 -253 14
-9 -299 -320 -317 -314 -6 2 -20 28 -32 57 -17 43 -19 58 -10 73 9 15 8 21 -6
31 -18 13 -78 135 -78 157 0 6 18 33 41 60 22 27 38 49 35 49 -4 0 19 32 50
70 40 50 63 70 79 70 28 0 39 24 19 40 -10 9 -18 9 -27 2 -9 -8 -37 0 -102 27
-146 61 -185 81 -185 92 0 18 353 380 385 395 43 19 62 17 166 -16z m1913 -46
c9 -71 8 -82 -14 -89 -29 -9 -26 -43 5 -51 22 -5 46 -47 34 -58 -6 -6 -299
136 -299 144 0 7 233 96 256 99 6 0 14 -20 18 -45z m-2214 -31 c-11 -16 -75
-82 -141 -148 l-121 -120 6 80 c3 44 9 81 14 83 4 1 61 32 127 67 66 35 124
64 128 65 4 0 -2 -12 -13 -27z m3028 0 c95 -4 122 -8 122 -19 0 -20 -105 -228
-123 -242 -10 -9 -29 -10 -58 -6 -39 7 -58 21 -179 141 l-135 133 125 -1 c69
0 180 -3 248 -6z m-131 -299 c50 -31 73 -52 73 -65 0 -10 4 -19 10 -19 5 0 12
-16 16 -35 3 -19 11 -35 16 -35 6 0 8 6 5 13 -18 49 -18 57 0 57 10 0 86 -15
168 -33 l150 -33 37 -75 c20 -41 37 -82 38 -92 0 -18 -34 -83 -72 -139 l-18
-26 -120 31 -120 31 -11 38 c-12 48 -22 50 -13 3 5 -27 3 -35 -9 -35 -8 0 -20
7 -27 15 -18 21 -29 19 -40 -9 -9 -24 -122 -105 -147 -106 -15 0 -270 307
-297 356 -10 19 -17 37 -15 39 17 16 275 165 287 165 8 0 48 -21 89 -46z
m-3372 -50 c66 -19 124 -40 129 -45 14 -13 1 -21 -38 -22 -19 0 -32 -5 -29
-11 4 -5 -3 -7 -15 -4 -12 4 -20 3 -17 -2 3 -4 -7 -11 -23 -14 -46 -11 -251
-76 -370 -117 -130 -45 -142 -46 -142 -19 0 11 -4 20 -9 20 -17 0 -24 41 -10
56 26 25 374 203 389 199 8 -3 69 -21 135 -41z m3173 -347 l103 -126 -40 -25
c-115 -73 -173 -106 -185 -106 -14 0 -26 61 -26 137 0 40 2 44 20 38 26 -8 25
1 -5 41 -20 26 -27 51 -35 126 -5 51 -10 100 -9 108 0 18 41 -26 177 -193z
m-478 71 c-23 -29 -61 -77 -84 -105 -22 -29 -44 -53 -48 -53 -7 0 -66 96 -71
115 -2 7 210 93 231 94 8 1 -5 -23 -28 -51z m-2612 -100 c-7 -13 -11 -28 -10
-35 1 -6 -2 -14 -8 -18 -5 -3 -10 -15 -10 -26 0 -11 -7 -31 -16 -44 -12 -19
-13 -25 -3 -25 10 0 10 -3 2 -11 -9 -9 -39 -9 -120 0 -59 6 -115 11 -123 11
-8 0 -2 9 14 19 17 11 33 18 37 15 4 -2 9 1 11 7 4 13 206 127 226 128 10 1
10 -3 0 -21z m3596 -49 c45 -12 85 -25 89 -29 5 -4 -23 -62 -61 -130 -38 -67
-72 -118 -75 -113 -3 4 -12 45 -22 91 -16 79 -16 85 0 103 17 18 16 19 -9 28
-14 6 -26 17 -26 25 0 8 -3 21 -6 30 -8 22 12 21 110 -5z m228 -59 c39 -11 73
-22 75 -24 3 -3 -15 -17 -39 -32 -23 -15 -90 -57 -148 -94 -58 -36 -111 -70
-118 -74 -17 -10 14 51 80 162 27 45 56 82 64 82 8 0 46 -9 86 -20z m-386 -14
c16 -15 73 -175 82 -228 8 -48 39 -66 49 -29 3 12 32 37 67 58 33 20 108 68
164 105 57 37 110 68 118 68 8 0 14 -10 14 -22 0 -13 5 -79 10 -148 7 -82 6
-128 0 -134 -6 -6 -10 -24 -10 -41 0 -17 -7 -42 -16 -55 -13 -21 -12 -21 8 3
15 17 36 28 55 30 17 1 29 5 26 10 -2 4 3 7 12 7 9 0 28 7 43 16 l27 16 -25
-21 c-19 -15 -21 -21 -9 -21 9 0 58 -13 109 -30 51 -16 97 -27 101 -25 4 3 9
1 11 -5 1 -5 12 -11 23 -13 11 -2 27 -7 35 -10 8 -4 53 -20 100 -36 191 -65
191 -65 234 -133 22 -35 66 -104 98 -154 32 -50 58 -94 58 -97 0 -15 -25 -5
-75 27 -112 75 -221 137 -185 106 19 -16 44 -33 55 -36 34 -11 165 -106 165
-119 0 -17 -274 -8 -312 10 -24 11 -28 11 -28 -1 0 -10 -13 -14 -44 -14 -35 0
-48 5 -60 22 -13 18 -16 19 -16 5 0 -9 -6 -17 -12 -18 -7 0 -101 0 -208 1
-204 0 -340 8 -340 19 0 4 51 14 113 23 61 9 176 27 255 38 131 20 145 21 167
6 13 -9 31 -13 39 -10 9 4 34 -8 58 -26 l43 -32 -43 38 c-23 22 -42 46 -42 55
0 26 -24 40 -58 33 -26 -5 -66 10 -229 86 -109 51 -201 95 -205 97 -5 2 -8 0
-8 -6 0 -5 10 -12 23 -16 33 -9 396 -179 397 -186 0 -8 -621 -102 -628 -94 -4
3 5 28 19 55 16 30 21 46 12 43 -7 -3 -13 1 -13 8 0 8 -11 -9 -24 -37 -13 -28
-30 -54 -39 -57 -12 -5 -141 78 -266 171 l-31 23 0 -40 c0 -23 4 -41 9 -41 4
0 6 12 3 26 -3 15 -1 25 4 23 38 -16 253 -177 251 -188 -2 -15 -214 -97 -224
-87 -3 3 -12 54 -19 113 l-13 108 6 -95 c3 -52 6 -106 7 -119 1 -21 -10 -28
-109 -68 -87 -34 -114 -41 -128 -33 -10 6 -32 8 -50 5 -23 -4 -76 7 -181 39
-82 26 -151 44 -154 42 -2 -3 -27 4 -56 15 -28 12 -51 20 -51 19 0 -1 -12 1
-27 5 -16 4 -28 13 -28 20 0 6 62 36 138 65 75 29 234 90 352 137 166 64 223
82 246 77 39 -7 64 18 46 46 -9 15 -7 30 13 74 14 31 29 56 34 56 16 0 23 40
11 55 -7 8 -21 15 -32 15 -11 0 -96 52 -189 117 -210 144 -209 144 -81 220
147 88 151 90 255 85 51 -2 97 -9 103 -16z m960 4 c101 -21 129 -33 289 -130
61 -37 176 -106 257 -154 81 -48 151 -93 156 -99 5 -7 12 -25 16 -42 4 -16 44
-146 88 -287 45 -142 79 -260 76 -263 -6 -6 -382 40 -397 49 -15 10 134 194
156 192 43 -3 13 39 -127 183 -82 84 -150 156 -150 160 0 3 7 -3 15 -13 8 -11
15 -15 15 -10 0 9 -33 52 -71 93 -8 10 -19 25 -22 35 -4 9 -10 15 -15 12 -4
-2 -13 8 -20 24 -7 15 -25 41 -40 56 -14 16 -27 31 -27 34 0 3 -16 26 -35 52
-35 48 -53 57 -66 36 -5 -8 -2 -9 10 -5 11 4 15 3 11 -4 -4 -6 -14 -8 -22 -5
-8 3 -28 -1 -44 -10 -30 -15 -30 -15 -94 42 -60 52 -77 74 -57 74 4 0 48 -9
98 -20z m-206 -5 c0 -11 -215 -316 -217 -308 -9 29 -20 280 -13 287 12 12 230
32 230 21z m109 -65 c24 -39 41 -76 38 -84 -3 -7 -1 -18 5 -24 6 -6 6 -12 -1
-16 -6 -4 -11 0 -11 8 0 9 -4 16 -10 16 -5 0 -10 -4 -10 -10 0 -5 -3 -9 -7 -8
-17 4 -53 -14 -47 -24 4 -7 2 -8 -4 -4 -6 4 -35 -8 -64 -27 -29 -18 -61 -36
-71 -40 -10 -4 -15 -12 -12 -17 4 -6 3 -10 -2 -9 -20 3 -34 -3 -54 -23 -12
-13 -18 -16 -14 -8 6 11 2 10 -12 -3 -17 -15 -21 -16 -26 -3 -3 8 16 46 47 88
29 40 80 115 114 166 39 57 69 92 80 92 11 0 34 -27 61 -70z m807 -121 c71
-142 73 -150 45 -130 -17 12 -36 30 -43 40 -7 9 -21 20 -30 24 -22 8 -29 -22
-10 -45 41 -49 -15 -24 -222 100 -125 75 -224 138 -219 139 17 6 407 -95 411
-106 6 -17 32 -13 32 4 0 8 -9 15 -19 15 -25 0 -222 96 -214 104 4 3 48 6 100
6 l93 0 76 -151z m-3757 -33 c34 -52 64 -102 67 -110 5 -14 -14 -16 -172 -16
l-177 0 108 110 c60 61 110 110 111 110 1 0 29 -42 63 -94z m1703 -9 c168
-115 268 -191 268 -203 0 -8 5 -23 12 -33 15 -24 -20 -116 -45 -116 -9 0 -59
60 -118 140 -56 77 -117 161 -136 188 -38 51 -32 59 19 24z m-2596 -31 c38
-13 118 -42 177 -66 88 -34 107 -45 102 -59 -13 -35 -149 -366 -152 -370 -6
-9 -15 11 -89 200 -112 286 -124 319 -115 319 4 0 39 -11 77 -24z m-1244 -142
c27 -200 31 -196 -82 -107 -52 41 -97 79 -99 85 -4 13 140 159 154 155 5 -2
18 -62 27 -133z m1771 7 c-13 -11 -23 -27 -23 -35 0 -24 31 -32 45 -12 10 13
54 22 204 39 106 13 194 20 196 17 6 -9 -67 -464 -75 -473 -10 -11 -316 276
-325 303 -4 11 -11 17 -17 14 -8 -5 -9 -1 -5 10 4 10 3 15 -3 11 -6 -3 -43 21
-83 53 -116 95 -116 92 4 92 103 -1 104 -1 82 -19z m4235 -58 c21 -16 41 -23
54 -19 30 7 123 -70 107 -90 -17 -21 0 -36 35 -30 26 4 38 -1 74 -32 l44 -38
-59 -79 c-32 -44 -80 -111 -107 -148 -31 -45 -52 -65 -58 -59 -7 7 -122 371
-166 526 -4 16 -2 17 19 6 13 -7 39 -24 57 -37z m-290 -219 c57 -17 80 -29 75
-37 -15 -25 -134 -177 -143 -182 -4 -3 -19 12 -31 32 -13 21 -56 89 -96 151
-40 62 -73 114 -73 116 0 2 42 -9 93 -25 50 -16 129 -41 175 -55z m-6737 -299
c14 -50 18 -56 23 -35 3 14 7 41 8 60 l3 35 83 3 c45 2 82 -1 82 -5 0 -16
-161 -143 -181 -143 -12 0 -38 13 -58 29 -20 15 -62 45 -93 66 -32 21 -58 42
-58 47 0 5 39 7 87 6 l88 -3 16 -60z m4230 54 c19 -7 42 -20 52 -31 12 -12 26
-17 39 -12 11 3 55 -4 98 -16 l78 -22 -31 -42 c-18 -23 -39 -52 -47 -65 l-15
-23 -70 20 c-39 11 -82 23 -96 26 -28 6 -39 35 -39 103 0 19 -5 43 -10 54 -12
22 -6 23 41 8z m1143 -31 c-69 -116 -186 -288 -194 -288 -8 0 -31 212 -24 219
8 8 198 80 212 81 8 0 10 -5 6 -12z m1558 -29 c175 -24 173 -23 95 -80 l-39
-28 -119 59 c-65 33 -119 62 -119 65 0 8 12 7 182 -16z m552 -66 c10 -21 56
-109 103 -196 47 -87 83 -160 82 -161 -4 -4 -331 56 -338 61 -2 2 20 67 49
146 29 78 57 152 61 165 12 31 23 28 43 -15z m-7738 -114 c41 -34 74 -66 74
-71 0 -14 -265 -289 -268 -279 -6 17 100 411 110 411 5 0 43 -28 84 -61z
m4474 -241 c251 -59 438 -317 416 -573 -17 -189 -135 -369 -295 -449 -93 -47
-151 -61 -256 -61 -155 0 -283 53 -391 161 -176 175 -209 459 -79 680 67 114
213 217 345 243 30 6 64 13 75 15 27 6 129 -3 185 -16z m3058 -242 c-2 -124
-6 -227 -9 -230 -8 -8 -271 81 -285 97 -9 9 21 50 135 184 80 95 150 173 155
173 4 0 7 -101 4 -224z m-613 59 c55 -16 104 -31 108 -35 5 -4 2 -24 -7 -44
-13 -31 -13 -36 0 -36 8 0 19 12 25 28 7 16 13 22 16 14 8 -20 -7 -82 -19 -82
-5 0 -7 -7 -4 -16 3 -8 2 -13 -3 -10 -5 3 -11 -1 -15 -9 -8 -22 -34 -18 -63 8
-28 25 -163 201 -163 212 0 4 6 5 13 2 6 -2 57 -17 112 -32z m1166 -312 c23
-116 39 -218 36 -226 -3 -8 -48 -25 -114 -41 -59 -15 -116 -29 -125 -32 -11
-3 -18 0 -18 9 0 18 32 116 100 307 73 204 72 201 75 198 2 -2 22 -98 46 -215z
m-2009 -151 c77 -38 130 -92 167 -171 22 -48 26 -69 26 -151 0 -76 -5 -104
-22 -143 -30 -66 -115 -151 -182 -184 -49 -25 -67 -28 -151 -28 -84 0 -101 4
-150 28 -118 60 -197 176 -208 302 -6 83 12 152 58 224 44 68 87 104 167 137
49 21 72 24 143 22 73 -3 95 -8 152 -36z m1852 -584 c-2 -29 -5 -126 -7 -215
-3 -111 -8 -168 -17 -178 -15 -18 -80 -20 -80 -2 0 20 41 161 50 172 4 5 8 22
7 36 l-2 27 -27 -19 c-25 -19 -58 -25 -58 -13 0 12 125 244 131 244 3 0 4 -24
3 -52z m-319 -249 c7 -11 34 -116 35 -134 0 -5 -14 -11 -30 -12 -21 -2 -30 2
-30 12 0 8 -7 15 -16 15 -9 0 -12 5 -8 13 5 8 2 7 -9 -2 -10 -8 -21 -11 -24
-7 -4 4 -1 11 6 16 8 4 11 15 8 25 -4 9 -12 13 -17 10 -6 -4 -9 -1 -8 7 2 7
-3 12 -9 11 -22 -5 -14 37 8 45 33 13 87 13 94 1z m-450 -60 c-2 -3 92 -25
208 -48 218 -45 255 -56 227 -64 -27 -9 -468 -29 -480 -22 -6 4 -17 2 -25 -5
-7 -6 -29 -10 -47 -8 -32 3 -33 5 -36 52 -2 27 0 56 3 65 5 13 9 12 26 -9 13
-16 17 -18 11 -5 -19 36 2 53 62 52 30 -1 52 -4 51 -8z m601 -236 c-3 -10 -23
-92 -46 -183 -50 -203 -49 -200 -59 -180 -4 8 -23 68 -41 133 -26 92 -30 121
-21 127 7 4 13 11 13 16 0 10 138 104 151 104 5 0 6 -8 3 -17z m-1793 -281
c61 -28 143 -104 172 -162 29 -58 38 -100 37 -181 -2 -149 -98 -277 -249 -331
-163 -57 -355 27 -435 190 -30 61 -33 74 -32 157 0 70 5 101 22 138 43 95 102
152 201 194 48 20 69 23 146 20 63 -3 104 -10 138 -25z m1880 -167 c71 -5 107
-11 106 -18 0 -19 -183 -302 -194 -302 -6 0 -26 63 -45 140 -32 126 -34 143
-22 168 9 18 20 26 30 23 10 -2 65 -7 125 -11z m-363 -27 c-1 -7 -16 -56 -34
-108 l-34 -95 -15 35 c-8 19 -26 63 -41 98 l-25 63 22 9 c35 14 127 12 127 -2z
m-90 -241 c0 -10 -21 -46 -47 -79 -45 -56 -48 -59 -54 -37 -4 13 -7 66 -8 117
l-1 93 55 -38 c32 -22 55 -45 55 -56z"/>
<path d="M4858 5854 c-233 -56 -387 -282 -351 -515 34 -219 207 -381 424 -396
194 -14 370 91 456 272 106 223 5 497 -222 605 -107 50 -200 60 -307 34z m256
-107 c74 -34 155 -113 192 -184 26 -53 29 -67 29 -158 0 -89 -3 -106 -27 -156
-15 -30 -51 -79 -80 -107 -72 -72 -142 -104 -240 -110 -99 -6 -172 17 -253 78
-49 37 -67 59 -100 124 -38 75 -40 83 -40 170 0 81 3 98 32 158 48 103 122
166 238 205 62 20 182 10 249 -20z"/>
<path d="M6483 5270 c-89 -18 -173 -81 -215 -163 -14 -28 -23 -67 -26 -120 -4
-71 -2 -82 27 -142 56 -112 152 -175 271 -175 147 0 273 107 301 254 36 199
-156 386 -358 346z m140 -66 c137 -47 204 -213 138 -343 -25 -49 -94 -108
-140 -121 -96 -27 -184 -6 -251 58 -189 183 3 491 253 406z"/>
<path d="M6370 3847 c-137 -38 -223 -151 -224 -292 -1 -119 53 -214 155 -270
48 -27 63 -30 139 -30 69 0 94 4 134 24 155 76 213 259 134 418 -58 117 -213
185 -338 150z m181 -75 c121 -63 171 -199 115 -317 -45 -96 -121 -145 -224
-145 -181 0 -297 187 -216 348 64 129 204 178 325 114z"/>
<path d="M2205 6461 c-5 -16 -20 -20 -93 -26 -48 -4 -109 -7 -137 -6 -58 3
-57 0 9 -28 38 -17 47 -18 43 -7 -4 10 -1 13 8 10 8 -3 12 -11 9 -18 -6 -16
43 -38 66 -31 12 4 22 -1 29 -12 6 -10 11 -15 11 -11 0 4 21 -4 47 -18 26 -13
54 -22 62 -19 9 3 12 3 8 -1 -4 -4 3 -12 16 -18 12 -6 23 -22 25 -34 4 -28 38
-48 56 -32 10 8 39 1 112 -25 85 -31 349 -121 409 -139 11 -4 0 3 -25 14 -25
12 -133 51 -240 87 -215 72 -229 78 -248 104 -7 10 -24 19 -38 21 -16 2 -32
14 -42 33 -9 17 -20 32 -25 33 -4 2 -5 8 -1 13 3 5 0 9 -5 9 -6 0 -11 7 -11
15 0 8 -3 15 -8 15 -13 0 -41 -38 -34 -46 4 -4 1 -4 -5 0 -16 9 3 44 28 51 21
7 43 50 36 69 -9 23 -54 20 -62 -3z"/>
<path d="M1727 6313 c-4 -3 -7 -15 -7 -25 0 -10 -4 -18 -10 -18 -5 0 -10 -9
-10 -19 0 -15 -15 -25 -60 -42 -42 -15 -59 -26 -56 -36 3 -7 1 -13 -4 -13 -6
0 -10 5 -10 11 0 10 -20 6 -70 -14 -14 -6 -29 -9 -33 -8 -5 1 -6 -2 -3 -7 3
-5 -9 -9 -27 -9 -45 -2 -95 26 -99 54 -2 17 -7 20 -18 13 -12 -8 -12 -11 2
-27 12 -13 14 -23 7 -36 -21 -36 34 -65 61 -32 7 8 17 12 22 9 6 -4 14 0 19 7
7 11 9 10 9 -3 0 -10 2 -18 4 -18 2 0 40 -13 84 -29 45 -16 83 -26 86 -23 3 3
9 -9 12 -27 5 -22 12 -31 23 -29 24 5 25 35 2 43 -18 5 -19 8 -5 40 18 43 18
49 0 42 -10 -4 -13 -1 -10 8 3 8 12 11 19 9 9 -4 17 8 25 35 6 23 14 41 18 41
5 0 18 9 29 20 18 16 20 25 13 49 -7 24 -5 31 8 34 15 4 15 5 1 6 -9 0 -19 -2
-22 -6z"/>
<path d="M2119 6047 c-14 -17 -63 -81 -109 -142 -106 -141 -136 -175 -155
-175 -9 0 -26 -6 -38 -14 -15 -10 -90 -18 -249 -27 -208 -12 -228 -14 -228
-31 0 -10 7 -18 14 -18 17 0 254 -273 267 -308 11 -29 31 -24 40 10 3 14 43
88 89 166 90 154 108 170 144 124 12 -15 34 -40 49 -57 16 -16 8 -4 -17 28
-34 44 -46 68 -46 93 0 42 16 44 110 11 54 -19 65 -27 64 -45 0 -13 5 -22 13
-22 8 0 12 -4 8 -10 -3 -5 -11 -7 -18 -4 -8 3 -21 -15 -35 -47 -16 -38 -25
-50 -37 -45 -13 4 -14 2 -5 -14 8 -14 6 -29 -5 -57 -9 -20 -13 -43 -10 -50 2
-8 1 -12 -3 -9 -5 3 -18 -17 -29 -43 -20 -47 -20 -48 -1 -43 11 3 17 10 14 19
-3 8 -2 11 4 8 5 -3 18 0 29 7 15 9 17 16 9 31 -5 10 -7 21 -4 25 3 3 6 1 6
-4 0 -13 38 -15 45 -3 4 5 15 9 26 9 10 0 19 6 19 13 0 7 9 18 20 25 12 7 18
18 14 24 -4 7 -3 8 4 4 6 -4 17 2 23 13 7 10 18 17 25 14 6 -2 15 1 20 8 4 7
3 10 -2 7 -5 -4 -10 6 -10 20 -1 15 1 22 3 15 2 -7 12 -9 21 -6 15 4 15 3 2
-6 -13 -9 -13 -11 0 -11 8 0 35 18 60 41 25 22 39 38 33 34 -7 -3 -13 -2 -13
4 0 6 -8 7 -17 4 -15 -6 -16 -5 -3 9 8 9 17 12 20 8 3 -4 14 -10 25 -12 16 -2
19 2 17 20 -1 16 4 25 17 29 13 3 18 12 16 24 -2 10 1 19 7 19 5 0 7 -7 4 -16
-4 -11 -2 -15 8 -11 8 3 16 1 18 -4 4 -11 52 30 59 49 2 6 13 13 24 15 11 2
28 7 37 11 9 4 22 5 28 1 9 -5 15 23 11 48 -1 5 2 6 7 3 5 -3 18 4 30 14 43
40 47 30 63 -136 8 -86 11 -158 7 -160 -4 -3 -14 8 -22 23 -22 40 -19 23 4
-31 16 -35 18 -50 10 -66 -6 -11 -13 -20 -16 -20 -3 0 -111 -20 -240 -45 -191
-36 -239 -42 -254 -32 -16 9 -22 8 -32 -6 -16 -22 -167 -59 -206 -51 -22 4
-31 2 -36 -11 -12 -33 20 -49 43 -21 14 17 91 36 169 43 48 5 57 2 85 -23 l32
-29 -24 28 c-16 18 -21 31 -15 37 8 8 456 100 486 100 4 0 8 -6 8 -14 0 -11 7
-12 28 -7 20 5 28 15 30 35 4 30 187 306 203 306 5 0 9 6 9 13 0 14 116 187
132 198 8 5 322 -27 346 -36 9 -3 11 -13 6 -27 -6 -21 -4 -20 15 4 12 15 19
32 16 38 -3 5 -34 10 -68 10 -33 0 -110 5 -170 12 -99 11 -110 14 -118 35 -10
26 -24 28 -59 8 -33 -19 -79 -19 -100 0 -23 21 -50 9 -50 -21 0 -22 2 -23 21
-14 11 6 30 10 42 7 19 -3 18 -4 -8 -11 -16 -4 -39 -12 -50 -17 -11 -5 -73
-27 -138 -49 -107 -37 -122 -39 -158 -30 -66 18 -87 31 -100 62 -6 16 -14 27
-16 24 -3 -2 1 -14 7 -27 12 -21 11 -22 -18 -16 -20 4 -32 2 -36 -6 -2 -7 -5
-5 -5 5 -1 11 -17 20 -53 28 -29 6 -61 14 -72 17 -12 3 -16 1 -12 -6 10 -16
-5 -14 -18 3 -14 18 -62 33 -52 17 5 -7 2 -10 -6 -9 -7 2 -12 -3 -10 -9 1 -7
-2 -13 -8 -13 -5 0 -10 -7 -10 -16 0 -32 -39 -70 -97 -94 -32 -13 -61 -28 -65
-34 -4 -6 -10 -7 -14 -4 -4 4 -15 3 -25 -3 -14 -7 -17 -6 -13 4 6 17 215 183
226 179 21 -6 17 31 -7 72 -15 25 -28 46 -28 46 -1 0 -14 -15 -28 -33z m770
-197 c7 -33 9 -66 5 -73 -4 -6 -50 -74 -103 -150 -72 -103 -97 -133 -102 -120
-10 28 -32 324 -24 331 7 8 184 70 201 71 6 1 17 -26 23 -59z m-1071 -178
c-10 -23 -172 -303 -177 -307 -8 -4 -256 284 -250 289 4 4 281 22 372 24 32 1
57 -2 55 -6z"/>
<path d="M786 6022 c-9 -15 12 -35 31 -30 17 4 28 -11 67 -90 l47 -95 46 7
c25 3 62 6 82 6 l36 0 -25 20 c-14 11 -71 52 -128 91 -57 39 -106 77 -109 85
-6 15 -39 19 -47 6z"/>
<path d="M1181 5606 c-15 -17 -326 -120 -358 -118 -23 2 -36 -12 -38 -39 -1
-14 3 -15 21 -9 23 9 61 -7 143 -62 45 -30 71 -31 71 -2 0 9 47 64 106 122 76
76 101 107 92 113 -18 12 -24 11 -37 -5z m-102 -126 c-40 -45 -80 -80 -90 -80
-22 0 -129 51 -129 61 0 7 254 97 278 98 8 1 -19 -35 -59 -79z"/>
<path d="M683 5452 c-3 -13 -40 -31 -131 -63 -70 -24 -136 -44 -147 -44 -13 0
-21 -8 -23 -22 -3 -19 1 -23 21 -23 29 0 57 -37 57 -74 0 -14 4 -27 9 -30 16
-11 42 6 39 25 -2 12 28 50 87 109 70 70 96 90 117 90 30 0 37 17 16 38 -18
18 -39 15 -45 -6z"/>
<path d="M3510 5365 c-10 -12 -9 -20 6 -42 24 -37 33 -276 11 -302 -11 -13
-11 -22 -1 -51 7 -19 13 -27 13 -17 1 23 20 21 61 -7 19 -13 60 -36 90 -53 30
-16 69 -37 85 -47 l30 -18 -25 20 c-14 12 -59 40 -100 63 -77 43 -110 67 -110
79 0 15 223 112 247 107 25 -5 49 16 38 33 -3 5 -16 10 -28 11 -26 0 -255 180
-250 195 5 14 -24 44 -41 44 -8 0 -19 -7 -26 -15z"/>
<path d="M764 5069 c-8 -14 -132 -72 -294 -140 -63 -26 -116 -52 -118 -57 -1
-5 44 -83 101 -173 57 -90 117 -186 135 -214 17 -27 75 -122 130 -210 58 -94
99 -170 98 -184 -1 -13 7 -28 17 -35 15 -9 21 -7 35 9 23 28 316 108 392 107
33 0 104 -15 180 -37 69 -20 139 -39 155 -41 65 -9 90 -20 93 -43 5 -30 25
-36 56 -16 19 12 36 15 63 11 21 -4 55 -7 76 -6 56 1 494 -137 533 -168 26
-21 38 -46 70 -143 21 -65 40 -117 42 -114 2 2 -10 50 -28 107 -43 140 -42
138 -33 138 5 0 38 -19 75 -42 37 -24 112 -72 168 -108 56 -35 110 -76 121
-92 l20 -27 -102 -123 c-100 -121 -125 -143 -133 -116 -3 7 -22 67 -42 132
-21 66 -39 115 -41 110 -2 -5 10 -50 27 -99 17 -50 33 -116 37 -147 l6 -57 54
3 c30 1 56 -1 59 -5 2 -4 12 -8 22 -8 34 -1 109 -12 227 -36 66 -13 217 -42
335 -65 118 -22 227 -43 241 -46 15 -3 35 -14 45 -25 24 -27 38 -24 68 16 15
20 24 34 19 33 -27 -9 -1 28 103 147 69 80 125 135 138 137 25 4 36 48 12 48
-9 0 -16 5 -16 10 0 6 7 10 16 10 8 0 13 4 9 10 -3 5 -11 7 -18 4 -16 -6 -247
219 -247 241 0 8 -9 15 -20 15 -11 0 -20 -6 -20 -14 0 -16 -158 -226 -170
-226 -5 0 -11 10 -13 23 -3 16 -5 13 -6 -10 0 -20 -8 -36 -18 -41 -20 -10
-256 40 -278 58 -14 11 12 37 243 242 111 99 118 99 295 3 78 -43 158 -90 179
-106 33 -26 151 -96 241 -144 l38 -20 -73 -3 c-86 -3 -118 -9 -118 -22 0 -6
41 -8 110 -5 61 3 110 1 110 -3 0 -4 -36 -31 -79 -60 -44 -29 -85 -60 -92 -69
-7 -8 30 14 83 50 73 49 103 64 127 63 25 -1 80 -37 232 -151 109 -82 199
-155 199 -163 0 -11 7 -13 28 -8 46 12 260 29 276 23 14 -6 16 -36 16 -235 0
-156 -4 -232 -11 -239 -15 -15 -4 -43 16 -43 9 0 18 12 21 29 4 19 29 49 73
88 36 33 73 73 80 89 18 36 91 114 107 114 14 0 74 69 74 85 0 23 41 65 65 65
30 0 47 22 40 52 -6 24 -2 32 293 611 108 212 129 259 115 264 -8 3 -24 1 -35
-6 -23 -14 -374 -103 -397 -100 -9 1 -33 -5 -53 -15 -41 -18 -61 -20 -72 -8
-4 4 -17 7 -29 8 -149 7 -293 17 -439 30 -98 8 -188 14 -200 12 -13 -2 74 -12
192 -21 118 -10 239 -23 269 -28 30 -5 77 -9 105 -9 28 0 57 -4 63 -8 15 -9
33 -97 32 -151 0 -20 -12 -61 -27 -91 -23 -45 -40 -64 -101 -105 l-73 -50 -34
37 c-19 21 -34 34 -34 30 0 -5 11 -19 26 -32 17 -17 23 -31 19 -47 -3 -12 -1
-24 5 -28 5 -3 53 -60 106 -126 61 -77 93 -124 87 -130 -6 -6 -59 1 -145 21
-75 16 -144 30 -154 30 -15 0 -160 34 -222 51 -17 5 -27 -13 -39 -64 -4 -21
-12 -38 -18 -38 -5 0 -22 41 -36 93 -15 51 -59 196 -98 322 -39 126 -70 231
-68 232 6 6 253 5 269 -1 9 -4 18 -12 21 -18 7 -20 -14 -221 -25 -244 -6 -12
-8 -29 -4 -39 6 -16 8 -16 25 0 20 18 148 56 191 56 15 0 32 -6 40 -12 12 -11
12 -10 1 4 -14 19 -26 14 159 62 66 16 96 29 98 40 2 9 -3 16 -12 16 -9 0 -16
-5 -16 -11 0 -19 -53 -5 -240 61 -175 62 -212 79 -175 81 11 0 -2 8 -30 18
-151 54 -196 76 -191 94 3 14 -2 17 -29 17 -38 0 -65 8 -65 20 0 5 33 20 73
35 39 15 136 56 215 91 78 35 149 64 157 64 7 0 16 4 20 9 3 5 60 31 127 57
95 37 125 45 139 36 13 -9 21 -7 34 8 19 21 14 47 -11 57 -11 4 -25 -4 -43
-24 -14 -17 -48 -39 -76 -49 -40 -14 -236 -98 -440 -189 -16 -7 -41 -16 -55
-20 -14 -4 -56 -21 -93 -38 -61 -27 -73 -30 -105 -20 -88 27 -166 59 -174 73
-7 11 1 43 27 109 20 51 34 95 32 97 -2 2 -21 -39 -41 -91 -21 -52 -41 -97
-45 -100 -8 -5 -340 130 -354 144 -8 8 45 29 328 130 61 22 103 40 94 40 -9 1
-110 -33 -224 -74 -114 -41 -214 -75 -222 -75 -7 0 -23 5 -36 12 -51 26 -58
28 -69 22 -6 -4 -8 -3 -5 3 4 6 -5 21 -20 34 l-26 24 18 -27 c9 -16 15 -28 11
-28 -4 0 -198 105 -215 116 -1 2 0 7 3 12 3 6 25 6 57 0 35 -6 54 -6 58 1 4 7
123 10 343 10 288 0 337 -2 342 -15 3 -8 14 -14 23 -12 14 2 17 -3 16 -22 -3
-23 -2 -24 6 -4 5 12 16 24 25 27 9 4 16 15 16 25 0 14 -9 21 -36 25 -20 3
-88 40 -157 85 -144 93 -147 94 -147 89 0 -5 224 -153 265 -175 15 -9 -76 -11
-360 -11 l-380 0 -31 27 c-17 15 -34 35 -37 45 -4 9 -14 17 -23 17 -10 0 -27
8 -38 17 -12 10 -6 2 12 -18 17 -19 32 -41 32 -48 0 -7 5 -9 10 -6 6 3 23 -4
38 -16 l27 -22 -65 7 c-57 5 -96 22 -330 139 -155 78 -265 139 -265 147 0 20
156 51 221 44 46 -5 60 -13 144 -85 51 -43 96 -79 99 -78 3 0 -16 19 -44 42
-27 23 -76 68 -109 100 l-58 59 -67 -13 c-36 -6 -84 -18 -105 -26 -22 -7 -63
-14 -90 -14 -28 -1 -59 -5 -68 -10 -18 -10 -224 -39 -275 -39 -32 0 -34 4 -78
97 -36 76 -44 102 -36 118 22 46 21 55 -2 46 -12 -5 -32 -5 -44 0 -20 7 -21 6
-12 -10 12 -18 11 -24 -42 -204 -24 -82 -32 -87 -174 -92 -83 -3 -101 -6 -103
-20 -2 -10 4 -19 16 -22 16 -4 22 -16 27 -56 3 -29 8 -64 11 -79 3 -16 2 -28
-3 -28 -5 0 -58 29 -118 63 -81 47 -111 70 -115 88 -7 27 -41 37 -58 16 -14
-17 -4 -57 14 -57 8 0 14 -5 14 -11 0 -33 -89 -321 -104 -336 -3 -4 -6 -17 -6
-30 0 -14 -5 -23 -11 -21 -25 8 -549 495 -549 509 0 5 8 9 17 9 9 0 131 12
271 26 182 18 257 23 265 15 16 -16 42 -14 57 4 19 23 -6 48 -44 42 -17 -2
-84 13 -165 38 -75 24 -197 59 -271 80 -100 28 -140 44 -155 61 -24 27 -47 31
-65 9 -10 -12 -10 -18 0 -30 7 -9 23 -59 36 -112 18 -72 21 -100 13 -115 -8
-14 -8 -23 0 -31 12 -12 15 -77 4 -77 -5 0 -82 60 -173 133 -146 118 -165 136
-165 163 l0 29 90 8 c182 16 185 20 43 45 -83 16 -128 28 -132 38 -6 17 -32
19 -42 3z m-9 -59 c-10 -11 -24 -20 -31 -20 -19 0 -26 -17 -14 -37 13 -24 58
-373 48 -373 -20 0 -358 266 -355 280 2 14 328 170 356 170 11 0 10 -5 -4 -20z
m657 -117 c142 -43 258 -80 258 -83 0 -3 -91 -14 -202 -24 -111 -9 -223 -20
-248 -23 l-46 -5 -22 93 c-26 107 -27 119 -10 119 6 0 128 -35 270 -77z m1049
-55 c43 -88 47 -82 -60 -93 -52 -6 -63 -5 -59 6 3 8 18 56 33 107 32 105 25
106 86 -20z m-1463 -103 l152 -120 0 -61 c0 -69 -18 -114 -68 -168 l-33 -36
-98 75 c-54 41 -103 80 -108 87 -6 7 -14 63 -17 123 -4 61 -9 141 -12 179 -6
67 -6 68 13 55 11 -8 88 -68 171 -134z m1822 22 c-50 -45 -198 -167 -203 -167
-8 0 -80 140 -75 145 4 4 225 32 263 34 25 1 27 -1 15 -12z m61 -19 l0 -23 9
22 c9 21 11 20 120 -34 91 -45 110 -58 105 -73 -3 -10 0 -20 7 -23 19 -7 5
-262 -15 -286 -8 -9 -17 -25 -18 -35 -3 -13 -46 -43 -124 -87 -236 -132 -265
-150 -265 -154 0 -3 15 3 34 12 19 9 41 13 49 10 19 -7 107 -139 100 -150 -3
-5 -44 -7 -91 -4 -46 3 -97 1 -111 -3 -38 -13 -202 -17 -198 -5 2 5 41 31 88
58 46 26 89 53 94 59 9 10 -48 -20 -120 -64 -33 -20 -55 -23 -55 -9 0 5 27 66
60 136 33 70 60 129 60 132 0 19 58 132 78 151 l24 23 88 -26 c49 -14 100 -25
114 -25 23 0 26 4 25 33 -1 17 -3 25 -5 17 -11 -38 -38 -40 -140 -12 l-99 27
-39 76 -40 76 37 32 c95 84 203 170 215 170 6 1 12 -9 13 -21z m-374 -38 c3
-11 9 -20 14 -20 4 0 11 -16 15 -35 3 -20 9 -34 12 -31 3 3 11 -6 19 -21 13
-25 12 -29 -9 -45 -13 -10 -29 -16 -35 -13 -7 2 -18 -6 -24 -18 -11 -23 -23
-34 -102 -100 l-45 -38 -36 25 c-20 13 -42 26 -47 28 -7 2 5 55 32 140 l43
137 41 4 c103 9 117 8 122 -13z m-207 -3 c0 -8 -71 -241 -74 -245 -3 -2 -23 6
-45 19 -44 24 -52 47 -55 161 l-1 53 50 6 c58 7 125 10 125 6z m-305 -147 c57
-34 108 -66 113 -73 15 -19 43 -257 32 -277 -13 -24 -225 -100 -280 -100 -17
0 -39 14 -63 38 l-37 38 33 125 c19 68 44 166 57 217 12 50 27 92 32 92 5 0
56 -27 113 -60z m1328 -26 c53 -27 97 -51 97 -54 0 -7 -241 -134 -262 -138
-16 -3 -17 8 -12 120 3 68 7 129 10 136 4 15 22 8 167 -64z m-690 -49 c15 -31
27 -62 27 -69 0 -13 -120 -66 -186 -82 -30 -8 -86 14 -82 32 3 16 188 172 203
173 6 1 23 -24 38 -54z m873 -91 c17 -40 22 -68 18 -91 -5 -25 -3 -33 9 -33 8
0 20 7 27 15 18 21 188 22 196 1 7 -19 -243 -326 -265 -326 -15 0 -191 180
-191 195 0 4 -30 40 -66 80 l-65 74 38 24 c21 13 67 40 103 59 167 92 160 92
196 2z m-871 -55 c-4 -11 -26 -62 -49 -112 -24 -51 -62 -135 -85 -188 -56
-128 -48 -126 -314 -49 -111 32 -220 65 -242 73 -38 13 -39 14 -17 26 38 20
562 160 578 154 19 -7 44 15 37 33 -3 8 -13 14 -22 14 -41 0 -27 16 36 41 84
34 86 34 78 8z m767 -312 c33 -37 58 -70 55 -74 -3 -3 -37 2 -74 11 -342 80
-539 129 -546 136 -9 8 230 145 288 166 29 10 33 8 123 -80 51 -50 121 -122
154 -159z m490 70 c48 -83 84 -155 82 -159 -5 -8 -406 0 -433 8 -9 3 1 21 31
57 25 28 81 98 126 154 49 60 88 100 95 97 7 -2 52 -73 99 -157z m75 31 c71
-73 135 -143 142 -156 19 -36 7 -52 -39 -52 -70 0 -60 -13 -224 282 -52 93
-31 80 121 -74z m153 31 c41 -17 79 -35 84 -39 5 -5 -1 -37 -15 -75 -32 -90
-50 -87 -105 20 -46 88 -60 125 -47 125 5 0 42 -14 83 -31z m190 -74 c41 -14
78 -29 82 -33 12 -12 -10 -77 -37 -106 -21 -23 -31 -26 -93 -26 l-70 0 -6 36
c-5 25 -1 52 16 95 13 32 26 59 29 59 3 0 39 -11 79 -25z m-1331 -55 c26 0
383 -78 390 -86 2 -2 -29 -4 -70 -4 -41 0 -144 -3 -229 -6 l-155 -7 -13 29
c-8 16 -22 45 -33 66 l-18 36 52 -14 c28 -8 63 -14 76 -14z m1538 -31 c15 -7
56 -25 91 -40 35 -16 67 -29 72 -29 6 0 10 -4 10 -10 0 -17 -215 -13 -229 4
-15 18 -31 73 -23 80 9 10 49 7 79 -5z m-1147 -112 c-138 -68 -313 -147 -325
-147 -13 0 -105 139 -105 159 0 7 62 12 193 14 105 1 217 3 247 4 l55 2 -65
-32z m528 23 l92 0 20 -32 c11 -18 20 -38 20 -44 0 -12 -123 -104 -140 -104
-14 0 -118 56 -254 137 l-91 55 130 -6 c72 -3 172 -6 223 -6z m-986 -17 c26
-31 100 -163 96 -174 -3 -9 -92 -51 -138 -65 -11 -4 -33 27 -78 106 -34 61
-62 115 -62 120 0 17 42 29 106 29 46 1 65 -3 76 -16z m1238 -39 c14 -31 32
-60 41 -65 14 -7 14 -2 -2 48 -10 30 -16 60 -13 65 4 6 33 8 73 4 36 -3 67 -6
69 -6 2 0 0 -6 -4 -12 -6 -9 -3 -9 9 0 40 33 32 -3 -35 -153 -39 -88 -72 -162
-74 -164 -2 -2 -10 11 -18 30 -30 71 -124 230 -150 254 -42 39 -35 55 27 55
l53 0 24 -56z m-750 12 c0 -2 -63 -61 -141 -131 -154 -140 -144 -136 -188 -62
l-23 37 119 55 c65 30 141 66 168 79 50 25 65 30 65 22z m242 -223 c-6 -130
-8 -133 -85 -133 -34 0 -67 4 -74 8 -7 5 17 43 74 115 46 59 86 107 87 107 2
0 1 -44 -2 -97z m1661 10 c3 -16 21 -111 41 -213 20 -102 36 -188 36 -192 0
-30 -83 38 -108 87 -16 33 -26 254 -12 270 7 8 10 25 6 38 -3 13 -3 27 1 31
14 14 31 4 36 -21z m-2018 -123 c70 -17 133 -36 140 -44 9 -8 28 -12 50 -9 28
3 35 1 29 -9 -5 -10 -4 -11 7 0 7 6 35 12 62 12 40 0 48 -3 45 -17 -2 -9 -14
-20 -28 -24 -25 -7 -25 -7 3 -8 28 -1 29 -2 22 -43 -9 -55 -11 -58 -41 -58
-14 0 -23 -4 -20 -9 7 -10 25 -9 44 2 9 6 12 -2 12 -32 0 -21 -5 -41 -12 -43
-7 -3 -8 -9 -3 -19 16 -25 15 -47 -3 -51 -11 -3 -63 24 -135 71 -64 42 -184
120 -267 174 -82 54 -150 102 -150 106 0 14 33 22 44 11 15 -15 46 -12 52 5 8
19 2 20 149 -15z m-165 -77 c36 -22 126 -80 200 -129 74 -49 160 -105 190
-124 42 -26 50 -35 35 -37 -11 -2 -126 17 -255 42 -462 90 -598 115 -619 115
-49 0 -10 26 162 110 159 77 185 86 202 75 11 -7 49 -30 85 -52z m1738 -147
c53 -14 120 -28 147 -32 69 -9 216 -41 223 -48 3 -3 3 -8 1 -10 -9 -9 -241 13
-254 24 -8 7 -18 9 -23 6 -8 -5 -199 67 -211 80 -9 9 23 3 117 -20z m395 -116
c5 -4 6 -38 2 -75 -7 -60 -12 -71 -57 -126 -27 -32 -56 -59 -63 -59 -7 0 -25
25 -41 56 -16 31 -34 59 -41 61 -7 3 -11 9 -8 13 3 5 1 11 -5 15 -6 4 -8 11
-5 16 4 5 2 9 -3 9 -6 0 -13 11 -16 25 -4 14 -10 24 -15 21 -4 -3 -8 11 -9 31
l-1 36 127 -7 c70 -4 131 -11 135 -16z m-251 -144 c0 -20 4 -36 8 -36 4 0 6
-10 2 -22 -4 -16 -2 -19 8 -13 9 5 11 4 6 -4 -11 -18 4 -117 15 -100 6 9 7 1
3 -21 -7 -36 -48 -100 -65 -100 -10 0 -13 333 -2 344 12 12 25 -12 25 -48z"/>
<path d="M7621 3589 c-20 -8 -22 -14 -17 -44 9 -44 -28 -152 -54 -160 -10 -3
-20 -14 -22 -23 -4 -14 -24 -21 -97 -31 -50 -7 -91 -16 -91 -20 0 -4 11 -18
25 -31 14 -13 23 -30 21 -36 -3 -7 11 -27 31 -44 32 -28 34 -34 24 -56 -6 -13
-28 -43 -49 -66 -59 -67 -71 -89 -14 -28 28 30 51 58 52 63 0 4 7 7 15 7 11 0
13 -8 10 -32 -5 -32 -5 -32 4 -5 5 16 15 35 21 42 6 8 9 23 5 34 -4 13 7 45
30 91 28 55 40 71 55 68 28 -5 267 -233 274 -263 6 -25 -38 -201 -55 -219 -12
-13 -11 -26 0 -26 6 0 79 41 163 91 84 50 163 95 176 100 12 5 22 12 22 17 0
4 -56 15 -125 23 -140 18 -153 25 -186 98 -85 191 -169 394 -169 409 0 32 -22
51 -49 41z m102 -229 c83 -196 89 -212 78 -208 -5 1 -52 43 -105 92 -110 102
-119 122 -88 201 10 28 22 59 26 69 4 11 10 15 15 10 4 -5 38 -79 74 -164z
m333 -349 c28 -7 27 -9 -46 -51 -41 -23 -100 -57 -130 -76 -30 -18 -56 -32
-57 -31 -1 2 10 42 25 91 l26 88 77 -6 c42 -4 90 -11 105 -15z"/>
<path d="M5750 2848 c0 -20 -9 -23 -153 -59 -152 -37 -165 -37 -158 4 1 4 -9
2 -21 -4 -13 -7 -30 -15 -38 -19 -16 -8 -90 8 -105 22 -6 6 -2 6 10 2 19 -8
19 -7 2 10 -9 10 -14 23 -10 29 3 7 2 8 -3 4 -5 -5 -9 -16 -9 -25 0 -13 -9
-17 -44 -17 l-43 0 -34 -165 c-19 -91 -34 -171 -34 -177 0 -23 26 -14 48 17
36 48 44 38 41 -42 l-4 -72 40 -8 c46 -8 190 -65 222 -88 l22 -16 -34 -169
c-19 -94 -39 -180 -44 -192 -8 -18 -7 -26 5 -35 38 -30 71 -67 89 -102 l20
-37 -29 -55 c-16 -31 -36 -58 -43 -61 -7 -3 -18 -14 -23 -23 -13 -24 14 -53
40 -45 13 4 57 -23 147 -91 70 -53 144 -112 164 -132 19 -21 77 -61 128 -91
50 -29 109 -66 130 -82 l39 -28 8 -138 c5 -76 8 -150 6 -165 -2 -31 14 -36 49
-17 15 8 25 7 37 -3 15 -12 16 -11 3 5 -9 11 -10 17 -2 17 19 0 26 -5 23 -15
-1 -5 4 -1 13 9 8 10 12 23 9 27 -3 5 2 6 10 3 9 -3 16 -17 16 -30 0 -23 13
-53 36 -84 6 -8 22 -95 35 -192 13 -98 26 -178 29 -178 3 0 11 17 17 37 17 61
153 406 169 431 17 26 10 44 -14 40 -10 -1 -22 1 -29 5 -6 4 -15 2 -19 -4 -4
-8 -3 -9 4 -5 7 4 12 3 12 -3 0 -11 -39 -26 -47 -17 -4 3 -13 0 -21 -6 -8 -7
-21 -13 -29 -14 -12 -2 -12 0 -1 18 15 22 48 33 48 17 0 -5 5 -9 12 -9 9 0 9
3 1 11 -6 6 -9 19 -6 28 4 14 3 14 -6 1 -6 -8 -11 -10 -11 -4 0 6 6 17 14 23
17 14 31 -2 20 -21 -4 -7 -3 -9 2 -5 4 4 9 31 11 60 1 29 7 53 14 56 16 5 49
39 49 50 0 5 -20 14 -45 20 -35 9 -45 16 -45 32 0 11 -5 29 -10 40 -8 14 -7
19 2 19 10 0 10 2 1 8 -13 8 -33 118 -25 140 2 8 27 12 68 12 35 0 64 3 64 6
0 3 -31 40 -70 82 -60 66 -70 82 -70 113 0 32 -9 47 -64 105 -75 78 -75 77 8
147 30 26 98 88 152 137 63 58 106 90 121 90 12 0 27 9 33 20 10 18 149 90
174 90 7 0 16 13 21 29 6 16 118 143 258 289 191 200 255 261 280 267 39 9 18
12 166 -19 68 -15 126 -24 129 -22 2 3 -18 31 -47 61 -28 31 -51 60 -51 65 0
4 38 18 85 31 46 13 81 26 77 30 -7 5 -255 41 -257 36 -12 -28 -82 -97 -103
-102 -15 -3 -32 -15 -37 -28 -9 -18 -28 -25 -130 -44 -66 -13 -130 -22 -143
-21 l-22 3 25 40 c19 29 20 33 5 15 -49 -57 -55 -67 -66 -97 -17 -46 -205
-316 -214 -306 -8 9 -70 345 -70 380 0 34 -20 38 -44 10 -20 -24 -331 -227
-348 -227 -4 0 -8 3 -8 6 0 8 153 208 163 212 4 2 14 11 23 19 24 25 2 40 -39
26 -43 -15 -363 -84 -379 -82 -28 3 -38 -2 -38 -18 0 -14 -210 -334 -274 -418
-14 -18 -15 8 -16 276 0 218 3 298 12 307 10 10 7 17 -10 34 -18 18 -22 19
-22 6z m-40 -56 c0 -5 -15 -19 -32 -32 -18 -13 -97 -74 -175 -137 -78 -62
-145 -113 -149 -113 -4 0 -27 -16 -50 -36 -24 -19 -44 -33 -44 -29 0 3 14 32
30 65 17 33 30 69 30 80 0 27 79 120 102 120 9 0 21 8 27 18 6 11 45 26 118
44 118 29 143 32 143 20z m720 -134 c-17 -24 -55 -75 -83 -115 -29 -40 -56
-72 -62 -72 -10 0 -183 158 -174 160 134 32 301 67 322 68 l29 1 -32 -42z
m320 -196 l30 -184 -22 -36 c-13 -20 -26 -40 -29 -44 -5 -7 -338 195 -387 235
-15 12 -19 9 198 145 142 88 166 100 172 85 4 -10 21 -101 38 -201z m509 140
c-300 -316 -373 -391 -376 -388 -2 2 25 75 61 162 87 216 93 229 109 242 13
11 217 59 261 61 13 1 -3 -22 -55 -77z m-1078 -69 c42 -43 79 -86 82 -95 4
-11 17 -18 33 -18 18 0 92 -42 208 -116 100 -64 187 -123 195 -130 11 -10 7
-22 -31 -71 -24 -32 -53 -59 -63 -60 -26 -3 -375 273 -393 310 -18 38 -65 35
-70 -3 -2 -22 -47 -60 -71 -60 -3 0 -3 35 1 78 3 42 7 114 7 160 1 59 5 82 14
82 7 0 47 -35 88 -77z m-130 -26 c-5 -17 -13 -73 -16 -123 -8 -100 -20 -136
-49 -140 -10 -1 -22 -6 -25 -11 -21 -30 -67 -53 -107 -53 -24 0 -44 4 -44 9 0
4 20 38 45 75 25 36 65 95 89 131 24 35 46 61 50 58 3 -4 6 1 6 9 0 9 12 37
27 64 30 53 43 42 24 -19z m290 -309 c13 -10 41 -29 63 -43 73 -49 176 -136
176 -149 0 -7 -71 -77 -157 -155 l-158 -141 -6 43 c-4 23 -12 112 -19 197 -7
85 -14 173 -17 195 -2 22 -6 56 -8 75 -1 19 -4 40 -5 45 -8 34 5 32 53 -7 29
-24 64 -51 78 -60z m-152 -68 c7 -69 21 -190 31 -270 18 -145 17 -204 -4 -197
-6 2 -40 38 -75 80 -39 47 -67 73 -72 66 -3 -6 -7 -77 -9 -158 -1 -80 -5 -175
-8 -211 l-7 -65 -34 80 c-18 44 -40 97 -48 117 -9 20 -13 44 -10 53 4 8 2 26
-4 39 -10 20 -1 51 59 202 38 99 89 230 112 292 24 62 46 109 50 105 4 -4 12
-64 19 -133z m-567 73 c66 -24 98 -41 96 -50 -4 -18 -272 -244 -276 -233 -2 5
8 69 23 142 36 184 34 178 47 178 6 0 56 -17 110 -37z"/>
<path d="M4105 1237 c-169 -43 -242 -217 -149 -350 30 -41 57 -58 239 -144 72
-34 82 -43 104 -86 17 -35 22 -56 17 -82 -8 -40 -46 -90 -87 -110 -41 -22
-171 -19 -239 5 -70 25 -66 25 -79 -11 -17 -50 -14 -56 37 -76 36 -14 75 -18
172 -18 116 0 129 2 175 27 61 32 88 59 114 118 42 92 20 193 -57 262 -46 42
-76 59 -159 89 -126 47 -169 95 -160 176 12 106 123 149 269 103 34 -11 63
-20 64 -20 7 -1 23 85 17 90 -35 31 -199 47 -278 27z"/>
<path d="M4953 1235 c-207 -46 -343 -224 -343 -445 0 -182 99 -342 248 -402
50 -20 74 -23 202 -23 97 0 158 5 183 14 38 13 39 14 32 50 -10 51 -10 51 -62
35 -64 -19 -208 -18 -273 3 -68 22 -141 88 -177 161 -26 52 -28 67 -28 167 0
98 3 116 26 165 14 31 40 72 57 91 84 96 263 133 402 84 38 -14 39 -14 49 17
19 55 15 65 -36 78 -74 19 -210 22 -280 5z"/>
<path d="M2525 1228 c-2 -7 -27 -76 -54 -153 -79 -222 -232 -668 -238 -692 -5
-19 -1 -21 46 -21 63 -1 66 2 117 161 l39 117 158 -2 159 -3 48 -135 47 -135
59 0 c34 0 58 4 57 10 -3 13 -210 610 -260 750 l-40 110 -67 3 c-47 2 -68 -1
-71 -10z m198 -500 c-6 -11 -251 -10 -257 1 -3 4 22 91 56 192 33 101 62 191
65 199 2 8 35 -76 72 -185 38 -110 66 -203 64 -207z"/>
<path d="M3182 803 l3 -438 50 0 50 0 3 438 2 437 -55 0 -55 0 2 -437z"/>
<path d="M3562 803 l3 -438 40 -1 c22 -1 46 1 52 3 10 4 13 100 13 439 l0 434
-55 0 -55 0 2 -437z"/>
<path d="M1706 1188 c-3 -13 -10 -59 -16 -103 -18 -135 -11 -125 -85 -125
l-65 0 0 -35 0 -35 60 0 61 0 -7 -52 c-4 -29 -10 -73 -13 -98 l-6 -45 -58 -3
-57 -3 0 -34 0 -35 50 0 c33 0 50 -4 50 -12 0 -7 -7 -58 -15 -113 -20 -137
-20 -135 13 -135 15 0 32 4 38 8 6 4 16 54 23 112 18 151 11 140 92 140 38 0
69 -3 69 -7 0 -5 -7 -51 -15 -103 -22 -141 -21 -150 14 -150 17 0 33 6 37 12
5 7 15 64 23 128 l16 115 63 3 62 3 0 34 0 35 -55 0 c-34 0 -55 4 -55 11 0 7
5 52 12 100 l12 89 58 0 58 0 0 35 0 35 -50 0 c-57 0 -57 -1 -41 105 5 33 12
79 15 103 l6 42 -39 0 c-38 0 -38 0 -45 -47 -3 -27 -11 -83 -17 -125 l-11 -78
-69 0 c-80 0 -76 -11 -54 130 19 126 20 120 -20 120 -28 0 -36 -4 -39 -22z
m171 -320 c-3 -13 -8 -50 -12 -83 -11 -99 -7 -95 -87 -95 l-70 0 6 33 c3 17 8
57 11 87 10 83 6 80 86 80 69 0 71 -1 66 -22z"/>
</g>
</svg>
