<?xml version="1.0" standalone="no"?>
<!DOCTYPE svg PUBLIC "-//W3C//DTD SVG 20010904//EN"
 "http://www.w3.org/TR/2001/REC-SVG-20010904/DTD/svg10.dtd">
<svg version="1.0" xmlns="http://www.w3.org/2000/svg"
 width="1200.000000pt" height="1362.000000pt" viewBox="0 0 1200.000000 1362.000000"
 preserveAspectRatio="xMidYMid meet">

<g transform="translate(0.000000,1362.000000) scale(0.100000,-0.100000)"
fill="#000000" stroke="none">
<path d="M80 7685 l0 -5935 5918 2 5917 3 3 5933 2 5932 -5920 0 -5920 0 0
-5935z m10090 5050 l0 -605 -4200 0 -4200 0 0 605 0 605 4200 0 4200 0 0 -605z
m1470 0 l0 -605 -610 0 -610 0 0 605 0 605 610 0 610 0 0 -605z m-10092 -12
l2 -593 -585 0 -585 0 0 595 0 595 583 -2 582 -3 3 -592z m2 -5048 l0 -4275
-585 0 -585 0 0 4275 0 4275 585 0 585 0 0 -4275z m8619 3193 c0 -1039 -4
-1237 -26 -1259 -28 -28 -63 30 -63 106 0 120 -137 245 -169 154 -6 -18 -11
-41 -11 -51 0 -17 5 -18 45 -12 50 7 54 1 31 -45 -44 -84 -170 -137 -151 -63
5 22 -3 34 -61 87 l-67 63 7 77 c8 89 -4 118 -59 141 -68 28 -145 14 -189 -35
-26 -28 -15 -47 33 -55 45 -7 66 -33 56 -69 -4 -12 -25 -49 -46 -83 -21 -33
-39 -64 -39 -68 0 -4 -16 -26 -35 -49 -19 -22 -35 -49 -35 -59 0 -19 9 -21 73
-18 30 1 37 -2 37 -17 0 -11 5 -24 12 -31 7 -7 14 -64 18 -147 6 -129 8 -136
33 -163 89 -93 -64 -266 -196 -223 -50 17 -68 42 -81 112 -17 95 -28 100 -235
114 -92 7 -173 15 -180 19 -17 11 -13 35 9 63 36 46 20 83 -36 83 -24 0 -34
-5 -39 -20 -8 -25 -51 -27 -83 -4 -28 19 -29 57 -2 120 11 26 18 49 15 52 -2
3 -27 9 -55 13 -55 9 -120 43 -120 63 0 15 107 66 139 66 18 0 21 6 20 38 0
20 -8 62 -17 92 -15 47 -21 55 -42 55 -22 0 -25 -4 -22 -31 4 -35 -32 -78 -75
-89 -37 -9 -77 22 -81 63 -3 33 7 43 89 85 78 40 58 61 -72 78 -98 12 -121 22
-117 52 3 21 7 22 95 19 89 -3 93 -2 115 24 13 14 43 35 67 45 l44 19 -7 46
c-3 26 -1 54 5 66 13 23 94 62 115 54 22 -8 17 -59 -11 -100 -58 -86 -85 -163
-55 -159 8 1 36 8 61 14 65 17 79 9 79 -44 0 -50 -17 -71 -66 -81 -18 -4 -39
-15 -49 -26 -15 -17 -14 -21 19 -64 19 -26 38 -62 42 -81 7 -37 27 -61 43 -51
5 4 13 21 16 39 10 42 29 79 71 134 26 33 34 53 30 69 -5 17 -1 26 13 33 23
13 61 88 61 120 0 12 -11 37 -25 55 -31 41 -31 47 0 84 55 66 73 184 34 221
-12 11 -35 23 -52 27 -24 5 -34 1 -54 -20 -43 -47 -93 -25 -143 63 -59 103
-88 138 -136 161 -55 27 -91 22 -144 -20 -70 -55 -85 -34 -53 71 9 30 15 65
15 78 -2 28 -221 323 -258 348 -36 23 -81 20 -140 -10 -51 -26 -179 -57 -234
-57 l-30 0 0 106 0 107 -36 33 c-53 51 -76 46 -103 -23 -11 -28 -10 -35 9 -61
18 -24 21 -35 13 -59 -13 -39 -46 -42 -82 -5 -20 20 -28 36 -25 50 9 34 -14
35 -64 3 -147 -94 -202 -88 -217 24 -8 56 -44 126 -77 150 -39 27 -64 18 -123
-42 l-57 -58 72 -6 c54 -4 76 -10 92 -27 27 -26 16 -43 -53 -77 -76 -39 -121
-104 -99 -145 13 -25 18 -25 55 0 27 18 31 18 47 3 25 -23 22 -48 -8 -72 -82
-65 -173 24 -174 168 0 36 6 80 12 99 11 30 11 35 -7 48 -28 21 -123 18 -161
-5 l-32 -19 -23 24 c-12 13 -32 24 -43 24 -12 0 -35 9 -52 19 -44 27 -58 75
-51 170 9 128 -10 168 -58 117 l-24 -26 -64 24 c-73 27 -121 38 -452 101 -132
25 -262 55 -290 65 -110 44 -186 52 -365 40 -199 -13 -268 -25 -297 -53 -13
-11 -23 -17 -23 -12 0 20 -40 -31 -60 -76 -25 -59 -38 -66 -79 -45 -38 20 -75
20 -91 1 -7 -8 -22 -15 -35 -15 -36 0 -85 -21 -169 -72 -43 -26 -95 -50 -115
-53 -121 -19 -164 -47 -221 -145 -44 -75 -66 -95 -150 -129 -30 -13 -81 -36
-112 -52 -98 -50 -126 -36 -149 71 -17 80 -22 87 -102 125 -50 23 -91 53 -132
95 -33 33 -66 60 -73 60 -7 0 -23 -7 -35 -15 -22 -14 -22 -14 -18 32 l3 46
-38 -6 c-63 -10 -215 -91 -282 -151 -33 -30 -71 -57 -84 -61 -13 -4 -34 -18
-48 -30 -39 -37 -71 -45 -141 -35 -99 14 -153 -3 -208 -65 -59 -67 -85 -132
-86 -210 0 -64 4 -78 50 -168 l49 -98 -49 -42 c-28 -23 -83 -73 -123 -110
l-73 -69 -132 7 -132 7 -40 -31 c-88 -68 -114 -82 -174 -93 -76 -14 -98 -5
-199 82 l-72 62 0 649 0 649 4200 0 4200 0 -1 -1082z m1471 -3193 l0 -4275
-610 0 -610 0 0 4275 0 4275 610 0 610 0 0 -4275z m-6089 4150 c46 -20 75 -26
105 -22 74 8 84 -14 68 -136 l-7 -47 -28 17 c-26 16 -30 15 -69 -2 -44 -20
-115 -91 -130 -129 -6 -16 -5 -35 3 -56 11 -30 10 -33 -17 -55 -15 -12 -46
-28 -67 -35 -47 -16 -49 -28 -6 -56 73 -49 109 -39 131 35 21 73 31 87 92 132
35 26 54 46 50 55 -4 10 3 14 24 14 24 0 35 -8 55 -39 13 -22 59 -79 100 -128
83 -95 83 -98 58 -193 -11 -39 0 -85 17 -75 6 4 21 28 35 55 28 55 58 80 95
80 14 0 43 9 64 20 57 28 96 1 96 -68 0 -44 -34 -79 -100 -103 -33 -12 -60
-27 -60 -33 0 -17 90 -105 125 -124 17 -8 44 -18 60 -22 l30 -6 -57 -33 c-32
-18 -61 -38 -65 -43 -6 -11 60 -79 124 -128 l33 -25 -70 -54 c-39 -29 -70 -56
-70 -60 0 -4 18 -20 39 -37 63 -46 67 -60 53 -172 -18 -141 -15 -219 8 -270
l20 -44 -40 -16 c-43 -18 -47 -27 -25 -56 22 -29 18 -38 -12 -34 -24 2 -29 9
-37 43 -18 86 -40 131 -84 174 -52 50 -50 66 13 88 21 7 44 18 51 24 35 29 -7
149 -63 182 -46 27 -63 14 -63 -47 0 -54 -12 -76 -41 -76 -26 0 -66 37 -72 67
-3 15 -29 64 -56 108 -80 124 -68 173 48 212 68 23 94 56 95 120 1 65 -20 68
-78 9 -48 -50 -85 -59 -118 -29 -25 23 -22 69 9 131 37 73 26 83 -95 85 -116
2 -125 10 -130 107 -4 73 -15 86 -44 53 -16 -19 -44 -184 -35 -208 3 -7 22
-17 43 -21 49 -9 97 -54 140 -131 31 -55 34 -66 22 -76 -78 -64 -144 -107
-165 -107 -31 0 -89 35 -104 61 -8 15 -5 35 10 82 46 143 39 169 -52 217 -85
45 -107 67 -107 106 0 61 -4 64 -92 64 -74 0 -81 2 -108 28 -32 33 -52 94 -54
169 -1 72 22 95 102 101 69 5 98 -13 87 -56 -17 -69 27 -109 62 -56 32 50 12
234 -33 298 -25 36 -17 56 29 75 23 11 68 22 99 26 32 3 60 10 63 14 2 5 -7
19 -21 32 -14 13 -30 33 -36 43 -10 18 -7 19 40 13 27 -3 78 -18 113 -32z
m558 -111 c6 -15 18 -75 26 -133 8 -58 18 -123 21 -143 8 -44 -6 -54 -61 -44
-25 5 -56 27 -109 79 -40 40 -89 86 -109 102 -44 38 -58 92 -33 130 19 29 47
32 99 10 20 -8 55 -15 78 -15 32 0 42 4 46 20 7 28 28 25 42 -6z m-1059 -69
c19 -23 4 -45 -30 -45 -25 0 -30 4 -30 23 0 13 3 27 7 30 11 12 40 8 53 -8z
m-188 -102 c15 -15 28 -32 28 -39 0 -24 -67 -33 -88 -12 -23 23 -8 78 22 78 5
0 23 -12 38 -27z m1523 -25 c92 -30 75 -158 -21 -158 -24 0 -33 -5 -37 -22 -6
-22 -6 -22 -27 -3 -38 35 -42 51 -25 117 9 35 20 74 26 87 9 22 11 22 27 8 10
-9 35 -22 57 -29z m-2878 -38 c18 -54 16 -124 -4 -142 -46 -39 -163 -63 -163
-34 0 8 16 38 36 67 19 29 38 67 41 83 13 72 69 87 90 26z m1010 -30 c3 -12
11 -19 17 -17 23 9 45 -15 61 -65 35 -108 58 -118 161 -73 121 53 173 53 209
-1 41 -64 -11 -123 -69 -79 -34 25 -46 18 -46 -25 0 -49 23 -108 45 -116 9 -4
54 -2 101 4 133 18 174 -10 178 -120 l1 -42 60 -11 c101 -19 126 -40 149 -130
8 -33 18 -91 22 -128 6 -64 5 -70 -18 -95 -14 -15 -31 -37 -38 -50 -11 -22
-13 -22 -29 -8 -10 9 -27 16 -39 16 -30 0 -42 29 -42 104 0 95 -9 113 -62 119
-24 2 -53 8 -65 12 -18 6 -23 3 -23 -9 0 -25 67 -153 122 -233 64 -93 61 -108
-24 -100 -38 3 -71 13 -87 25 -25 19 -26 22 -26 130 0 103 -2 112 -24 136 -13
14 -33 28 -43 32 -25 8 -45 49 -58 125 -22 120 -54 159 -135 159 -40 0 -105
-31 -105 -50 0 -15 33 -28 91 -36 62 -8 119 -28 119 -43 0 -5 -27 -40 -60 -78
-47 -54 -100 -134 -128 -194 -2 -4 32 2 75 12 92 22 134 24 151 7 7 -7 12 -39
12 -73 0 -69 -8 -81 -91 -128 -59 -33 -79 -75 -55 -112 9 -14 29 -32 44 -42
15 -9 46 -34 69 -56 l42 -40 18 34 c24 45 77 99 98 99 33 0 82 -62 94 -118 6
-29 11 -62 11 -72 0 -30 53 -83 109 -110 28 -13 51 -27 51 -31 0 -16 -53 -69
-68 -69 -10 0 -23 9 -30 20 -24 39 -72 18 -72 -32 0 -15 -9 -37 -19 -47 -38
-38 -94 -45 -366 -45 -287 -1 -307 2 -376 60 -22 19 -45 34 -50 34 -5 0 -34
-22 -64 -50 -30 -28 -65 -50 -77 -50 -12 0 -40 19 -65 45 -33 35 -43 53 -43
79 0 22 6 36 16 40 9 3 103 6 210 6 108 0 203 4 214 10 10 5 31 30 46 54 54
86 89 85 191 -2 95 -81 113 -92 149 -92 45 0 64 9 64 30 0 23 -25 44 -90 72
-30 14 -76 43 -102 65 -40 35 -58 43 -120 53 -40 7 -106 25 -146 41 -41 16
-79 29 -86 29 -7 0 -33 14 -59 30 -26 17 -50 30 -52 30 -3 0 -5 -28 -5 -63 0
-153 -126 -243 -159 -113 -17 68 -14 153 5 164 24 14 13 44 -25 67 -51 30 -89
70 -95 96 -20 105 -18 102 -71 121 -80 28 -129 100 -93 136 22 22 51 12 93
-34 30 -33 54 -48 84 -55 22 -5 63 -25 90 -44 57 -41 162 -91 211 -100 22 -4
52 0 79 9 98 35 163 10 176 -70 4 -22 8 -45 10 -51 8 -25 36 -12 51 22 26 63
20 82 -51 153 -75 74 -90 111 -101 248 l-7 85 52 49 51 50 -69 0 c-98 0 -128
13 -141 61 -13 49 -3 92 37 151 50 72 56 87 42 104 -6 8 -23 14 -38 14 -60 0
-86 49 -61 114 21 57 77 86 87 46z m-1282 -145 c30 -29 31 -42 5 -75 -24 -30
-26 -83 -4 -105 9 -8 32 -22 52 -31 61 -25 66 -47 21 -99 -29 -33 -34 -65 -9
-65 17 0 11 -22 -11 -47 l-22 -22 27 -59 c29 -67 34 -133 11 -156 -17 -17 -23
-15 -115 28 -30 14 -62 26 -70 26 -9 0 -40 -25 -70 -55 -30 -30 -62 -55 -71
-55 -20 0 -89 74 -89 95 0 9 9 15 22 15 12 0 35 16 54 39 31 35 38 39 101 45
80 8 147 35 163 66 24 45 -17 138 -54 124 -8 -3 -22 -27 -31 -54 -9 -27 -23
-51 -31 -54 -21 -8 -51 26 -65 74 -7 23 -26 56 -42 73 l-30 32 -8 -24 c-9 -21
-13 -23 -57 -16 -73 10 -92 27 -92 80 0 57 17 138 35 161 12 18 15 17 48 -18
33 -35 47 -64 61 -130 10 -44 51 -38 115 17 29 25 64 48 77 51 27 7 27 7 24
86 -3 84 11 97 55 53z m529 -7 c17 -9 18 -17 11 -87 -14 -144 1 -202 56 -209
35 -5 58 -30 69 -74 15 -53 2 -71 -70 -98 -33 -12 -63 -27 -66 -31 -3 -5 7
-31 23 -59 21 -37 25 -52 16 -61 -17 -17 -61 -14 -83 6 -20 18 -21 18 -35 -1
-8 -10 -15 -22 -15 -25 0 -16 -34 -18 -61 -4 -50 27 -59 51 -68 198 -9 145 -8
142 -85 251 -49 69 -45 91 24 131 27 16 53 37 56 47 3 10 17 21 32 24 15 3 32
7 37 10 17 6 139 -8 159 -18z m3066 -2 c0 -8 -4 -18 -10 -21 -5 -3 -10 3 -10
14 0 12 5 21 10 21 6 0 10 -6 10 -14z m-179 -16 c10 -6 19 -20 19 -32 0 -25
-46 -78 -67 -78 -8 0 -23 21 -34 46 -16 36 -18 48 -9 60 14 16 63 19 91 4z
m-2406 -58 c-8 -8 -35 20 -35 37 1 12 5 11 21 -8 11 -13 17 -26 14 -29z m2198
-3 c37 -28 54 -88 37 -130 -17 -40 -61 -59 -138 -59 -88 0 -103 28 -57 106 28
47 91 104 116 104 9 0 28 -9 42 -21z m-2258 -51 c25 -19 27 -25 21 -72 -3 -28
-8 -65 -12 -81 -8 -42 37 -90 76 -80 14 4 44 7 68 7 l43 -1 -21 26 c-21 27
-28 97 -11 108 5 3 26 -29 46 -71 26 -55 46 -81 70 -95 18 -11 39 -34 46 -50
17 -42 15 -174 -2 -196 -20 -24 -73 -43 -118 -43 -51 0 -81 26 -124 109 -18
35 -45 74 -60 85 l-28 21 -39 -23 c-82 -47 -140 -16 -119 63 6 22 20 57 30 77
24 48 24 55 -3 54 -20 -1 -23 3 -20 32 5 67 68 152 112 152 10 0 30 -10 45
-22z m2679 -10 c50 -68 55 -145 13 -219 l-21 -36 25 -49 c22 -44 29 -51 78
-66 61 -20 104 -55 132 -110 23 -45 25 -101 4 -118 -20 -17 -46 -5 -131 60
-36 27 -69 50 -74 50 -5 0 -43 -14 -85 -31 -118 -47 -225 -58 -225 -24 0 7 21
35 46 61 78 83 114 178 114 305 0 43 5 90 10 105 12 32 68 104 80 104 5 0 20
-15 34 -32z m683 -44 c15 -23 15 -34 5 -98 -18 -103 -48 -159 -92 -170 -85
-21 -164 36 -158 114 3 34 4 35 45 36 51 1 67 14 99 75 36 72 72 87 101 43z
m471 -36 c16 -16 15 -126 -1 -158 -15 -29 -55 -37 -98 -19 -78 32 -53 122 46
173 36 19 38 19 53 4z m-2758 -63 c0 -8 -4 -15 -10 -15 -5 0 -10 7 -10 15 0 8
5 15 10 15 6 0 10 -7 10 -15z m1381 -54 c34 -35 36 -47 9 -61 -38 -21 -84 30
-66 75 8 22 24 18 57 -14z m559 -16 c35 -18 37 -36 9 -81 -41 -67 -116 -95
-142 -53 -13 21 6 71 46 116 33 37 45 40 87 18z m-3772 -7 c20 -20 14 -37 -17
-53 -36 -18 -45 -8 -30 34 12 33 27 39 47 19z m3022 -17 c5 -11 10 -47 10 -81
0 -54 3 -64 28 -86 27 -26 27 -27 27 -158 0 -165 9 -186 83 -186 38 0 59 7 97
33 95 63 105 69 120 63 24 -9 17 -33 -21 -76 -46 -51 -40 -70 19 -70 50 0 70
-16 65 -51 -2 -16 -13 -25 -34 -31 -44 -11 -101 -78 -109 -125 -12 -82 -37
-180 -55 -218 -16 -35 -19 -37 -25 -20 -3 12 -16 25 -28 30 -43 20 -48 173 -7
242 45 77 16 83 -63 14 -31 -27 -65 -52 -76 -56 -20 -6 -163 27 -191 45 -21
13 20 53 87 86 l53 26 0 57 c0 85 -28 310 -43 340 -9 19 -19 25 -36 23 -24 -4
-24 -3 -18 58 8 68 38 132 71 148 30 15 34 14 46 -7z m1784 13 c16 -6 23 -44
8 -44 -12 0 -32 23 -32 37 0 15 2 15 24 7z m-445 -35 c29 -27 26 -53 -10 -83
-22 -19 -42 -26 -74 -26 -68 0 -78 28 -32 93 33 48 75 54 116 16z m176 -69 c4
-6 -9 -30 -28 -53 -50 -62 -58 -81 -67 -168 -9 -94 -24 -115 -120 -167 l-60
-33 0 88 c0 98 14 163 35 163 12 0 22 10 84 90 23 30 114 90 138 90 6 0 15 -5
18 -10z m325 -65 c35 -18 55 -62 38 -83 -16 -19 -70 -42 -99 -42 -11 0 -37 16
-56 35 -80 80 7 147 117 90z m-890 4 c68 -15 110 -39 110 -60 0 -22 -36 -39
-81 -39 -27 0 -29 -2 -29 -40 0 -26 -5 -42 -17 -49 -16 -9 -16 -15 0 -113 20
-119 21 -151 6 -181 -15 -29 -50 -57 -73 -57 -14 0 -17 -6 -14 -25 4 -20 2
-23 -12 -15 -20 10 -33 37 -25 50 3 5 18 11 35 15 33 7 46 35 30 65 -13 24
-33 26 -51 4 -23 -28 -57 -35 -90 -19 -16 9 -30 23 -31 33 -2 9 -3 92 -3 183
0 150 -2 169 -19 188 -19 21 -19 21 16 21 19 0 46 8 59 19 40 31 108 39 189
20z m-4561 -67 c5 -10 13 -35 17 -56 9 -51 65 -113 109 -122 40 -7 137 12 187
37 21 11 60 24 88 30 41 9 55 8 82 -6 18 -9 59 -20 91 -25 37 -6 74 -20 104
-39 71 -47 143 -38 219 29 42 36 64 38 100 7 37 -32 36 -73 -4 -128 -18 -24
-29 -46 -25 -50 5 -3 39 -17 77 -29 69 -23 116 -56 116 -82 0 -8 -16 -38 -35
-68 -19 -30 -35 -64 -35 -77 0 -13 27 -51 69 -97 77 -82 97 -129 88 -204 -6
-58 -23 -74 -45 -46 -9 12 -24 35 -33 52 -11 20 -31 35 -63 46 -25 9 -67 23
-93 33 -73 25 -93 53 -93 128 0 59 -2 65 -35 94 -46 40 -70 39 -124 -4 -68
-54 -94 -45 -110 37 -10 59 -39 104 -102 163 l-51 47 -130 -7 -130 -7 -38 37
c-29 28 -44 36 -66 33 -27 -3 -29 -6 -34 -58 -6 -64 -26 -76 -65 -40 -37 35
-63 108 -90 252 -22 122 -23 134 -8 145 18 14 47 3 62 -25z m5192 -25 c97 -65
105 -169 12 -154 -70 12 -121 94 -94 153 13 30 38 31 82 1z m675 -22 c24 -37
13 -95 -33 -163 -38 -57 -38 -57 -41 -174 -3 -78 -8 -120 -16 -127 -16 -14
-103 11 -138 39 -15 12 -39 19 -60 18 -67 -2 -98 40 -83 115 10 42 20 54 69
75 22 11 47 26 55 35 7 10 25 17 40 17 44 0 131 104 131 158 0 25 8 32 36 32
14 0 30 -10 40 -25z m-2994 -81 c10 -20 9 -27 -2 -34 -18 -11 -40 6 -40 30 0
37 26 40 42 4z m2548 11 c14 -17 10 -47 -7 -52 -15 -5 -35 31 -27 51 8 20 18
20 34 1z m-647 -8 c3 -7 1 -33 -3 -57 -13 -72 -87 -124 -120 -85 -19 23 -4 60
43 110 44 45 71 56 80 32z m-1973 -71 c0 -52 -4 -77 -15 -86 -18 -15 -29 -8
-49 34 -24 50 -20 70 14 83 17 6 30 18 30 27 0 9 5 16 10 16 6 0 10 -31 10
-74z m2700 37 c0 -13 -3 -13 -15 -3 -8 7 -15 19 -15 27 0 13 3 13 15 3 8 -7
15 -19 15 -27z m-5978 -56 c17 -27 -2 -125 -28 -144 -48 -35 -124 8 -124 70 0
39 14 60 55 82 32 17 84 13 97 -8z m5852 -20 c36 -26 37 -137 1 -151 -56 -21
-102 97 -55 144 23 23 30 24 54 7z m-5653 -17 c30 -17 26 -77 -6 -92 -14 -6
-25 -14 -25 -17 1 -25 53 -55 80 -46 24 8 42 38 34 59 -7 17 24 36 60 36 34 0
39 -22 30 -130 -8 -107 -3 -113 77 -75 30 13 65 25 79 25 35 0 70 -26 70 -52
0 -45 -153 -208 -195 -208 -14 0 -35 -57 -35 -95 0 -29 -41 -95 -73 -119 -29
-21 -29 -21 -44 -1 -25 33 -12 103 32 174 37 59 38 64 21 76 -10 8 -50 19 -89
26 -122 21 -120 19 -112 90 6 54 5 63 -15 84 -15 16 -24 41 -28 75 -4 49 -3
52 42 100 25 27 46 55 46 63 0 12 19 37 28 37 2 0 12 -5 23 -10z m-741 -26
c15 -39 13 -84 -5 -84 -22 0 -38 38 -30 76 7 40 22 44 35 8z m4020 -55 c0 -44
-8 -91 -21 -128 -31 -90 -16 -105 124 -130 109 -20 126 -39 142 -157 6 -46 5
-48 -10 -29 -15 19 -17 19 -26 3 -13 -23 -83 -41 -127 -33 -19 3 -54 16 -78
28 -40 19 -49 20 -89 9 -70 -19 -97 -15 -144 20 -38 27 -55 33 -123 38 -74 5
-82 8 -109 38 -16 18 -29 38 -29 45 0 7 21 33 46 57 25 25 54 62 65 83 39 74
141 104 176 51 27 -42 29 -123 4 -172 -28 -54 -27 -62 8 -62 76 0 117 158 70
267 -13 33 -13 33 46 93 32 32 62 57 67 54 4 -3 8 -36 8 -75z m2185 51 c24
-46 18 -96 -21 -182 -37 -81 -39 -120 -9 -132 28 -10 45 5 45 41 0 40 48 97
77 91 15 -3 18 -13 16 -53 -3 -64 -22 -169 -40 -219 -16 -47 -9 -57 54 -75 48
-13 93 -61 93 -97 0 -50 -37 -93 -78 -94 -34 0 -62 -18 -62 -39 0 -31 37 -54
96 -59 46 -4 59 -1 78 17 42 39 151 56 176 26 13 -16 10 -40 -11 -92 -20 -50
0 -63 48 -31 56 36 73 40 98 24 24 -16 54 -96 74 -194 19 -92 15 -118 -25
-162 -41 -45 -65 -56 -94 -40 -26 14 -60 81 -60 120 0 23 -5 30 -19 30 -27 0
-43 24 -52 81 -10 65 -49 116 -107 141 -50 22 -127 27 -161 9 -24 -14 -28 -31
-6 -31 29 0 176 -62 202 -85 l27 -22 -27 -60 c-15 -33 -27 -71 -27 -85 0 -31
-51 -112 -85 -134 -24 -16 -36 -16 -138 -5 -61 7 -117 15 -124 18 -19 7 -16
50 5 62 15 8 13 11 -13 21 -91 35 -131 26 -178 -42 -32 -45 -35 -54 -23 -66
20 -21 134 -22 146 -2 5 8 12 11 16 7 7 -7 0 -23 -31 -77 -19 -32 -16 -104 5
-108 9 -1 24 15 39 42 28 55 80 84 117 67 15 -7 24 -19 24 -34 0 -13 7 -32 15
-43 14 -18 16 -18 47 18 18 20 49 41 69 47 19 6 59 27 89 46 66 43 93 44 131
6 35 -36 40 -88 9 -116 -11 -10 -20 -24 -20 -31 0 -24 25 -21 81 9 63 34 89
31 89 -8 0 -41 29 -43 63 -5 27 30 29 37 25 99 -3 57 -1 66 16 69 24 5 37 -9
45 -50 7 -32 8 -33 61 -34 43 -1 58 -6 72 -24 28 -35 23 -68 -17 -104 -41 -38
-44 -54 -12 -60 143 -26 315 -82 331 -108 7 -12 6 -26 -7 -52 -9 -20 -13 -36
-8 -36 5 0 33 11 63 25 70 33 112 33 134 0 24 -37 10 -79 -41 -120 -24 -20
-46 -43 -50 -53 -8 -20 19 -42 54 -42 30 0 111 -81 111 -111 0 -11 -15 -39
-34 -62 -19 -23 -36 -51 -38 -62 -6 -33 -32 -28 -76 15 -34 34 -48 41 -74 38
-25 -2 -33 -9 -39 -32 -4 -15 -17 -35 -29 -43 -11 -8 -27 -30 -35 -50 l-15
-36 -70 6 -70 6 0 -33 c0 -64 -49 -72 -78 -14 -12 25 -52 64 -106 101 -14 10
-26 21 -26 26 0 4 21 34 46 67 40 51 45 63 40 94 -3 19 -9 56 -12 82 -6 44
-11 50 -53 77 -81 49 -82 51 -80 160 2 53 -1 106 -5 119 -15 46 -117 70 -151
36 -23 -24 -13 -38 31 -44 50 -7 58 -13 78 -54 34 -71 8 -117 -74 -131 -69
-12 -71 -29 -8 -88 30 -29 80 -65 112 -80 64 -32 85 -62 70 -104 -34 -96 -177
-84 -309 26 -60 50 -79 52 -91 10 -12 -41 -50 -69 -102 -76 -60 -8 -92 15 -92
65 0 29 -7 45 -26 63 -14 13 -33 41 -41 62 -9 21 -19 35 -24 30 -13 -13 -66
-126 -73 -156 -11 -44 1 -65 43 -77 77 -20 311 -178 311 -209 0 -10 -15 -35
-33 -57 -45 -53 -57 -76 -57 -116 0 -53 -19 -70 -86 -79 -34 -5 -63 -14 -70
-24 -11 -14 -14 -13 -33 11 -34 43 -35 69 -11 177 39 179 12 253 -36 100 -16
-48 -38 -98 -51 -110 -26 -27 -80 -30 -123 -8 -34 18 -43 41 -38 102 3 51 -9
64 -36 38 -24 -24 -29 -57 -16 -106 15 -59 132 -172 204 -197 28 -10 55 -27
64 -42 27 -44 55 -70 74 -70 23 0 24 -37 2 -61 -26 -28 -10 -46 50 -59 98 -20
126 -90 60 -148 -40 -35 -44 -74 -9 -80 11 -3 45 -19 75 -37 30 -19 104 -48
165 -65 113 -32 169 -59 179 -86 13 -33 6 -73 -13 -84 -32 -16 -60 -12 -133
22 -85 39 -100 34 -158 -51 -54 -80 -75 -98 -118 -103 -21 -3 -44 -8 -54 -12
-22 -10 -31 32 -26 127 l3 72 -42 0 c-26 0 -48 7 -62 19 -22 20 -22 20 -52
-17 -24 -29 -37 -37 -64 -37 -38 0 -56 19 -76 80 -15 45 -37 70 -61 70 -11 0
-49 -14 -85 -32 -53 -25 -69 -29 -82 -19 -9 6 -24 14 -33 17 -24 8 -26 18 -34
154 l-7 121 69 -2 c38 -2 74 0 80 4 6 3 14 35 16 71 3 35 13 77 23 94 29 49
18 58 -102 75 -59 9 -142 19 -183 22 -131 11 -130 9 -153 144 -17 107 -34 102
-39 -11 -3 -78 -8 -101 -31 -142 -15 -27 -27 -57 -27 -67 0 -29 32 -40 63 -23
15 8 39 21 55 29 33 18 118 19 152 2 14 -7 32 -27 40 -45 13 -31 17 -33 47
-27 49 9 43 -15 -23 -86 -72 -79 -107 -153 -112 -241 -4 -64 -3 -70 27 -103
17 -19 38 -49 46 -65 33 -63 79 -59 153 13 l42 41 31 -31 c17 -17 28 -36 25
-42 -11 -17 -78 -49 -132 -62 -101 -24 -117 -55 -58 -107 37 -33 38 -37 13
-98 -11 -28 -10 -34 4 -49 9 -9 17 -28 17 -41 0 -14 11 -35 25 -48 23 -22 35
-66 17 -66 -32 0 -88 83 -76 114 5 12 -5 16 -58 18 l-63 3 -3 40 c-2 22 -8 46
-14 53 -13 15 -45 7 -75 -20 -21 -20 -21 -20 -33 1 -6 12 -29 29 -51 37 l-39
16 0 68 c0 73 -13 96 -37 65 -12 -17 -13 -17 -13 9 0 41 16 65 86 132 53 50
64 66 64 93 0 39 -16 71 -34 71 -16 0 -26 -21 -26 -54 0 -54 -98 -108 -158
-88 -26 8 -28 12 -48 109 -5 24 -6 24 -127 -13 -134 -41 -164 -30 -153 55 4
27 2 52 -3 55 -5 3 -31 -1 -57 -9 -57 -17 -137 -20 -164 -5 -10 6 -29 28 -41
50 -13 22 -27 40 -32 40 -5 0 -22 -9 -38 -21 -32 -22 -187 -59 -250 -59 -26 0
-47 8 -66 24 -25 22 -28 31 -30 93 -1 37 -2 74 -2 81 -1 6 -10 12 -20 12 -29
0 -47 24 -55 70 -3 23 -20 72 -37 108 -25 53 -33 87 -38 163 -9 120 -26 153
-100 189 -29 15 -58 35 -63 44 -15 27 0 141 20 159 21 19 211 52 246 43 29 -7
56 -52 56 -91 0 -40 -25 -90 -69 -138 -23 -24 -41 -47 -41 -51 0 -19 136 -116
162 -116 47 0 63 -96 28 -171 -23 -53 -25 -79 -5 -79 13 0 184 67 194 76 2 2
-11 20 -29 40 -38 44 -62 97 -54 118 3 9 21 18 40 22 45 8 95 67 120 140 18
53 18 56 1 68 -10 8 -35 11 -65 8 -41 -4 -52 0 -80 23 -36 30 -41 69 -20 151
12 43 11 47 -10 64 -12 10 -48 24 -80 30 -71 15 -104 32 -131 66 -55 71 -4
146 128 185 l43 13 -62 17 c-88 24 -95 34 -94 127 1 101 18 158 59 199 25 25
41 33 70 33 32 0 45 -8 97 -60 32 -33 65 -60 73 -60 20 0 20 59 0 124 -28 93
-14 134 43 121 39 -8 72 -40 72 -70 0 -14 2 -25 5 -25 3 0 29 15 58 34 65 43
96 51 141 36 39 -13 86 -62 86 -89 0 -32 -60 -138 -102 -181 l-40 -43 -68 5
c-50 4 -81 13 -114 32 -24 14 -47 26 -50 26 -13 0 -5 -27 13 -42 16 -13 19
-25 14 -55 -3 -21 -12 -47 -19 -58 -8 -11 -26 -37 -41 -58 -34 -50 -43 -138
-19 -186 21 -40 59 -59 81 -41 22 19 18 42 -15 88 -54 74 -30 122 60 122 65 0
82 -16 87 -81 5 -70 12 -99 21 -99 4 0 31 18 61 40 57 43 108 53 131 25 7 -9
15 -37 17 -63 5 -58 -24 -112 -60 -112 -13 0 -32 -6 -42 -14 -19 -14 -19 -15
8 -40 37 -34 38 -111 2 -182 -13 -26 -21 -52 -17 -56 4 -3 32 -13 62 -20 52
-13 55 -16 58 -47 7 -71 0 -78 -82 -83 -82 -5 -163 -42 -199 -91 -21 -27 -38
-167 -21 -167 5 0 23 39 39 88 33 94 45 105 120 117 34 6 47 2 89 -26 l49 -33
80 29 c69 25 84 27 112 16 62 -22 190 25 290 108 78 65 112 52 139 -51 18 -68
30 -94 64 -130 26 -28 65 -37 77 -18 12 20 -5 46 -55 83 -27 21 -50 41 -50 46
0 5 16 28 35 51 19 23 35 48 35 55 0 15 22 25 56 25 41 0 94 28 160 84 58 49
66 53 128 59 36 3 75 11 87 17 30 17 21 52 -19 72 -79 39 -96 85 -66 174 21
62 12 81 -20 42 -27 -35 -35 -35 -81 2 -22 18 -50 30 -66 30 -20 0 -29 5 -29
16 0 9 -9 27 -20 41 -24 30 -25 54 -5 92 24 47 79 55 145 21 74 -38 114 -18
75 37 -20 28 -73 43 -155 43 -84 0 -107 13 -155 85 l-40 60 -6 -43 c-8 -59
-35 -84 -99 -90 -74 -7 -63 -29 35 -69 86 -36 106 -55 125 -117 8 -25 31 -58
66 -91 31 -30 54 -61 54 -73 0 -11 16 -39 35 -62 19 -23 35 -50 35 -59 0 -31
-60 -139 -91 -166 -47 -39 -92 -34 -140 14 -43 42 -47 66 -23 113 9 18 25 61
35 96 l18 63 -122 -6 c-135 -8 -155 -3 -211 45 l-36 32 62 117 c33 65 58 123
54 130 -4 6 -19 11 -33 11 -15 0 -48 14 -74 31 -27 17 -53 28 -58 24 -7 -4 -8
5 -4 25 5 28 1 36 -41 74 -32 30 -46 51 -46 69 0 35 -23 46 -78 35 -25 -4 -50
-4 -54 0 -12 12 8 129 27 158 16 25 53 47 97 58 40 9 68 -22 68 -74 0 -42 31
-120 56 -141 12 -10 19 -8 37 10 15 13 36 21 60 21 29 0 37 4 37 18 0 45 -64
92 -99 72 -17 -8 -18 -2 -17 98 l1 107 -25 -1 c-14 -1 -51 -12 -82 -24 -73
-29 -104 -22 -124 26 -15 35 -12 89 7 125 5 9 47 47 94 84 47 37 85 74 85 82
0 8 -9 26 -20 40 -14 18 -20 41 -20 78 0 68 24 101 81 110 68 12 71 4 78 -207
7 -186 11 -209 52 -254 11 -11 35 -59 54 -105 20 -46 46 -95 60 -109 l25 -25
63 22 c93 32 112 34 163 22 38 -10 48 -9 60 3 13 13 12 18 -6 40 -11 14 -24
48 -29 74 -15 76 -22 206 -13 239 16 59 123 86 169 43 31 -29 29 -66 -7 -119
-39 -58 -39 -79 0 -79 75 0 117 56 107 143 -4 27 -13 60 -22 73 -20 31 -19 50
5 90 l21 33 -36 32 c-33 31 -44 62 -27 84 4 6 24 23 45 38 29 22 37 35 37 59
0 24 -3 29 -16 24 -48 -18 -105 73 -112 179 -4 69 -3 71 37 132 79 118 145
153 176 93z m-995 -9 c0 -26 -17 -36 -35 -21 -18 15 -8 40 16 40 12 0 19 -7
19 -19z m2000 -32 c0 -10 -4 -19 -9 -19 -14 0 -33 28 -27 39 10 16 36 1 36
-20z m-7030 6 c0 -16 -27 -32 -37 -22 -3 4 -3 13 0 22 8 20 37 20 37 0z m3431
-22 c35 -21 34 -42 -3 -62 -35 -20 -58 -2 -58 45 0 39 16 44 61 17z m-3371
-45 c24 -40 26 -95 3 -120 -20 -22 -35 -23 -72 -3 -44 22 -46 43 -6 59 29 13
36 21 41 55 4 23 8 41 10 41 3 0 13 -15 24 -32z m5650 2 c0 -5 -9 -10 -21 -10
-11 0 -17 5 -14 10 3 6 13 10 21 10 8 0 14 -4 14 -10z m-2370 -15 c0 -8 -4
-15 -9 -15 -13 0 -22 16 -14 24 11 11 23 6 23 -9z m-2243 -21 c56 -10 71 -20
94 -65 21 -42 65 -69 111 -69 48 0 95 -20 106 -46 17 -37 15 -44 -15 -44 -16
0 -61 -9 -102 -20 -89 -24 -149 -25 -196 -6 l-35 15 0 69 c0 57 -4 74 -25 102
-14 19 -25 39 -25 45 0 17 23 36 37 31 6 -3 29 -8 50 -12z m4439 4 c4 -6 10
-46 14 -89 4 -43 13 -85 20 -94 8 -9 29 -15 57 -15 97 0 155 -55 115 -109 -24
-33 -114 -70 -170 -71 -47 0 -49 -2 -76 -100 -18 -63 -49 -118 -72 -127 -17
-6 -52 24 -116 100 l-41 48 60 62 c60 61 83 94 83 118 0 13 -24 9 -85 -15 -22
-8 -68 -15 -103 -16 -71 0 -72 1 -31 81 27 54 46 69 88 69 26 0 44 7 57 21 18
20 18 20 29 -23 17 -71 74 -59 75 16 1 36 21 95 44 131 18 27 40 32 52 13z
m-4205 -11 c9 -7 21 -22 28 -35 11 -20 9 -23 -14 -32 -39 -15 -75 3 -75 38 0
16 3 32 7 35 10 11 36 8 54 -6z m3746 -36 c20 -42 -14 -80 -45 -49 -13 13 -16
60 -5 72 13 13 37 1 50 -23z m-4777 -27 c40 -46 36 -70 -20 -111 -104 -77
-102 -76 -95 -107 5 -16 27 -49 51 -74 l43 -45 66 6 c66 6 113 -3 127 -26 4
-7 5 -28 2 -47 -11 -69 76 -150 161 -150 23 0 77 15 125 35 94 38 150 44 207
20 32 -14 35 -18 29 -46 -7 -34 -36 -100 -62 -140 -26 -40 -13 -55 55 -67 61
-11 119 -34 178 -72 17 -12 34 -17 37 -12 3 5 -8 35 -23 67 -31 62 -30 70 6
124 35 51 30 69 -24 92 -54 23 -207 172 -238 232 -18 34 -19 40 -5 65 31 54
85 37 119 -38 17 -38 30 -51 62 -64 41 -16 73 -58 84 -107 10 -44 34 -58 105
-61 62 -3 65 -4 68 -30 2 -16 -11 -54 -34 -97 -30 -57 -35 -74 -25 -84 14 -13
30 3 74 73 34 53 65 52 115 -6 65 -73 65 -120 3 -187 -47 -51 -71 -58 -120
-36 -69 31 -81 24 -95 -52 -12 -65 -23 -68 -186 -39 -72 13 -163 6 -179 -14
-13 -16 11 -39 91 -86 79 -47 89 -89 20 -90 -38 0 -61 -18 -98 -75 -41 -64
-58 -75 -119 -75 -38 0 -52 5 -76 29 -16 16 -29 40 -29 53 1 36 24 91 54 130
32 42 44 101 26 123 -33 39 -88 -8 -75 -65 6 -25 4 -30 -13 -30 -33 0 -72 38
-72 71 0 41 -49 64 -95 45 -21 -9 -37 -10 -52 -3 -29 13 -61 80 -69 142 -8 69
-23 115 -37 115 -7 0 -28 -5 -47 -10 -61 -18 -111 -15 -126 5 -23 31 -16 54
33 106 38 41 45 54 36 67 -14 23 -49 27 -78 8 -29 -19 -61 -77 -71 -130 -9
-53 -35 -76 -84 -76 -88 0 -114 37 -76 110 13 25 38 72 55 104 28 53 41 116
24 116 -4 0 -28 -22 -53 -50 -51 -55 -82 -63 -121 -31 -19 16 -24 30 -27 91
-3 45 0 76 7 83 17 17 13 55 -13 147 -14 47 -24 86 -22 87 2 2 43 -6 92 -18
49 -12 113 -22 142 -22 52 -1 56 1 95 44 23 25 55 62 70 82 15 20 36 37 46 37
11 0 33 -16 51 -36z m1148 24 c14 -14 16 -42 2 -33 -14 9 -32 45 -22 45 4 0
13 -5 20 -12z m2488 -25 c-11 -11 -19 6 -11 24 8 17 8 17 12 0 3 -10 2 -21 -1
-24z m971 -43 c53 -23 83 -70 83 -127 0 -42 -1 -43 -60 -73 -33 -17 -60 -32
-60 -35 0 -2 14 -12 31 -20 81 -42 77 -200 -8 -311 -21 -27 -51 -76 -68 -108
-23 -47 -39 -65 -73 -82 -23 -12 -56 -34 -73 -48 -34 -29 -58 -32 -124 -15
-62 16 -67 25 -50 89 8 29 12 57 9 62 -3 4 6 8 20 8 32 0 66 32 66 63 0 47 12
50 84 25 61 -21 68 -22 94 -8 36 20 65 82 70 153 4 49 1 63 -22 97 -32 49 -46
116 -46 224 0 115 4 126 49 126 20 0 55 -9 78 -20z m-416 -155 c26 -58 49
-166 49 -230 0 -64 -26 -117 -64 -130 -26 -9 -32 -6 -67 34 -47 52 -49 75 -14
167 31 81 31 92 3 121 l-22 23 29 30 c41 43 62 39 86 -15z m-2816 7 c22 -6 30
-15 32 -34 1 -15 13 -44 28 -66 19 -29 25 -50 23 -78 l-3 -39 55 0 c30 0 64 3
75 7 17 5 24 -3 47 -49 25 -50 26 -57 14 -81 -41 -79 -136 -132 -207 -117 -78
17 -161 85 -223 184 -20 32 -32 41 -49 39 -14 -2 -22 2 -22 12 0 9 9 15 25 15
62 0 63 39 4 136 -53 86 -47 94 74 85 53 -3 110 -10 127 -14z m4662 -22 c23
-10 46 -27 52 -38 23 -43 7 -122 -24 -122 -8 0 -30 23 -47 50 -18 28 -43 53
-56 56 -31 8 -46 38 -32 64 12 23 35 21 107 -10z m-4959 -22 c47 -51 49 -116
6 -163 -29 -31 -60 -33 -67 -2 -11 43 -19 165 -13 176 12 18 51 12 74 -11z
m2175 -89 c38 -41 34 -72 -19 -161 -27 -47 -44 -86 -42 -100 3 -20 10 -24 64
-29 33 -3 66 -9 72 -13 7 -4 12 -29 12 -55 0 -57 -23 -92 -72 -110 -74 -28
-98 -41 -98 -56 0 -8 25 -29 56 -46 63 -36 87 -66 82 -105 -4 -37 -45 -47
-164 -42 -99 4 -144 22 -144 58 0 11 10 40 22 65 17 35 19 48 10 57 -9 9 -24
6 -66 -15 -57 -29 -95 -34 -129 -15 -59 31 -64 96 -12 158 62 74 51 83 -104
90 -93 5 -115 9 -126 23 -37 50 51 167 126 167 40 0 118 -55 135 -95 10 -24
21 -35 35 -35 33 0 55 -17 88 -69 51 -79 81 -80 81 -2 0 34 -6 56 -22 76 -21
27 -21 28 -3 41 10 8 29 11 41 8 39 -10 64 44 64 138 0 68 3 79 22 92 28 20
56 12 91 -25z m267 -67 c36 -36 48 -93 27 -125 -8 -12 -35 -45 -60 -73 l-46
-51 49 -23 c61 -29 110 -75 110 -105 0 -43 -66 -75 -154 -75 -68 0 -78 11 -60
64 9 22 18 70 21 106 5 62 4 67 -26 104 -43 53 -43 102 1 152 54 61 95 69 138
26z m900 6 c65 -34 79 -99 30 -148 -21 -21 -74 -27 -99 -11 -17 11 -33 105
-25 149 8 39 30 42 94 10z m1037 -10 c42 -47 33 -81 -25 -94 -63 -13 -113 -37
-137 -66 l-26 -31 7 -133 c6 -112 4 -137 -9 -157 -20 -31 -75 -57 -120 -57
-32 0 -37 4 -47 36 -25 76 11 224 70 288 21 23 56 71 78 106 39 65 62 84 114
95 15 3 33 12 40 20 18 20 31 18 55 -7z m-1708 -17 c6 -10 13 -38 17 -62 8
-55 28 -95 53 -109 16 -8 26 -5 50 16 17 14 35 23 40 20 10 -7 36 -134 28
-142 -3 -3 -8 4 -12 15 -8 26 -20 26 -52 1 -14 -11 -36 -20 -49 -20 -28 0 -54
-25 -54 -51 0 -13 -7 -19 -24 -19 -51 0 -116 85 -116 152 0 71 28 182 50 200
29 23 57 23 69 -1z m-1808 -71 c22 -13 25 -52 5 -70 -18 -14 -63 4 -80 33 -9
14 -7 21 8 33 23 17 40 18 67 4z m541 -38 c6 -21 20 -40 38 -50 32 -18 37 -31
18 -50 -19 -19 -41 -14 -85 18 -22 16 -58 33 -79 38 -23 5 -39 14 -39 22 0 25
66 61 104 58 30 -3 36 -8 43 -36z m-302 -3 c19 -12 56 -39 81 -60 51 -43 69
-48 70 -21 0 15 1 15 12 -3 7 -10 34 -43 61 -72 l50 -54 -34 -98 -34 -99 19
-42 c12 -26 34 -53 58 -69 36 -23 50 -26 131 -26 l91 0 13 -39 c48 -149 -153
-186 -301 -56 -20 18 -37 40 -37 50 0 36 -26 45 -84 27 -65 -21 -99 -21 -135
-2 -60 30 -63 98 -11 202 16 32 30 64 30 71 0 8 -17 34 -39 58 -21 24 -44 64
-51 89 -14 50 -9 127 10 150 18 21 59 19 100 -6z m5162 4 c25 -22 23 -59 -4
-77 -58 -41 -88 -2 -62 82 5 17 44 15 66 -5z m-2287 -33 c-3 -5 -13 -10 -21
-10 -8 0 -14 5 -14 10 0 6 9 10 21 10 11 0 17 -4 14 -10z m-25 -124 c-14 -14
-24 0 -16 21 6 15 8 15 16 3 6 -9 5 -19 0 -24z m-3205 -11 c18 -18 25 -35 25
-65 0 -35 -7 -48 -55 -100 -30 -33 -55 -63 -55 -67 1 -19 22 -39 62 -58 23
-11 44 -28 46 -38 2 -10 -9 -36 -24 -58 -26 -37 -28 -49 -31 -152 -6 -175 12
-191 172 -162 l98 17 -45 28 c-57 35 -94 80 -109 130 -11 35 -10 42 6 60 21
24 55 26 95 5 22 -11 32 -28 45 -70 8 -30 20 -55 25 -55 5 0 25 -15 44 -34 50
-47 49 -91 -5 -208 -25 -55 -38 -95 -34 -107 5 -17 95 -61 124 -61 4 0 16 -9
26 -20 10 -11 29 -20 43 -20 47 0 152 105 152 153 0 10 -31 51 -70 92 -74 78
-94 120 -67 140 25 18 231 39 256 25 55 -29 69 -137 25 -189 -14 -17 -31 -31
-38 -31 -7 0 -20 -6 -30 -13 -17 -13 -17 -15 3 -53 12 -21 26 -57 32 -79 30
-113 95 -94 107 32 l7 68 33 3 c26 3 40 -4 68 -32 37 -37 38 -41 19 -116 -4
-17 1 -36 17 -60 l24 -35 88 0 c84 0 89 -1 112 -28 21 -25 24 -37 24 -118 0
-49 3 -89 7 -89 13 0 63 54 63 67 0 8 -8 26 -17 40 l-17 26 42 -6 c23 -4 42
-4 42 0 0 3 -13 27 -29 52 -30 46 -49 101 -36 101 4 0 28 -22 54 -50 53 -56
83 -63 146 -33 27 13 38 14 47 5 20 -20 22 -119 4 -186 -10 -35 -16 -78 -14
-97 l3 -34 73 0 c70 0 75 -1 103 -33 24 -26 29 -41 29 -82 0 -41 -5 -55 -31
-85 -17 -19 -44 -43 -60 -52 -16 -10 -29 -20 -29 -23 0 -4 26 -14 57 -24 166
-53 145 -164 -48 -262 -38 -18 -90 -54 -118 -78 -78 -70 -151 -73 -216 -11
-51 48 -45 71 30 113 73 41 79 46 72 66 -5 13 -12 13 -51 -5 -55 -24 -170 -37
-180 -20 -12 20 -25 12 -53 -31 -34 -55 -50 -67 -91 -68 -27 0 -42 9 -81 50
l-48 50 -17 -44 c-16 -43 -17 -43 -74 -49 -31 -3 -80 -9 -109 -13 -51 -7 -52
-6 -72 27 -79 130 76 378 172 275 20 -21 126 -66 156 -66 8 0 6 10 -7 28 -45
65 -55 156 -22 209 20 33 54 55 102 67 39 9 60 33 49 55 -5 9 -46 56 -90 104
-44 47 -87 102 -95 121 -21 50 -64 69 -168 74 -113 6 -158 -2 -158 -28 0 -17
7 -20 46 -20 42 0 50 -4 119 -70 72 -68 76 -70 113 -64 36 6 40 4 52 -25 16
-40 8 -128 -17 -179 -14 -28 -25 -38 -47 -40 -33 -4 -61 19 -102 84 -50 79
-74 70 -74 -26 0 -68 0 -68 -37 -91 -21 -13 -44 -27 -50 -32 -9 -5 -37 15 -85
60 -40 38 -87 79 -104 91 -54 38 -54 145 0 201 48 50 26 124 -38 137 -49 9
-80 -10 -73 -45 7 -31 0 -44 -30 -60 -82 -43 -161 29 -150 136 4 39 2 53 -6
50 -28 -9 -38 -51 -32 -134 6 -76 5 -82 -17 -97 -33 -24 -61 -20 -93 14 -22
23 -29 41 -33 84 -4 50 -2 57 24 81 28 26 28 27 9 41 -11 9 -46 29 -78 46 -62
34 -107 78 -107 108 0 10 -18 42 -40 71 -22 30 -40 61 -40 69 0 54 -67 35 -99
-29 -11 -21 -23 -61 -27 -90 l-7 -52 -19 33 c-29 49 -79 98 -100 98 -22 0 -22
-4 -2 -35 14 -22 14 -24 -8 -36 -13 -7 -57 -14 -99 -17 -73 -4 -76 -3 -97 23
-13 16 -22 42 -22 61 0 67 -70 88 -118 36 -39 -41 -64 -52 -120 -52 -55 0 -62
8 -62 63 0 54 -18 99 -50 126 -36 30 -34 49 9 74 45 26 63 21 153 -39 116 -78
115 -78 189 -42 48 22 73 28 99 24 19 -3 65 -10 102 -15 81 -13 110 -4 128 39
12 28 11 33 -3 41 -8 5 -18 22 -22 39 -11 49 -69 49 -95 0 -16 -31 -34 -24
-69 25 -52 73 -91 79 -91 13 0 -38 -24 -48 -119 -48 -60 0 -84 4 -96 16 -63
64 153 268 324 308 45 11 71 23 85 41 25 29 102 48 156 36 31 -6 35 -11 34
-37 0 -16 -7 -51 -15 -77 -13 -45 -12 -50 5 -62 14 -10 24 -11 42 -3 44 20 58
55 59 150 0 78 2 89 25 114 53 57 179 122 238 124 13 0 34 -11 47 -25z m781
-42 c16 -6 42 -14 57 -17 18 -4 31 -16 38 -34 12 -31 43 -201 37 -207 -2 -2
-51 -9 -110 -16 -95 -11 -109 -11 -132 4 -48 32 -48 139 0 208 20 29 27 51 26
80 l-2 41 29 -24 c15 -14 41 -29 57 -35z m1498 44 c25 -19 17 -52 -13 -52 -28
0 -47 25 -38 49 8 19 27 21 51 3z m3372 -12 c41 -22 60 -25 146 -25 96 0 99
-1 110 -25 9 -21 8 -36 -6 -76 -26 -71 -6 -187 35 -205 19 -9 19 -10 -3 -54
-21 -40 -29 -47 -82 -64 -51 -17 -62 -25 -91 -70 -18 -29 -39 -57 -46 -63 -55
-43 -99 -12 -99 70 0 29 -6 62 -14 72 -13 18 -14 18 -25 -3 -6 -11 -11 -35
-11 -52 0 -67 -36 -91 -67 -44 -14 23 -15 32 -4 71 15 59 44 99 76 107 15 4
27 16 31 31 7 29 -11 81 -32 89 -21 8 -17 35 9 70 13 17 26 36 30 42 3 6 -10
32 -29 59 -44 62 -46 95 -5 95 17 0 51 -11 77 -25z m388 -61 c18 -46 -1 -84
-41 -84 -26 0 -29 14 -12 57 16 42 42 55 53 27z m-7872 -74 c48 -14 54 -27 60
-125 6 -97 4 -105 -31 -105 -31 0 -54 21 -71 64 l-10 28 -55 -51 c-79 -75
-122 -68 -132 23 -9 72 24 147 72 167 29 11 124 11 167 -1z m4158 -34 c0 -8
-4 -18 -10 -21 -5 -3 -10 3 -10 14 0 12 5 21 10 21 6 0 10 -6 10 -14z m350 -7
c0 -11 -4 -17 -10 -14 -5 3 -10 13 -10 21 0 8 5 14 10 14 6 0 10 -9 10 -21z
m-813 -44 c17 -12 22 -28 26 -82 3 -38 8 -82 12 -98 5 -25 0 -39 -32 -82 l-38
-52 -7 60 c-5 47 -13 66 -33 85 -54 50 -82 153 -47 173 26 15 95 13 119 -4z
m-4063 -27 c47 -67 -24 -193 -97 -174 -50 12 -42 84 19 163 29 38 56 42 78 11z
m4216 -13 c15 -18 9 -50 -9 -50 -19 0 -36 29 -28 49 8 20 21 21 37 1z m2250
-21 c0 -16 -26 -19 -35 -4 -4 6 -4 18 -1 27 5 12 9 13 21 3 8 -7 15 -19 15
-26z m-2320 -20 c0 -8 -4 -14 -10 -14 -5 0 -10 9 -10 21 0 11 5 17 10 14 6 -3
10 -13 10 -21z m626 -11 c-11 -11 -19 6 -11 24 8 17 8 17 12 0 3 -10 2 -21 -1
-24z m-1482 7 c28 -10 56 -57 56 -94 0 -31 -60 -96 -88 -96 -32 0 -142 51
-142 65 0 8 9 34 19 59 29 66 89 92 155 66z m3902 -17 l39 -18 -37 -3 c-38 -3
-78 11 -78 28 0 15 33 12 76 -7z m-3357 -12 c37 -37 41 -155 7 -189 -31 -31
-146 26 -146 73 0 14 7 25 20 28 11 3 27 22 36 44 29 68 48 79 83 44z m513 -3
c3 -7 3 -19 1 -26 -6 -16 -33 4 -33 24 0 17 26 18 32 2z m-3779 -101 c21 -45
35 -61 62 -73 40 -16 47 -47 14 -64 -49 -27 -91 13 -129 125 -11 32 -17 62
-14 67 14 22 41 -1 67 -55z m4307 25 c0 -27 -15 -52 -32 -52 -9 0 -11 41 -2
64 10 27 34 19 34 -12z m-4743 -30 c26 -21 54 -46 62 -55 19 -24 64 -21 121 8
66 33 86 32 111 -7 18 -28 20 -44 15 -110 -4 -59 -2 -79 9 -88 19 -16 59 -6
107 26 21 13 49 24 64 24 38 0 84 -50 84 -92 0 -38 -30 -92 -59 -108 -22 -11
-51 -59 -51 -84 0 -30 29 -46 74 -40 38 6 45 3 64 -20 25 -32 38 -124 25 -169
-7 -27 -14 -32 -38 -32 -49 -1 -45 -35 9 -82 61 -53 60 -76 -2 -145 -57 -62
-66 -82 -46 -99 11 -9 23 -9 54 0 88 26 128 95 116 199 -16 138 68 244 180
227 48 -7 104 -51 104 -82 0 -11 -12 -30 -26 -44 -33 -30 -63 -95 -57 -120 7
-25 43 -44 115 -59 83 -17 115 -72 49 -86 -14 -3 -36 -7 -48 -10 -13 -2 -45
-24 -73 -49 -28 -25 -53 -45 -57 -45 -3 0 -21 9 -40 21 -18 12 -41 18 -49 15
-15 -6 -15 -8 0 -31 24 -37 20 -61 -18 -99 -58 -58 -129 -57 -142 2 -10 49
-14 53 -36 50 -14 -2 -25 -13 -30 -33 -15 -50 -51 -125 -60 -125 -4 0 -8 11
-8 24 0 56 -81 71 -180 33 -102 -38 -132 -41 -163 -16 -20 15 -27 29 -27 56 0
30 8 43 45 76 33 30 45 48 45 69 0 15 -3 28 -7 28 -5 0 -43 -14 -86 -31 -116
-45 -131 -35 -146 100 -11 102 -21 117 -65 94 -17 -9 -62 -18 -101 -21 -60 -4
-74 -1 -95 16 -23 19 -25 27 -25 99 0 58 5 87 18 106 16 25 16 29 -3 76 -27
70 -14 101 43 101 45 0 74 -38 82 -106 9 -72 34 -131 70 -164 24 -23 35 -25
106 -24 69 1 79 -1 84 -18 8 -23 -11 -82 -31 -98 -22 -19 -17 -30 14 -30 33 0
196 36 237 52 73 28 125 88 125 144 0 29 -56 154 -70 154 -16 0 -32 -70 -25
-108 l7 -37 -27 25 c-15 14 -36 45 -47 68 -22 49 -68 75 -121 70 -26 -2 -38
-13 -64 -52 -51 -78 -66 -90 -94 -76 -32 16 -69 51 -69 64 0 5 18 38 41 72 40
62 61 135 42 147 -5 3 -38 -3 -73 -14 -71 -22 -105 -17 -147 23 -25 24 -29 51
-12 95 31 82 90 94 191 38 123 -69 204 -105 254 -114 68 -13 94 -6 94 27 0 56
-59 79 -121 46 -39 -20 -65 -11 -93 35 -45 70 -134 133 -213 149 -34 7 -38 12
-41 41 -4 39 14 129 30 148 18 22 44 15 95 -25z m3514 -18 c9 -8 19 -33 22
-56 3 -23 15 -54 27 -70 26 -36 23 -58 -12 -77 -25 -14 -29 -14 -57 7 -17 12
-33 22 -35 22 -3 0 -31 -22 -61 -50 -43 -39 -63 -50 -89 -50 -71 0 -118 80
-81 136 9 15 22 47 29 73 9 37 15 45 31 43 11 -1 52 9 90 23 72 25 107 25 136
-1z m3381 11 c0 -5 -5 -11 -11 -13 -6 -2 -11 4 -11 13 0 9 5 15 11 13 6 -2 11
-8 11 -13z m-4422 -20 c0 -15 -26 -32 -36 -23 -2 3 -2 13 2 22 8 20 34 21 34
1z m4777 -31 c99 -63 103 -68 96 -134 -6 -62 7 -85 29 -50 9 14 23 20 48 20
61 0 270 -38 293 -53 12 -8 30 -37 40 -66 10 -28 27 -56 38 -62 28 -15 66 -4
74 22 4 12 14 19 23 17 25 -5 42 -47 42 -109 0 -64 13 -77 50 -52 28 20 24 61
-15 163 -29 76 -65 114 -102 107 -27 -5 -29 8 -9 73 13 41 16 45 45 44 17 -1
49 -16 73 -33 23 -17 50 -31 60 -31 34 0 41 -47 46 -301 5 -259 1 -289 -39
-289 -30 0 -89 -27 -95 -44 -3 -9 4 -27 15 -42 12 -15 21 -33 21 -40 0 -19
-56 -45 -83 -39 -15 4 -32 -1 -49 -14 -14 -12 -36 -21 -47 -21 -27 0 -148 119
-157 154 -7 31 16 106 38 120 21 13 43 -5 69 -56 22 -42 52 -50 69 -19 5 11
10 51 10 90 0 80 -9 91 -80 91 -22 0 -56 7 -76 15 -76 31 -254 31 -254 0 0
-21 -24 -19 -43 3 -23 25 -45 84 -39 102 2 8 21 38 42 65 69 92 64 108 -44
125 -37 6 -97 24 -133 40 -74 34 -98 36 -167 15 -64 -19 -63 -20 -91 11 -34
37 -33 85 3 124 21 24 49 38 122 59 52 16 101 29 107 30 7 0 39 -15 70 -35z
m-4735 -36 c-9 -9 -12 -7 -12 12 0 19 3 21 12 12 9 -9 9 -15 0 -24z m1339 -65
c19 -20 79 -168 79 -196 0 -10 -7 -28 -16 -42 -9 -14 -19 -63 -24 -120 -5 -52
-14 -104 -20 -115 -15 -27 -72 -26 -130 3 l-45 22 -5 75 c-3 51 -13 91 -29
123 -29 60 -32 156 -7 206 33 64 152 91 197 44z m950 -5 c7 -13 9 -43 6 -76
-6 -53 -5 -55 37 -101 72 -77 85 -126 44 -155 -18 -13 -20 -18 -10 -28 10 -10
27 -7 83 11 46 16 73 21 80 14 5 -5 18 -32 28 -59 16 -45 23 -52 84 -82 47
-22 67 -38 67 -51 0 -20 -36 -73 -97 -140 l-40 -45 -27 70 c-65 169 -120 214
-215 174 -43 -17 -39 -27 14 -32 59 -7 91 -30 117 -83 19 -39 20 -47 8 -75
-18 -43 -70 -66 -179 -79 -111 -14 -115 -11 -109 94 3 60 10 91 25 116 12 19
24 50 28 70 11 59 -24 269 -45 269 -5 0 -20 -11 -34 -25 -37 -36 -75 -43 -97
-16 -25 30 -46 128 -32 150 21 34 166 100 220 101 23 0 36 -6 44 -22z m-1675
-43 c12 -8 24 -27 27 -43 4 -18 14 -31 27 -35 14 -3 18 -10 14 -22 -4 -9 2
-28 14 -44 29 -39 42 -95 42 -179 0 -56 -4 -74 -15 -78 -26 -10 -61 22 -88 80
-20 43 -35 59 -61 70 -38 16 -112 87 -121 117 -4 12 2 27 15 41 12 13 33 42
47 66 27 46 60 55 99 27z m-2372 -86 c48 -38 69 -94 74 -196 4 -77 2 -94 -11
-99 -25 -9 -55 13 -92 71 -19 30 -41 55 -49 55 -40 0 -31 123 12 173 20 22 33
22 66 -4z m1805 -75 c25 -31 27 -64 6 -103 -20 -39 -43 -46 -75 -23 -34 25
-38 77 -10 131 18 35 23 40 40 31 10 -5 28 -22 39 -36z m-1323 -185 c35 -34
66 -70 69 -80 4 -11 15 -19 25 -19 18 0 18 -2 3 -45 -8 -25 -13 -55 -10 -65 6
-24 2 -24 -53 -5 -23 8 -58 15 -76 15 -35 0 -77 30 -139 99 -50 55 -58 77 -38
97 22 21 112 64 136 64 10 0 47 -28 83 -61z m2114 16 c0 -8 -4 -15 -10 -15 -5
0 -10 7 -10 15 0 8 5 15 10 15 6 0 10 -7 10 -15z m-1645 -67 c26 -20 27 -25
23 -87 -5 -69 -28 -128 -54 -138 -50 -19 -111 74 -99 152 7 49 46 95 80 95 12
0 35 -10 50 -22z m-215 -18 c11 -11 20 -26 20 -33 0 -15 -20 -37 -33 -37 -8 0
-37 61 -37 80 0 17 29 11 50 -10z m6080 -80 c0 -5 -11 -10 -25 -10 -14 0 -25
5 -25 10 0 6 11 10 25 10 14 0 25 -4 25 -10z m-3510 -15 c0 -8 -4 -15 -10 -15
-5 0 -10 7 -10 15 0 8 5 15 10 15 6 0 10 -7 10 -15z m-2660 -135 c0 -43 -13
-65 -33 -57 -23 9 -30 62 -16 120 l12 52 18 -40 c10 -22 19 -56 19 -75z m3950
85 c0 -8 -4 -15 -10 -15 -5 0 -10 7 -10 15 0 8 5 15 10 15 6 0 10 -7 10 -15z
m936 -100 c4 -15 1 -32 -7 -41 -19 -23 -44 5 -35 40 8 33 34 34 42 1z m-4501
-25 c0 -22 -29 -18 -33 3 -3 14 1 18 15 15 10 -2 18 -10 18 -18z m528 -21 c-8
-29 -13 -23 -13 14 0 22 3 28 9 18 5 -7 6 -22 4 -32z m4082 -79 c8 0 17 11 21
25 3 14 10 25 16 25 17 0 55 -50 72 -95 10 -25 21 -45 26 -45 5 0 21 11 37 24
68 56 143 73 163 37 15 -29 12 -61 -10 -126 -11 -32 -20 -64 -20 -72 0 -27 36
-11 86 38 l52 51 25 -34 c57 -74 60 -95 33 -222 -29 -135 -36 -150 -79 -171
-19 -9 -60 -38 -93 -66 -68 -57 -101 -70 -119 -45 -16 21 -29 134 -20 169 7
25 11 27 60 27 68 0 100 23 89 63 -10 44 -61 57 -136 37 -27 -8 -46 -23 -68
-55 -17 -24 -71 -76 -120 -116 -50 -39 -90 -78 -90 -85 0 -20 9 -17 59 16 49
34 76 37 109 14 56 -39 5 -132 -92 -169 -54 -21 -89 -14 -112 20 -16 25 -63
237 -64 288 0 28 3 31 53 41 38 9 36 41 -5 62 -41 21 -48 31 -48 71 0 24 7 37
31 54 45 32 59 74 59 181 0 51 3 111 7 132 l6 39 29 -56 c15 -32 35 -57 43
-57z m-4702 79 c12 -6 41 -32 64 -57 l42 -47 30 35 30 35 1 -45 c0 -57 13 -81
28 -54 10 17 12 17 29 2 17 -15 23 -14 87 5 63 19 69 19 78 4 5 -9 22 -24 39
-32 28 -15 41 -35 70 -114 l12 -33 60 5 c104 9 130 -15 140 -136 l6 -68 -107
6 c-154 9 -195 23 -273 93 -73 65 -113 82 -136 59 -13 -13 -13 -19 3 -48 9
-19 31 -52 49 -74 50 -62 52 -77 8 -115 -106 -93 -176 -76 -223 53 -29 80 -52
104 -117 123 -61 18 -98 10 -148 -30 l-30 -25 56 2 c93 3 135 -53 76 -102
-117 -97 -124 -121 -37 -121 86 0 162 -31 227 -94 30 -30 53 -61 53 -73 0 -27
23 -45 61 -47 25 -1 34 -8 45 -36 8 -19 25 -48 39 -65 55 -73 21 -125 -84
-125 -70 0 -87 -13 -130 -98 -46 -92 -63 -112 -96 -112 -24 0 -69 40 -113 99
-46 61 -103 26 -88 -53 13 -68 86 -196 152 -265 35 -37 68 -81 74 -97 19 -48
24 -236 10 -328 -14 -92 -13 -94 56 -191 30 -41 34 -55 28 -80 -4 -16 -8 -43
-9 -59 -1 -19 -11 -34 -28 -44 -16 -10 -32 -33 -39 -57 -9 -29 -19 -41 -35
-43 -54 -8 -103 -115 -103 -223 0 -62 23 -134 71 -226 16 -30 29 -62 29 -70 0
-8 -13 -32 -30 -53 -16 -21 -30 -42 -30 -48 0 -6 16 -30 37 -54 48 -57 97
-165 128 -280 42 -155 33 -186 -54 -202 -18 -3 -49 -19 -68 -36 -54 -48 -103
-34 -103 29 0 33 -47 80 -88 86 -107 17 -193 64 -211 117 -7 21 -15 28 -26 24
-19 -7 -19 -1 1 29 14 22 14 26 -2 50 -12 18 -19 61 -25 153 -11 178 -32 253
-60 225 -25 -25 -40 -343 -25 -498 6 -64 5 -84 -7 -99 -27 -36 -48 -2 -72 114
-24 111 -61 702 -47 740 9 23 9 23 35 -12 30 -39 77 -147 77 -177 0 -11 5 -23
11 -27 19 -11 48 29 64 91 20 79 19 144 -2 175 -24 34 -26 191 -2 215 14 14
18 14 42 -5 l27 -21 11 28 c6 15 15 100 19 188 12 214 20 284 32 291 16 10 57
-17 80 -54 18 -29 19 -37 7 -60 -9 -19 -15 -110 -20 -322 -5 -220 -13 -329
-28 -428 -36 -227 -27 -276 43 -232 l35 21 13 -20 c7 -12 18 -21 25 -21 23 0
27 53 14 190 -10 116 -10 136 3 145 12 9 12 18 3 52 -8 31 -7 62 3 126 13 83
11 187 -6 404 -6 74 -5 83 11 90 28 10 91 -66 111 -136 9 -31 19 -63 21 -71 8
-25 25 29 25 80 0 27 -11 71 -27 110 -15 36 -43 101 -61 145 -19 44 -34 98
-34 119 0 22 -7 47 -16 57 -8 9 -20 48 -26 86 -17 117 -17 116 -39 110 -65
-17 -138 188 -96 269 26 50 99 110 143 118 53 10 111 45 178 109 48 45 56 58
56 89 0 49 -15 84 -40 98 -27 15 -54 -7 -82 -67 -35 -74 -70 -60 -73 30 -2 29
-3 55 -4 58 0 4 -18 10 -38 14 -20 4 -63 20 -94 36 -72 38 -157 49 -193 25
-30 -19 -49 -78 -36 -112 13 -33 51 -39 119 -20 74 21 78 20 96 -8 30 -45 -24
-233 -77 -270 -33 -24 -134 -21 -175 4 -33 20 -38 30 -51 110 -10 61 -35 64
-96 11 -52 -45 -53 -45 -90 -31 -40 15 -66 66 -66 128 0 64 10 87 57 128 38
33 37 54 -2 54 -37 0 -75 53 -75 103 1 54 31 121 66 144 49 32 273 30 462 -3
24 -5 32 -3 32 9 0 33 -85 84 -179 108 -48 12 -116 69 -109 91 3 7 19 18 38
24 18 6 53 28 79 48 56 46 125 82 174 91 40 8 36 15 54 -89 4 -28 15 -54 25
-60 40 -25 78 61 78 179 0 29 5 66 11 82 l11 28 9 -23 9 -24 42 31 c44 33 75
38 111 20z m3507 -56 c0 -22 -20 -14 -30 13 -14 36 -13 39 10 19 11 -10 20
-24 20 -32z m2374 25 c7 -13 16 -53 19 -90 4 -37 15 -85 26 -107 17 -33 19
-45 9 -73 -31 -94 -142 -147 -237 -113 -24 8 -48 15 -54 15 -20 0 -1 -95 28
-138 19 -29 30 -60 34 -104 9 -87 12 -91 67 -67 52 24 96 19 118 -13 28 -40
-14 -102 -97 -145 -43 -21 -48 -27 -41 -46 14 -37 10 -152 -5 -170 -11 -14
-32 -17 -106 -17 -100 0 -147 11 -182 43 -38 34 -29 60 47 140 76 81 94 115
84 161 -11 51 -31 66 -86 64 -56 -3 -72 11 -56 51 10 28 46 71 59 71 5 0 24
-13 42 -30 43 -38 59 -38 55 -3 -2 18 -12 32 -29 40 -15 7 -33 20 -40 29 -17
21 -18 121 -1 151 7 13 46 38 90 58 42 20 93 43 112 53 l35 17 0 107 c0 58 2
108 5 111 36 32 85 34 104 5z m-7615 -188 c66 -76 108 -138 153 -223 74 -138
101 -171 156 -188 68 -20 75 -11 68 79 -4 42 -3 82 2 89 9 14 85 43 113 43 10
0 26 -11 34 -24 21 -32 12 -80 -32 -174 l-35 -74 50 -51 c80 -83 79 -104 -15
-192 -33 -32 -53 -59 -53 -73 0 -34 28 -39 56 -9 23 25 78 47 119 47 34 0 65
-12 59 -22 -3 -5 2 -18 12 -29 17 -19 17 -22 0 -67 -30 -76 -32 -102 -8 -102
11 0 33 11 49 24 64 53 101 56 121 11 9 -19 19 -25 43 -25 l31 0 -19 -32 c-30
-51 -72 -70 -171 -75 -161 -9 -316 41 -398 129 l-45 49 27 47 c15 26 33 56 41
67 7 11 13 32 13 47 0 15 5 38 11 52 18 40 4 71 -45 96 l-44 24 -31 -27 c-60
-50 -138 -46 -163 9 -9 20 -9 38 1 82 26 110 26 122 2 122 -12 0 -51 -7 -86
-16 -103 -26 -114 -10 -70 96 14 33 25 62 25 65 0 13 -28 2 -64 -25 -21 -16
-54 -34 -73 -41 -59 -19 -63 -9 -63 173 0 88 4 167 10 177 5 10 25 22 44 25
19 4 39 13 46 21 7 8 18 12 25 7 8 -4 54 -54 104 -112z m7398 69 c7 -6 13 -18
13 -25 0 -20 -68 -92 -103 -110 -26 -14 -31 -14 -49 3 -35 31 -38 48 -19 83
32 60 113 85 158 49z m-2317 -19 c0 -5 -7 -10 -15 -10 -8 0 -15 5 -15 10 0 6
7 10 15 10 8 0 15 -4 15 -10z m-2810 -46 c0 -16 -26 -19 -35 -4 -4 6 -4 18 -1
27 5 12 9 13 21 3 8 -7 15 -19 15 -26z m5756 -15 c4 -7 9 -44 11 -83 6 -100 9
-111 38 -124 33 -15 33 -52 0 -88 -14 -15 -25 -35 -25 -45 0 -23 34 -59 55
-59 26 0 48 -46 41 -85 -9 -48 -28 -63 -89 -70 -101 -13 -98 -41 6 -65 76 -18
87 -31 87 -105 0 -34 -5 -66 -12 -73 -32 -32 -119 0 -199 75 -54 50 -56 57
-34 99 8 16 15 45 15 64 1 73 17 114 61 151 49 41 49 69 0 69 -47 0 -75 18
-105 67 l-27 46 -27 -26 c-74 -71 -170 -55 -155 25 15 82 87 154 215 213 56
26 132 33 144 14z m-991 -39 c-5 -8 -11 -8 -17 -2 -6 6 -7 16 -3 22 5 8 11 8
17 2 6 -6 7 -16 3 -22z m145 0 c0 -5 -7 -10 -15 -10 -8 0 -15 5 -15 10 0 6 7
10 15 10 8 0 15 -4 15 -10z m8 -136 c28 -19 28 -53 0 -90 -39 -53 -123 -135
-152 -151 -28 -15 -31 -14 -48 7 -47 58 6 190 94 233 42 21 78 21 106 1z
m-6488 -103 c16 -30 12 -36 -10 -16 -21 19 -26 35 -10 35 5 0 14 -9 20 -19z
m5950 9 c0 -5 -6 -10 -14 -10 -8 0 -18 5 -21 10 -3 6 3 10 14 10 12 0 21 -4
21 -10z m918 -39 c2 -31 0 -42 -9 -39 -22 7 -32 34 -25 62 10 40 31 26 34 -23z
m-5399 -5 c41 -22 111 -102 111 -129 0 -12 -16 -47 -35 -77 -49 -76 -46 -114
12 -152 52 -35 64 -66 34 -87 -12 -8 -29 -30 -37 -49 -14 -34 -15 -34 -57 -28
-60 10 -85 30 -93 73 -4 21 -27 78 -50 128 -34 70 -44 101 -44 140 0 57 28
127 67 168 30 30 51 34 92 13z m351 -25 c77 -22 90 -28 90 -42 0 -24 45 -102
67 -117 17 -10 62 -18 140 -23 118 -8 143 -17 143 -51 0 -51 -62 -98 -128 -98
-36 0 -40 -3 -45 -29 -8 -36 -49 -48 -104 -31 -59 19 -93 57 -93 102 0 20 -9
57 -19 80 -11 24 -22 51 -25 61 -4 13 -16 17 -51 17 -94 0 -148 44 -125 101
23 54 46 58 150 30z m-1910 -41 c0 -16 -4 -30 -10 -30 -5 0 -10 14 -10 30 0
17 5 30 10 30 6 0 10 -13 10 -30z m7215 -62 c31 -105 13 -168 -47 -168 -70 0
-84 37 -49 131 22 56 47 89 67 89 7 0 20 -23 29 -52z m-8011 -54 c23 -9 26
-30 15 -91 -10 -56 -23 -83 -39 -83 -14 0 -30 88 -30 167 l0 78 20 -33 c11
-18 26 -35 34 -38z m7123 24 c56 -58 61 -110 16 -160 -23 -25 -47 -22 -85 11
-18 16 -48 37 -66 48 l-32 20 40 51 c59 73 80 78 127 30z m-6947 -43 c-14 -16
-50 -21 -50 -6 0 6 10 17 22 25 27 19 48 5 28 -19z m7180 -30 c17 -9 30 -20
30 -25 0 -6 -13 -29 -30 -52 -16 -22 -30 -49 -30 -58 0 -21 -61 -85 -101 -105
-26 -14 -30 -14 -35 0 -4 8 -2 21 4 28 6 7 14 37 17 67 8 70 32 137 53 150 25
14 59 12 92 -5z m-3143 -57 c20 -23 48 -152 37 -170 -8 -13 -41 -9 -58 7 -19
19 -39 19 -106 -1 -47 -14 -54 -14 -68 0 -13 13 -14 22 -4 54 32 105 146 168
199 110z m-257 -8 c0 -11 -4 -20 -10 -20 -5 0 -10 9 -10 20 0 11 5 20 10 20 6
0 10 -9 10 -20z m2996 -95 c16 -39 19 -118 5 -144 -14 -25 -89 -57 -102 -44
-17 17 -23 97 -10 136 29 87 81 113 107 52z m-6671 5 c61 -23 39 -59 -53 -86
-66 -19 -119 -6 -128 32 -15 60 85 90 181 54z m3655 -4 c0 -18 -26 -40 -34
-27 -9 14 4 41 20 41 8 0 14 -6 14 -14z m933 0 c7 -17 -18 -40 -33 -31 -5 3
-10 15 -10 26 0 23 35 27 43 5z m-383 -37 c0 -11 -4 -17 -10 -14 -5 3 -10 13
-10 21 0 8 5 14 10 14 6 0 10 -9 10 -21z m652 -30 c35 -68 19 -218 -29 -271
-23 -25 -68 -23 -87 4 -32 46 -6 190 49 271 31 44 43 44 67 -4z m-2476 -6
c-11 -11 -19 6 -11 24 8 17 8 17 12 0 3 -10 2 -21 -1 -24z m464 11 c0 -8 -4
-14 -10 -14 -5 0 -10 9 -10 21 0 11 5 17 10 14 6 -3 10 -13 10 -21z m384 -10
c3 -9 6 -36 6 -62 0 -27 6 -52 16 -63 34 -38 25 -159 -12 -173 -21 -8 -74 31
-74 54 0 10 9 37 19 61 16 34 19 57 14 105 -6 64 -1 94 16 94 5 0 12 -7 15
-16z m-119 -41 c28 -42 33 -73 11 -73 -22 0 -56 49 -56 81 0 39 14 36 45 -8z
m1229 13 c28 -11 38 -25 55 -70 26 -71 27 -115 0 -165 -16 -32 -18 -44 -9 -61
14 -25 12 -32 -53 -199 l-52 -135 -103 -105 c-169 -172 -188 -210 -178 -339 4
-48 11 -127 15 -177 7 -73 14 -101 40 -149 17 -32 31 -70 31 -86 0 -15 14 -55
32 -89 l32 -62 -19 -47 c-14 -32 -20 -71 -20 -122 0 -64 5 -85 32 -142 17 -37
50 -94 73 -128 23 -34 51 -82 61 -106 13 -29 38 -58 73 -84 71 -54 200 -120
234 -120 32 0 72 -25 72 -45 0 -16 -27 -33 -74 -46 -34 -10 -96 5 -96 23 0 16
-80 3 -98 -16 -14 -14 -11 -21 35 -69 61 -64 69 -86 49 -126 -32 -61 -16 -101
40 -101 45 0 192 76 310 160 54 38 102 70 107 70 5 0 27 -16 50 -35 22 -19 44
-35 49 -35 4 0 36 15 72 34 118 62 171 58 301 -24 73 -46 84 -50 140 -50 83 1
186 24 202 46 23 32 11 49 -38 54 -55 7 -110 47 -184 138 -69 83 -112 165
-121 230 -5 37 -13 57 -28 67 -11 8 -16 15 -10 15 34 0 48 187 19 243 -19 36
-32 112 -45 266 -7 74 -19 143 -31 173 -37 94 -16 189 53 241 18 14 62 37 97
51 36 14 75 36 88 48 24 23 31 62 12 74 -24 14 -49 90 -49 150 0 67 8 81 61
113 68 40 91 96 58 141 -19 24 -24 47 -27 118 -6 119 -3 122 131 122 129 0
146 9 95 51 -32 26 -38 37 -38 71 0 21 5 49 11 61 16 32 61 77 75 77 7 0 22
-26 34 -57 28 -74 34 -82 97 -109 59 -26 96 -70 72 -85 -8 -5 -27 -6 -44 -3
-19 3 -38 -1 -50 -10 l-20 -15 20 -6 c54 -18 67 -28 81 -62 12 -27 14 -53 9
-99 -4 -39 -3 -64 4 -68 5 -4 40 7 77 24 37 16 68 30 70 30 2 0 4 -11 4 -25 0
-13 12 -50 26 -82 19 -40 27 -76 28 -116 1 -53 -2 -61 -27 -83 -15 -13 -33
-24 -38 -24 -21 0 -127 112 -144 153 -25 57 -44 77 -71 77 -35 0 -39 -20 -9
-44 39 -31 46 -101 16 -162 -24 -48 -23 -88 5 -168 24 -66 21 -70 -38 -63 -59
7 -82 28 -73 66 11 43 -14 91 -63 122 -62 39 -97 38 -122 -3 -36 -58 -36 -77
0 -142 43 -77 43 -138 0 -344 -52 -254 -90 -368 -146 -435 -28 -33 -48 -100
-39 -134 11 -44 40 -63 98 -63 70 0 140 25 182 64 82 77 40 137 -60 86 -22
-11 -40 -20 -41 -20 -5 0 16 76 44 156 23 66 34 121 42 214 14 166 57 349 79
336 4 -3 11 -18 14 -34 3 -16 17 -34 32 -42 49 -26 61 -78 31 -135 -8 -16 -13
-40 -9 -53 3 -15 -1 -30 -13 -43 -27 -30 -27 -172 0 -214 16 -24 17 -37 10
-89 -10 -80 -8 -149 6 -175 14 -27 40 -26 125 0 l67 21 -25 26 c-68 72 -77 97
-77 206 0 102 44 439 75 571 23 100 37 123 125 203 44 40 80 81 80 91 0 28 30
109 45 121 11 9 20 7 41 -9 39 -30 52 -26 64 21 8 27 30 61 68 100 30 32 59
57 63 56 4 -2 23 -23 43 -46 44 -53 67 -128 68 -220 1 -95 -14 -134 -57 -155
-57 -27 -72 -71 -100 -287 -18 -140 -28 -185 -57 -249 -11 -25 -23 -69 -27
-98 -4 -29 -15 -61 -23 -70 -17 -19 -29 -58 -48 -154 -20 -102 -66 -135 -172
-123 -55 6 -60 5 -56 -12 3 -20 41 -35 141 -54 l57 -11 0 -41 c0 -22 -7 -66
-15 -97 -19 -74 -32 -162 -45 -295 -12 -135 -22 -152 -146 -251 -52 -42 -94
-82 -94 -89 0 -22 64 -46 124 -46 75 0 119 20 172 77 l43 48 43 -23 43 -23 40
20 c49 26 123 27 211 4 59 -16 66 -16 98 0 47 22 69 57 57 89 -5 14 -41 61
-79 106 -94 108 -106 146 -106 322 0 139 8 215 28 239 17 22 87 51 123 51 49
0 90 41 102 103 6 29 18 88 27 132 11 52 20 160 24 310 7 221 18 307 41 321 6
3 38 -23 71 -60 92 -102 153 -124 206 -73 16 15 33 27 40 27 19 0 25 -46 18
-143 -8 -117 0 -149 42 -161 21 -6 34 -18 41 -37 7 -19 17 -29 30 -29 36 0 23
-19 -16 -25 -21 -3 -51 -8 -67 -11 -16 -2 -38 -11 -47 -20 -18 -16 -23 -35
-53 -197 -26 -138 -83 -235 -152 -257 -37 -13 -50 -39 -34 -70 12 -23 56 -35
110 -31 9 0 38 35 65 77 65 98 124 154 165 154 64 0 90 -25 130 -127 15 -39
89 -110 124 -119 59 -15 61 30 5 117 -61 93 -62 102 -34 263 13 77 29 182 35
231 20 159 57 234 100 207 29 -18 42 -15 65 15 13 15 27 23 33 19 26 -16 7
-105 -55 -254 -31 -76 -33 -87 -22 -120 14 -43 61 -122 72 -122 14 0 26 47 42
170 8 67 22 138 30 157 10 25 15 72 15 155 0 89 4 127 16 150 34 66 39 25 48
-440 12 -593 -3 -1353 -28 -1380 -20 -24 -21 -58 0 -70 22 -12 33 -157 34
-424 l0 -208 -1947 1 c-1986 0 -2430 5 -2470 27 -13 7 -98 16 -204 21 -167 8
-216 18 -195 38 4 4 39 9 77 11 45 3 72 9 75 17 8 19 -23 73 -46 80 -21 7 -60
-10 -60 -25 0 -19 -22 -10 -47 20 -41 49 -93 39 -93 -20 0 -37 -24 -43 -229
-49 -146 -4 -202 -10 -215 -20 -13 -11 -14 -17 -4 -28 10 -12 42 -14 202 -8
200 6 237 1 244 -37 5 -27 -82 -30 -673 -26 l-550 3 -55 27 c-30 15 -79 30
-109 34 -52 7 -54 6 -48 -15 12 -46 25 -46 -1045 -49 l-1008 -3 0 488 0 488
77 60 c100 79 133 124 133 184 0 25 9 64 19 86 l19 40 11 -30 c53 -133 95
-181 211 -241 47 -24 104 -58 128 -76 49 -36 75 -32 80 15 6 53 -98 197 -142
197 -47 0 -186 255 -186 340 0 40 -37 135 -65 168 -29 33 -51 24 -78 -31 -9
-21 -23 -37 -31 -37 -20 0 -52 84 -65 167 -15 98 -14 262 2 293 15 29 53 37
81 17 19 -14 19 -16 2 -70 -16 -50 -16 -58 -2 -91 18 -44 56 -50 81 -12 20 30
54 206 62 316 3 47 9 90 13 95 4 6 22 48 40 95 43 113 63 150 97 181 35 33 52
39 80 28 31 -11 43 -65 43 -202 0 -125 4 -140 52 -195 41 -48 35 -75 -19 -83
-24 -3 -45 -8 -48 -11 -21 -21 -35 -387 -16 -417 11 -17 20 -1 50 90 12 36 35
87 52 114 55 87 89 289 89 535 0 191 19 238 69 175 41 -53 58 -259 24 -297
-15 -17 -15 -25 -1 -109 21 -114 41 -151 103 -192 36 -23 53 -42 62 -68 14
-42 30 -253 39 -511 l7 -187 -27 -55 c-32 -66 -111 -156 -136 -156 -16 0 -58
-66 -48 -76 10 -9 274 -35 304 -29 22 4 57 27 96 61 34 30 75 58 91 61 16 3
32 14 34 24 4 16 8 15 39 -6 19 -13 61 -29 92 -36 31 -6 91 -21 132 -32 62
-18 103 -21 238 -22 l164 0 -6 -40 c-19 -119 -98 -232 -188 -269 -87 -35 -113
-52 -135 -85 -36 -53 -31 -85 19 -121 66 -48 164 -67 175 -33 4 11 -61 65 -90
76 -29 11 19 30 154 63 79 19 168 41 197 50 59 17 75 13 66 -20 -7 -29 26 -56
68 -56 39 0 78 -17 78 -34 0 -22 15 -27 43 -17 51 20 42 98 -14 121 -36 15
-36 23 -1 48 131 93 218 90 329 -11 76 -68 126 -94 204 -103 67 -8 129 14 129
45 0 11 -19 43 -42 70 -24 28 -53 64 -66 80 -40 53 -206 95 -245 62 -12 -9
-15 -1 -20 44 -4 36 -22 91 -51 153 -60 131 -61 143 -16 162 33 14 98 16 145
5 26 -6 36 -1 68 30 20 20 48 58 62 85 14 27 49 70 80 96 30 26 58 57 61 68 3
12 16 32 28 45 24 27 131 83 140 74 3 -4 6 -21 6 -38 0 -36 -31 -87 -96 -157
-24 -26 -44 -50 -44 -52 0 -3 19 -18 43 -32 62 -38 97 -75 97 -100 0 -12 -9
-42 -21 -68 -11 -26 -19 -61 -17 -79 2 -27 10 -36 48 -54 56 -29 123 -30 149
-4 10 10 37 50 60 89 41 70 79 106 108 100 21 -4 31 -24 38 -81 4 -28 16 -58
29 -74 21 -24 30 -27 80 -26 65 2 131 29 226 94 70 48 94 59 181 83 135 38
145 130 23 227 -56 45 -107 68 -172 80 -31 6 -87 27 -125 46 l-67 35 -105
-101 c-60 -57 -114 -101 -125 -101 -17 0 -18 5 -13 49 5 47 4 50 -19 56 -18 5
-44 -3 -86 -24 -75 -38 -88 -38 -124 -4 -33 31 -35 43 -9 43 22 0 63 45 92
102 l20 39 -31 10 c-36 13 -40 39 -6 39 14 0 30 10 40 25 9 14 32 31 51 39 19
8 35 22 35 30 0 36 -83 48 -147 21 -41 -17 -53 -13 -32 12 130 158 204 218
234 193 20 -16 19 -42 -5 -180 -30 -173 -26 -191 35 -176 42 11 57 47 65 166
7 86 14 122 34 164 33 70 35 157 5 236 -38 100 -34 197 10 251 31 38 50 12 53
-74 3 -71 3 -71 35 -81 25 -7 38 -5 58 8 33 21 32 33 -7 92 -29 43 -33 57 -34
119 -1 138 -1 138 -35 73 -47 -92 -46 -94 -78 167 -12 88 -27 186 -36 218 -20
78 -19 87 9 87 28 0 86 -61 86 -91 0 -52 91 -93 151 -69 46 19 51 38 29 108
-11 34 -17 69 -13 77 3 9 21 22 39 30 27 11 34 20 34 42 0 33 22 71 77 132
l40 45 12 -61 c17 -89 74 -164 102 -136 9 9 6 26 -11 73 -23 63 -24 130 0 154
14 14 100 -73 100 -102 0 -26 17 -38 64 -45 34 -6 43 -2 72 27 38 38 51 97 36
164 -7 31 -6 57 4 95 8 32 11 71 7 101 -5 45 -4 49 12 42 12 -4 24 0 37 14 22
24 73 26 122 6z m334 -12 c43 -28 0 -46 -53 -22 -14 6 -25 20 -25 31 0 16 5
18 28 12 15 -3 37 -13 50 -21z m-2130 -34 c9 0 22 -8 29 -19 6 -10 25 -21 41
-24 25 -5 30 -12 36 -46 3 -21 8 -48 12 -58 4 -14 1 -13 -12 5 -21 28 -34 28
-34 0 0 -21 -1 -21 -29 6 -37 35 -91 136 -91 167 1 24 1 23 16 -3 8 -16 22
-28 32 -28z m4349 15 c19 -8 48 -15 63 -15 52 0 150 -91 166 -153 5 -21 11
-27 25 -24 11 3 24 -3 33 -17 8 -13 53 -41 99 -64 101 -49 111 -66 73 -121
-31 -44 -34 -86 -7 -101 15 -8 129 -29 163 -30 16 0 38 -34 38 -59 0 -38 -39
-77 -89 -91 -30 -8 -42 -17 -47 -35 -10 -40 1 -52 75 -90 39 -19 75 -44 81
-54 22 -43 6 -175 -25 -201 -18 -15 -48 2 -112 67 -25 24 -47 43 -49 40 -2 -2
-11 -30 -19 -62 -25 -95 -79 -146 -124 -118 -39 24 -55 151 -23 187 10 12 24
40 31 64 6 23 25 57 41 76 17 18 30 38 30 43 0 6 -34 16 -75 22 -88 15 -121
36 -112 72 4 14 18 31 32 39 59 32 11 79 -93 92 -139 17 -135 77 16 188 38 28
44 55 10 45 -13 -4 -48 -23 -78 -43 -72 -48 -91 -87 -88 -172 3 -59 5 -65 26
-68 28 -4 28 -13 -2 -56 -16 -23 -26 -58 -31 -98 -9 -85 -36 -143 -74 -162
-40 -21 -48 -20 -67 8 -28 43 -37 154 -19 237 8 41 15 92 15 114 0 27 9 53 26
78 14 21 37 64 51 95 27 62 59 102 80 102 26 0 72 30 78 50 9 30 -12 50 -51
50 -62 0 -165 127 -134 165 15 19 22 19 67 0z m-6823 -48 c24 -18 35 -77 36
-192 l0 -100 -73 -17 c-40 -10 -79 -18 -87 -18 -21 0 -187 110 -236 156 -39
37 -44 46 -44 86 0 83 53 94 117 23 23 -25 49 -45 61 -45 11 0 50 27 86 60 69
62 103 74 140 47z m2406 -6 c5 -11 10 -25 10 -32 0 -18 -27 7 -33 31 -7 26 9
26 23 1z m1006 -38 c91 -76 127 -145 128 -244 1 -57 -2 -72 -21 -90 -26 -27
-58 -19 -50 12 3 13 -2 28 -14 40 -13 13 -19 33 -19 64 0 75 -20 108 -98 158
-106 69 -122 117 -39 117 39 0 52 -7 113 -57z m324 43 c0 -8 -4 -18 -10 -21
-5 -3 -10 3 -10 14 0 12 5 21 10 21 6 0 10 -6 10 -14z m3825 -10 c27 -12 35
-21 35 -41 0 -40 38 -52 81 -26 54 33 143 23 195 -23 33 -27 27 -43 -41 -105
-42 -38 -50 -42 -81 -37 -26 5 -34 4 -34 -8 0 -27 36 -36 139 -36 l100 0 -27
-78 c-15 -43 -50 -111 -77 -152 l-50 -75 -3 88 c-3 95 -9 103 -55 67 -56 -45
-82 -8 -71 102 6 59 4 68 -9 68 -21 0 -42 -33 -57 -88 -12 -47 -48 -77 -78
-67 -27 8 -31 32 -25 120 7 87 -5 99 -63 71 -50 -23 -54 -21 -54 29 0 36 -4
47 -25 61 -31 20 -32 52 -3 89 41 52 132 70 203 41z m-5602 -3 c8 -14 -38
-150 -57 -172 -38 -42 -111 -21 -137 40 -12 31 -12 33 22 61 63 53 159 92 172
71z m707 -3 c0 -5 -7 -10 -15 -10 -8 0 -15 5 -15 10 0 6 7 10 15 10 8 0 15 -4
15 -10z m2210 -16 c0 -14 -12 -19 -23 -8 -9 9 4 35 14 28 5 -3 9 -12 9 -20z
m1834 -35 c28 -33 34 -76 15 -112 -23 -43 -100 -126 -146 -156 -36 -24 -58
-31 -94 -31 -79 0 -96 -11 -115 -76 -18 -62 -45 -97 -69 -88 -23 9 -29 48 -20
138 5 44 9 105 9 135 1 50 -1 55 -29 71 -37 20 -44 54 -16 70 12 6 79 17 151
26 72 8 156 23 188 33 81 27 96 25 126 -10z m1304 -22 c-4 -30 -38 -36 -38 -7
0 12 5 31 11 42 10 19 12 20 21 4 5 -9 8 -27 6 -39z m-7193 23 c3 -5 -3 -10
-14 -10 -12 0 -21 5 -21 10 0 6 6 10 14 10 8 0 18 -4 21 -10z m4758 -4 c3 -12
-30 -32 -39 -24 -11 12 5 40 21 36 9 -2 17 -7 18 -12z m-1973 -11 c0 -8 -4
-15 -10 -15 -5 0 -10 7 -10 15 0 8 5 15 10 15 6 0 10 -7 10 -15z m-2669 -100
c62 -22 89 -51 89 -95 0 -43 -37 -90 -71 -90 -13 0 -42 20 -70 49 -53 52 -62
88 -33 129 18 26 28 27 85 7z m1173 -17 c20 -32 -4 -53 -60 -53 -57 0 -69 20
-34 55 25 25 77 24 94 -2z m4024 -46 c2 -29 -1 -52 -6 -52 -14 0 -22 26 -22
72 0 60 24 43 28 -20z m-3688 13 c0 -15 -79 -59 -89 -50 -10 11 55 60 87 65 1
0 2 -7 2 -15z m70 -12 c0 -20 -3 -24 -11 -16 -7 7 -9 19 -6 27 10 24 17 19 17
-11z m2000 6 c0 -11 -4 -17 -10 -14 -5 3 -10 13 -10 21 0 8 5 14 10 14 6 0 10
-9 10 -21z m-4147 -4 c27 -27 31 -74 10 -104 -40 -53 -136 -49 -149 6 -17 67
93 144 139 98z m-749 -50 c-26 -19 -31 -9 -8 16 11 12 20 16 22 9 2 -6 -4 -17
-14 -25z m3700 19 c9 -8 16 -20 16 -25 0 -20 -50 -59 -75 -59 -21 0 -25 5 -25
30 0 32 30 70 54 70 8 0 22 -7 30 -16z m-2700 -25 c78 -93 -43 -233 -138 -158
-43 34 -35 69 29 134 31 30 62 55 69 55 8 0 26 -14 40 -31z m1332 19 c4 -6 10
-25 14 -42 5 -28 9 -31 45 -31 l40 0 -1 -47 c0 -63 -64 -192 -107 -219 -42
-25 -62 -21 -62 14 0 33 -18 47 -62 47 -39 0 -43 12 -44 109 -1 55 3 77 16 91
21 23 80 44 101 36 8 -3 17 1 19 9 3 8 7 22 10 30 5 18 21 20 31 3z m-446 -27
c0 -23 -37 -38 -53 -22 -7 7 -6 15 3 26 18 22 50 19 50 -4z m3157 -63 c28 -26
29 -38 4 -38 -32 0 -51 11 -51 29 0 36 15 39 47 9z m-4893 -7 c25 -27 23 -93
-3 -129 -11 -16 -43 -47 -71 -68 -27 -21 -50 -40 -50 -43 0 -3 25 -31 56 -62
64 -64 69 -88 34 -141 -38 -54 -83 -98 -102 -98 -32 0 -40 62 -36 276 3 132 9
208 17 225 27 55 120 79 155 40z m2749 -11 c57 -49 63 -77 37 -162 -31 -104
-34 -105 -90 -58 -26 22 -52 40 -58 40 -17 0 -35 69 -29 117 10 89 77 119 140
63z m-249 -11 c4 -19 13 -33 26 -36 28 -7 25 -23 -3 -23 -34 0 -61 33 -53 65
9 34 22 32 30 -6z m2984 -6 c-2 -31 -7 -39 -26 -41 -30 -4 -39 22 -18 53 26
39 48 33 44 -12z m-5231 -14 c37 -71 -19 -219 -82 -219 -42 0 -55 10 -55 46 0
76 77 213 113 202 6 -3 18 -15 24 -29z m6643 21 c0 -5 -9 -10 -20 -10 -11 0
-20 5 -20 10 0 6 9 10 20 10 11 0 20 -4 20 -10z m-480 -15 c0 -8 -4 -15 -10
-15 -5 0 -10 7 -10 15 0 8 5 15 10 15 6 0 10 -7 10 -15z m-1620 -26 c0 -11 -4
-17 -10 -14 -5 3 -10 13 -10 21 0 8 5 14 10 14 6 0 10 -9 10 -21z m211 -6 c12
-33 24 -280 15 -316 -5 -21 -12 -27 -35 -27 -35 0 -117 69 -123 105 -16 83 64
265 117 265 9 0 20 -12 26 -27z m699 6 c0 -11 -4 -17 -10 -14 -5 3 -10 13 -10
21 0 8 5 14 10 14 6 0 10 -9 10 -21z m-2766 -30 c27 -31 43 -75 33 -86 -4 -3
-18 2 -32 11 -19 13 -24 22 -20 37 5 14 0 29 -16 45 -18 19 -19 24 -7 24 9 0
28 -14 42 -31z m596 5 c0 -8 -4 -14 -10 -14 -5 0 -10 9 -10 21 0 11 5 17 10
14 6 -3 10 -13 10 -21z m1620 0 c0 -8 -4 -14 -10 -14 -5 0 -10 9 -10 21 0 11
5 17 10 14 6 -3 10 -13 10 -21z m-310 1 c0 -8 -4 -15 -10 -15 -5 0 -10 7 -10
15 0 8 5 15 10 15 6 0 10 -7 10 -15z m-2400 -26 c0 -10 -4 -19 -9 -19 -14 0
-33 28 -27 39 10 16 36 1 36 -20z m840 7 c0 -21 -40 -76 -55 -76 -22 0 -19 42
5 73 20 25 50 27 50 3z m185 -3 c-25 -17 -55 -17 -55 1 0 16 25 24 54 17 18
-4 18 -5 1 -18z m-400 -109 c-7 -58 -25 -77 -63 -67 -29 7 -28 38 3 79 62 81
72 79 60 -12z m-544 40 c11 -13 10 -21 -6 -50 -15 -29 -17 -39 -7 -55 15 -24
15 -102 1 -239 -14 -133 -2 -180 50 -195 33 -10 33 -10 26 -55 -3 -25 -10 -98
-14 -162 -4 -65 -9 -119 -12 -120 -2 -2 -13 -8 -24 -14 -29 -16 -44 -53 -66
-161 -31 -155 -23 -194 35 -163 58 31 93 145 106 350 11 167 21 208 56 215 13
3 35 7 49 10 31 7 32 28 5 159 -23 112 -35 140 -57 132 -23 -9 -43 13 -43 48
0 45 40 121 64 121 22 0 177 -179 225 -260 52 -86 54 -211 4 -334 -15 -36 -28
-88 -29 -115 -4 -70 -11 -93 -46 -144 -46 -66 -64 -125 -77 -237 -6 -55 -18
-125 -27 -155 -41 -137 -119 -241 -190 -254 -22 -4 -47 -15 -58 -24 -12 -11
-43 -19 -89 -22 -86 -6 -95 -21 -47 -77 28 -31 31 -42 27 -75 -3 -22 -13 -48
-23 -59 -25 -28 -66 -21 -75 11 -4 14 -5 113 -1 221 3 107 2 208 -2 222 -10
41 -42 36 -61 -9 l-15 -37 -61 6 c-80 7 -174 53 -229 113 -40 43 -42 49 -36
90 12 89 73 180 149 224 98 56 127 37 127 -83 0 -112 51 -168 106 -116 33 31
30 62 -16 158 -50 103 -78 144 -95 137 -21 -8 -33 15 -45 86 -7 44 -7 75 0 92
11 30 17 32 41 10 17 -15 19 -13 34 42 23 84 36 115 59 149 16 23 21 46 21
100 0 65 4 75 43 139 23 39 42 76 42 83 0 8 15 28 33 47 32 32 77 129 77 166
0 10 7 20 15 24 9 3 15 19 15 41 0 38 18 47 41 19z m2907 -7 c4 -20 -25 -34
-40 -19 -15 15 -1 44 19 40 10 -2 19 -11 21 -21z m-4765 -32 c25 -19 52 -35
60 -35 17 0 39 -24 61 -67 22 -43 20 -56 -10 -92 -19 -23 -34 -31 -59 -31 -42
0 -95 42 -95 76 0 13 -14 52 -32 88 -17 35 -28 71 -25 80 10 26 51 18 100 -19z
m-270 -6 c33 -17 97 -80 113 -112 8 -15 12 -36 9 -47 -10 -30 -73 -80 -102
-80 -27 0 -63 25 -63 44 0 6 -16 35 -36 64 -32 46 -35 56 -26 77 7 14 26 34
44 45 39 24 34 23 61 9z m4212 -23 c21 -32 29 -110 17 -173 -10 -59 -11 -59
56 -4 49 39 72 77 72 118 l0 27 30 -34 c51 -60 55 -92 35 -303 -10 -103 -15
-191 -11 -194 25 -25 59 48 86 180 12 61 32 90 59 85 11 -2 16 -13 14 -33 0
-17 -6 -106 -12 -200 -6 -93 -15 -321 -20 -505 l-9 -335 -32 -85 c-39 -107
-65 -135 -113 -126 -79 15 -245 148 -281 226 -19 41 -21 69 -26 326 l-5 281
-36 40 c-20 22 -47 67 -59 99 -64 164 2 468 128 592 50 48 84 54 107 18z
m1007 -31 c3 -12 -1 -69 -8 -126 -6 -57 -10 -108 -7 -112 8 -12 -18 -37 -38
-37 -43 0 -51 83 -19 199 12 41 25 82 31 92 12 23 36 14 41 -16z m-4461 -70
c14 -22 19 -48 19 -96 0 -42 5 -72 15 -85 22 -30 18 -50 -14 -64 -60 -24 -65
-17 -77 115 -7 66 -12 143 -13 170 l0 50 25 -30 c14 -16 34 -43 45 -60z m6649
74 c51 -12 80 -34 80 -60 0 -42 -78 -52 -131 -16 -36 24 -50 64 -27 78 17 11
23 11 78 -2z m430 -24 c0 -14 -4 -25 -10 -25 -11 0 -14 33 -3 43 11 11 13 8
13 -18z m-6912 -7 c7 -7 12 -24 12 -38 0 -30 -49 -132 -66 -138 -27 -8 -46
127 -24 169 12 22 59 26 78 7z m6752 -9 c0 -38 -104 -118 -126 -96 -10 10 24
74 51 95 37 29 75 29 75 1z m-2775 -40 c35 -66 29 -182 -16 -328 -26 -87 -25
-107 21 -219 61 -153 65 -180 50 -381 -13 -168 -13 -176 8 -261 22 -85 42
-269 42 -382 l0 -58 -56 0 c-32 0 -71 7 -91 17 -74 35 -121 163 -107 295 5 50
2 75 -15 123 -28 79 -27 90 10 160 l32 61 -29 64 c-31 70 -34 100 -20 231 6
54 5 82 -4 98 -6 13 -16 64 -20 114 -8 83 -12 94 -36 114 l-28 22 40 97 c49
121 55 130 80 116 11 -6 25 -8 30 -4 20 14 44 57 44 79 0 34 18 73 34 73 9 0
23 -14 31 -31z m-3031 -12 c8 -12 7 -21 -6 -33 -20 -20 -38 -11 -38 20 0 39
23 46 44 13z m5957 -13 c9 -11 14 -52 17 -118 l3 -101 -50 54 c-58 62 -85 113
-76 142 12 36 82 52 106 23z m-6691 -8 c0 -8 -4 -18 -10 -21 -5 -3 -10 3 -10
14 0 12 5 21 10 21 6 0 10 -6 10 -14z m658 -18 c-6 -16 -36 -34 -44 -26 -3 4
-4 14 -1 23 7 17 51 21 45 3z m3282 -18 c0 -32 -40 -80 -67 -80 -9 0 6 31 30
60 23 30 37 37 37 20z m-5340 -35 c22 -14 50 -25 63 -25 13 0 34 11 47 25 13
14 32 25 42 25 36 0 17 -92 -28 -131 -65 -56 -214 -18 -214 55 0 38 18 76 35
76 8 0 33 -11 55 -25z m791 -27 c34 -72 32 -157 -5 -265 -30 -86 -31 -105 -10
-255 10 -71 0 -98 -37 -98 -45 0 -98 26 -108 54 -12 29 8 194 44 375 14 68 25
140 25 158 0 39 27 82 51 83 9 0 25 -21 40 -52z m7078 -5 c27 -27 53 -60 56
-76 9 -33 -14 -73 -51 -89 -20 -10 -29 -8 -52 9 -39 29 -63 76 -65 126 -4 88
40 99 112 30z m-5830 8 c31 -8 45 -32 38 -62 -3 -13 -34 -67 -67 -119 -66
-102 -63 -89 -45 -210 7 -43 5 -47 -19 -58 -33 -15 -110 -16 -137 -2 -26 15
-24 54 7 107 18 32 34 45 55 50 43 8 44 18 4 61 -19 22 -42 56 -50 75 -18 43
-20 138 -3 155 13 13 174 15 217 3z m2815 -7 c4 -9 4 -19 2 -22 -10 -9 -36 8
-36 23 0 20 26 19 34 -1z m-1964 -54 c0 -11 -4 -20 -10 -20 -5 0 -10 9 -10 20
0 11 5 20 10 20 6 0 10 -9 10 -20z m4074 -41 c41 -49 30 -89 -25 -89 -29 0
-69 39 -69 67 0 57 54 70 94 22z m-1414 -15 c0 -8 -4 -14 -10 -14 -5 0 -10 9
-10 21 0 11 5 17 10 14 6 -3 10 -13 10 -21z m1280 13 c0 -7 -6 -21 -13 -32
-19 -26 -30 -3 -11 23 17 25 24 28 24 9z m-1580 -115 c0 -9 -36 -44 -57 -56
-20 -11 -15 8 8 38 19 25 49 36 49 18z m1583 -82 c-4 -95 -42 -335 -63 -394
-10 -31 -28 -69 -39 -85 -11 -15 -25 -48 -30 -72 -5 -24 -15 -66 -21 -93 -6
-27 -22 -62 -35 -78 -30 -35 -31 -66 -10 -223 8 -60 15 -147 15 -192 0 -74 -3
-85 -25 -109 -30 -32 -30 -27 -6 -114 23 -82 16 -95 -41 -80 -41 12 -63 33
-55 54 4 9 -2 16 -15 19 -19 5 -20 11 -15 57 3 28 14 63 23 79 16 28 16 31 -1
67 -15 33 -17 55 -10 188 8 186 14 215 59 280 36 53 56 132 56 226 0 67 23
146 79 267 42 95 55 133 77 241 4 19 10 23 32 20 26 -3 27 -5 25 -58z m868 9
c18 -18 21 -29 16 -70 -12 -101 -75 -199 -128 -199 -15 0 -30 3 -32 8 -5 7 41
166 68 240 19 48 42 55 76 21z m-7939 -51 c37 -66 -13 -401 -54 -360 -25 25
-36 334 -13 371 11 20 54 12 67 -11z m5156 -31 c2 -19 -1 -27 -12 -27 -20 0
-29 16 -21 41 9 27 29 19 33 -14z m-53 -145 c0 -18 -20 -15 -23 4 -3 10 1 15
10 12 7 -3 13 -10 13 -16z m-3929 -87 c6 -25 -9 -55 -27 -55 -5 0 -9 18 -9 40
0 46 25 57 36 15z m984 -21 c0 -8 -6 -14 -14 -14 -16 0 -29 27 -20 41 8 13 34
-9 34 -27z m-90 -102 c0 -20 -26 -60 -33 -52 -2 3 0 20 5 38 9 34 28 44 28 14z
m-990 -2 c0 -5 -11 -10 -24 -10 -14 0 -28 5 -31 10 -4 6 7 10 24 10 17 0 31
-4 31 -10z m6020 -93 c0 -76 -4 -108 -15 -123 -15 -19 -16 -18 -40 9 -31 35
-32 74 -4 130 25 48 49 87 55 87 2 0 4 -46 4 -103z m686 16 c15 -59 -36 -80
-87 -35 -46 41 -35 62 30 62 46 0 51 -2 57 -27z m-4586 -218 c15 -18 6 -45
-14 -45 -16 0 -31 34 -21 50 9 14 21 12 35 -5z m2380 -103 c0 -14 -11 -21 -26
-15 -8 3 -11 9 -8 14 7 11 34 12 34 1z m-5577 -73 c25 -47 21 -262 -6 -303
-24 -36 -34 -33 -48 17 -11 42 -6 297 7 318 10 17 28 4 47 -32z m2153 -64 c27
-19 60 -43 73 -52 13 -9 36 -17 50 -18 37 0 41 -45 8 -93 -51 -76 -45 -104 44
-204 100 -112 109 -166 37 -218 -38 -28 -94 -47 -105 -36 -3 3 -9 52 -13 110
-7 99 -10 108 -39 141 -17 19 -33 48 -36 63 -4 15 -9 38 -11 52 -3 14 -12 32
-19 40 -8 9 -19 53 -24 99 -7 63 -14 87 -30 102 -22 21 -26 31 -14 42 13 13
31 7 79 -28z m-1991 -5 c21 -40 32 -120 16 -120 -21 0 -51 64 -51 108 0 49 13
54 35 12z m3566 -57 c13 -34 4 -108 -16 -140 -23 -35 -71 -56 -96 -42 -22 11
-22 7 -3 131 6 43 9 47 28 42 14 -3 28 2 40 15 25 28 34 26 47 -6z m1850 -100
c-9 -15 -10 -12 -10 17 0 29 1 32 10 18 7 -12 7 -24 0 -35z m-1716 -63 c-5 -8
-11 -8 -17 -2 -6 6 -7 16 -3 22 5 8 11 8 17 2 6 -6 7 -16 3 -22z m1795 -5 c13
-14 21 -28 17 -31 -10 -10 -57 24 -57 41 0 22 13 18 40 -10z m-460 5 c0 -5 -7
-10 -15 -10 -8 0 -15 5 -15 10 0 6 7 10 15 10 8 0 15 -4 15 -10z m555 -69 c7
-12 -12 -24 -25 -16 -11 7 -4 25 10 25 5 0 11 -4 15 -9z m-6085 -2046 l0 -605
-570 0 -570 0 0 605 0 605 570 0 570 0 0 -605z m6441 596 c86 -5 161 -11 167
-15 7 -4 6 -21 -4 -54 -7 -26 -21 -73 -29 -105 -19 -68 -90 -151 -140 -162
-88 -18 -119 -65 -120 -175 0 -58 5 -84 22 -116 26 -50 35 -54 137 -65 141
-15 126 -50 -33 -78 -124 -22 -152 -41 -131 -91 18 -44 95 -108 150 -124 63
-19 121 -49 145 -76 26 -29 88 -60 120 -60 20 0 25 5 25 25 0 15 -7 39 -15 55
-23 44 -34 111 -44 261 -11 159 -29 209 -82 228 -18 6 -40 11 -50 11 -39 0
-15 24 65 66 100 53 127 12 150 -233 8 -89 22 -177 29 -195 15 -35 54 -68 81
-68 36 0 41 38 44 337 l4 292 -44 11 c-132 35 -161 53 -156 98 2 19 14 32 43
46 34 18 40 26 43 57 2 20 -6 59 -17 88 l-19 51 949 0 949 0 0 -605 0 -605
-4215 0 -4215 0 0 605 0 605 3018 0 c1659 -1 3087 -5 3173 -9z m3679 -596 l0
-605 -610 0 -610 0 0 605 0 605 610 0 610 0 0 -605z m-3700 -225 c0 -11 -4
-20 -10 -20 -5 0 -10 9 -10 20 0 11 5 20 10 20 6 0 10 -9 10 -20z"/>
<path d="M9454 13141 c-60 -37 -81 -95 -48 -132 22 -24 33 -170 34 -443 l0
-219 167 7 c216 9 257 18 306 66 31 32 37 44 37 82 0 48 -22 88 -48 88 -9 0
-53 -25 -98 -55 -94 -63 -129 -70 -146 -27 -6 16 -14 133 -18 287 -7 288 -11
308 -73 345 -40 25 -73 25 -113 1z"/>
<path d="M2313 13130 c-38 -12 -148 -111 -170 -153 -31 -61 3 -176 64 -213 15
-10 42 -30 58 -45 17 -15 56 -37 87 -49 82 -30 137 -99 126 -157 -9 -48 -153
-16 -221 49 -59 56 -78 68 -109 68 -37 0 -51 -29 -43 -91 10 -70 49 -119 121
-151 80 -36 226 -63 265 -49 45 15 95 58 129 109 28 42 31 53 28 107 -8 114
-91 240 -193 292 -74 38 -105 62 -105 83 0 43 79 32 145 -20 70 -55 99 -49
110 24 7 45 -11 104 -43 139 -46 51 -173 80 -249 57z"/>
<path d="M4523 13130 c-88 -19 -163 -76 -163 -125 0 -40 35 -60 119 -65 l76
-5 3 -293 2 -293 98 3 97 3 3 293 2 292 75 0 c95 0 125 13 125 54 0 59 -44 95
-145 123 -64 17 -237 25 -292 13z"/>
<path d="M5162 12748 l3 -393 98 -3 97 -3 0 396 0 395 -100 0 -100 0 2 -392z"/>
<path d="M3823 13119 c-54 -16 -121 -150 -214 -428 -58 -173 -68 -234 -45
-279 18 -35 70 -56 121 -50 28 3 30 7 35 50 7 56 38 94 89 108 48 13 167 13
193 -1 11 -6 31 -36 45 -67 35 -80 48 -92 99 -92 58 0 80 30 70 97 -19 142
-203 592 -264 646 -22 20 -89 28 -129 16z m111 -325 c24 -24 20 -80 -6 -98
-49 -34 -108 -7 -108 49 0 43 22 65 65 65 18 0 41 -7 49 -16z"/>
<path d="M8785 13107 c-56 -31 -86 -97 -141 -307 -25 -96 -58 -213 -75 -260
-37 -107 -38 -137 -3 -150 66 -26 114 -3 114 54 0 22 8 40 26 57 23 21 35 24
103 24 90 -1 136 -22 163 -74 36 -72 84 -100 148 -86 31 7 52 31 64 71 5 15
-1 31 -18 51 -14 17 -27 49 -31 78 -4 28 -20 75 -36 106 -15 31 -37 93 -48
138 -37 149 -145 321 -202 321 -13 0 -42 -10 -64 -23z m116 -354 c14 -36 -1
-87 -26 -92 -23 -4 -45 24 -45 57 0 60 51 86 71 35z"/>
<path d="M2930 13097 c-38 -10 -47 -17 -57 -47 -14 -43 -16 -100 -3 -120 7
-11 33 -16 103 -18 l94 -4 -1 -271 -1 -272 75 1 c41 1 87 7 103 13 l27 11 0
260 0 260 66 0 c92 0 104 8 104 75 0 66 -26 102 -85 115 -57 13 -371 11 -425
-3z"/>
<path d="M5795 13096 c-67 -29 -131 -140 -122 -208 14 -102 92 -197 174 -213
55 -10 122 -45 160 -83 43 -43 44 -91 2 -106 -50 -17 -98 2 -163 63 -69 66
-93 81 -130 81 -55 0 -61 -79 -13 -171 46 -89 71 -100 231 -100 149 0 177 10
237 85 56 70 82 123 74 153 -9 39 -130 152 -190 178 -61 27 -110 75 -126 124
-10 30 -9 36 7 48 10 7 35 13 56 13 39 0 58 -19 58 -59 0 -30 35 -45 70 -31
64 26 77 94 31 156 -56 77 -59 79 -200 82 -90 1 -135 -2 -156 -12z"/>
<path d="M6561 13094 c-108 -29 -147 -72 -119 -130 18 -39 52 -54 126 -54 l62
0 0 -280 0 -280 100 0 100 0 0 280 0 280 73 0 c95 0 138 21 151 72 10 41 1 60
-44 83 -81 42 -339 59 -449 29z"/>
<path d="M7290 12745 l0 -365 85 0 85 0 0 365 0 365 -85 0 -85 0 0 -365z"/>
<path d="M7798 13048 c-57 -79 -78 -120 -94 -183 -42 -155 16 -339 133 -425
22 -16 66 -36 99 -45 149 -39 363 3 381 74 10 39 -8 56 -65 59 -41 2 -55 -1
-73 -19 -45 -45 -207 -8 -239 56 -23 47 -22 341 2 377 33 51 190 62 246 17 24
-19 84 -25 116 -13 21 8 20 37 -3 82 -39 76 -40 77 -261 80 l-197 3 -45 -63z"/>
<path d="M860 11130 l0 -390 100 0 100 0 0 390 0 390 -100 0 -100 0 0 -390z"/>
<path d="M660 9811 l0 -371 74 0 73 0 5 175 c3 149 7 178 21 193 16 15 20 15
44 2 15 -9 80 -77 145 -152 142 -164 163 -181 240 -186 l58 -4 0 356 0 356
-90 0 -90 0 0 -197 -1 -198 -87 90 c-49 50 -113 124 -144 165 -89 120 -107
133 -183 138 l-65 4 0 -371z"/>
<path d="M690 8406 l0 -406 143 0 c200 1 264 11 317 49 24 17 51 31 61 31 9 0
29 14 43 30 74 88 84 329 21 468 -32 69 -125 161 -202 198 -55 28 -65 29 -220
33 l-163 3 0 -406z m338 256 c19 -8 40 -25 47 -36 21 -32 35 -144 35 -284 0
-185 -19 -212 -150 -212 l-70 0 0 260 c0 249 1 261 21 281 22 22 55 20 117 -9z"/>
<path d="M860 7040 l0 -380 100 0 100 0 0 380 0 380 -100 0 -100 0 0 -380z"/>
<path d="M926 6011 c-10 -11 -24 -41 -32 -67 -8 -26 -21 -59 -30 -72 -9 -13
-27 -70 -40 -126 -13 -55 -37 -150 -53 -211 -34 -123 -41 -234 -17 -254 8 -7
36 -11 62 -9 57 4 70 21 79 111 7 66 18 76 101 84 71 8 96 -10 135 -92 46 -99
105 -131 159 -87 21 17 22 21 10 78 -6 32 -38 138 -70 234 -90 269 -140 370
-205 410 -41 25 -77 25 -99 1z m82 -383 c2 -22 -3 -39 -12 -47 -13 -11 -17 -9
-26 15 -8 20 -8 35 0 52 14 33 34 22 38 -20z"/>
<path d="M703 4598 c-4 -7 -9 -183 -11 -390 l-3 -378 85 0 86 0 0 153 c1 146
9 230 25 245 9 9 80 -68 203 -221 117 -145 110 -137 145 -164 70 -54 78 -13
84 415 l6 352 -92 0 -91 0 0 -192 0 -193 -142 139 c-142 137 -265 246 -279
246 -4 0 -11 -6 -16 -12z"/>
<path d="M9185 9941 c-77 -19 -139 -75 -151 -136 -7 -40 8 -65 39 -65 12 0 62
23 111 52 l89 51 23 -27 c13 -14 29 -44 35 -66 14 -46 35 -52 50 -12 27 69
-53 181 -146 205 -11 2 -33 1 -50 -2z"/>
<path d="M8936 9683 c9 -70 24 -97 57 -101 51 -6 49 53 -4 113 -45 50 -60 47
-53 -12z"/>
<path d="M10980 11190 l0 -350 100 0 100 0 0 350 0 350 -100 0 -100 0 0 -350z"/>
<path d="M10750 10340 l0 -340 74 0 73 0 7 151 c8 155 12 182 27 177 5 -2 65
-55 135 -118 198 -181 269 -229 297 -201 14 14 25 221 26 484 l1 187 -80 0
-80 0 0 -142 c0 -149 -5 -188 -23 -188 -11 0 -172 162 -267 268 l-55 62 -68 0
-67 0 0 -340z"/>
<path d="M10966 9805 c-76 -27 -136 -109 -136 -186 0 -79 51 -138 185 -213 73
-42 125 -94 125 -128 0 -23 -5 -28 -36 -34 -43 -8 -138 2 -168 18 -11 6 -34
22 -49 34 -57 47 -92 15 -67 -61 30 -92 92 -121 248 -113 110 6 181 30 228 79
27 28 29 38 33 117 3 81 2 87 -21 107 -13 11 -41 41 -62 68 -46 58 -73 72
-162 88 -90 15 -124 33 -124 64 0 27 42 65 74 65 11 0 57 -11 101 -25 138 -43
197 -29 158 37 -10 18 -34 43 -51 55 -62 41 -199 55 -276 28z"/>
<path d="M10962 8930 c-91 -17 -157 -66 -150 -112 3 -22 8 -23 86 -26 l82 -3
0 -264 0 -265 115 0 115 0 0 265 0 265 73 0 c74 0 97 9 97 40 0 25 -50 67
-100 85 -54 20 -242 28 -318 15z"/>
<path d="M10960 7765 l0 -365 100 0 100 0 0 365 0 365 -100 0 -100 0 0 -365z"/>
<path d="M10929 7261 c-89 -17 -149 -66 -149 -123 0 -36 28 -48 116 -48 l64 0
0 -265 0 -265 100 0 100 0 0 265 0 265 66 0 c81 0 104 11 104 50 0 40 -42 85
-98 105 -55 19 -234 28 -303 16z"/>
<path d="M10750 6135 l0 -244 97 -86 c115 -103 160 -128 229 -129 57 -1 87 16
186 104 82 73 85 87 94 363 l7 237 -77 0 -76 0 0 -143 c0 -162 -13 -290 -37
-348 -19 -49 -66 -89 -102 -89 -37 0 -89 36 -125 87 -27 39 -30 50 -37 175 -4
73 -8 175 -8 226 l-1 92 -75 0 -75 0 0 -245z"/>
<path d="M10934 5440 c-81 -9 -136 -31 -164 -68 -24 -30 -24 -36 -5 -56 10 -9
46 -17 104 -21 l89 -7 4 -237 c3 -258 11 -294 63 -307 40 -10 93 4 106 28 10
19 27 290 29 454 l0 62 106 7 c79 5 107 11 111 22 7 19 -61 91 -104 109 -40
17 -241 26 -339 14z"/>
<path d="M10830 4210 l0 -380 250 0 250 0 0 75 0 75 -160 0 -160 0 0 90 0 90
113 0 c75 0 117 4 125 12 19 19 15 86 -5 96 -10 6 -61 11 -113 14 -52 2 -101
7 -107 11 -8 5 -13 31 -13 67 0 70 -10 66 160 75 63 4 121 12 128 17 7 6 12
35 12 74 l0 64 -240 0 -240 0 0 -380z"/>
<path d="M5720 11117 c0 -8 9 -22 19 -31 23 -21 37 -6 21 24 -12 23 -40 27
-40 7z"/>
<path d="M5900 11021 c0 -22 15 -35 30 -26 7 4 7 13 0 26 -14 25 -30 25 -30 0z"/>
<path d="M5995 10670 c-11 -18 -65 -180 -65 -195 0 -22 16 -18 44 10 14 14 35
25 47 25 16 0 20 5 16 20 -3 11 -1 23 4 26 15 9 10 42 -11 84 -22 43 -25 46
-35 30z"/>
<path d="M6987 9525 c-8 -20 3 -47 17 -42 6 2 11 14 11 27 0 27 -20 38 -28 15z"/>
<path d="M8167 9400 c-14 -11 -34 -20 -46 -20 -11 0 -25 -9 -31 -19 -13 -26
-13 -29 6 -33 13 -2 10 -11 -15 -42 -17 -21 -31 -42 -31 -47 0 -8 37 -16 94
-21 27 -3 31 1 41 36 6 21 21 47 33 56 27 22 37 62 22 89 -14 26 -40 27 -73 1z"/>
<path d="M7320 9132 c0 -12 34 -42 48 -42 16 0 15 23 0 38 -14 14 -48 16 -48
4z"/>
<path d="M8215 8886 c-55 -17 -80 -32 -126 -73 -45 -41 -52 -73 -14 -73 16 0
36 14 62 45 50 60 74 60 113 -2 36 -56 47 -107 30 -128 -28 -34 46 -101 103
-93 32 4 41 62 32 212 l-7 126 -77 -1 c-42 0 -94 -6 -116 -13z"/>
<path d="M6925 7740 c-12 -19 7 -51 47 -81 68 -48 99 -33 62 31 -27 45 -93 76
-109 50z"/>
<path d="M6539 7659 c-8 -17 -18 -20 -45 -17 -27 3 -34 0 -34 -13 0 -24 38
-49 73 -49 62 0 114 52 87 85 -19 23 -67 19 -81 -6z"/>
<path d="M6695 7618 c-16 -65 53 -178 109 -178 32 0 33 14 4 38 -51 40 -67 62
-79 103 -16 57 -26 68 -34 37z"/>
<path d="M6860 7445 c0 -8 5 -15 10 -15 6 0 10 7 10 15 0 8 -4 15 -10 15 -5 0
-10 -7 -10 -15z"/>
<path d="M7420 6800 c0 -5 6 -10 14 -10 8 0 18 5 21 10 3 6 -3 10 -14 10 -12
0 -21 -4 -21 -10z"/>
<path d="M1950 9900 c0 -11 5 -20 10 -20 6 0 10 9 10 20 0 11 -4 20 -10 20 -5
0 -10 -9 -10 -20z"/>
<path d="M2552 9590 c-45 -27 -38 -49 23 -82 58 -31 85 -61 85 -93 0 -12 7
-29 16 -36 25 -20 57 23 48 65 -9 45 -54 125 -82 147 -31 24 -49 24 -90 -1z"/>
<path d="M3630 9707 c0 -8 7 -20 15 -27 12 -10 15 -10 15 3 0 8 -7 20 -15 27
-12 10 -15 10 -15 -3z"/>
<path d="M3913 9113 c-23 -8 -14 -42 22 -82 32 -35 34 -42 25 -67 -6 -16 -27
-48 -47 -72 -25 -30 -33 -49 -29 -65 10 -40 66 -105 124 -143 65 -42 112 -83
112 -97 0 -23 53 -76 94 -97 36 -17 49 -19 65 -10 46 24 19 75 -72 137 -52 36
-128 133 -163 208 -13 28 -28 83 -34 123 -15 107 -58 179 -97 165z"/>
<path d="M5524 7835 c-7 -18 3 -35 21 -35 15 0 28 27 19 41 -8 14 -34 11 -40
-6z"/>
<path d="M5595 7610 c-7 -12 12 -40 27 -40 13 0 6 43 -9 47 -6 2 -14 -1 -18
-7z"/>
<path d="M3630 5870 c-18 -11 -4 -42 17 -38 10 2 19 10 21 19 4 19 -19 31 -38
19z"/>
<path d="M5931 6498 c-16 -34 -41 -78 -55 -97 -29 -38 -33 -61 -12 -61 43 0
115 107 119 177 3 60 -20 51 -52 -19z"/>
<path d="M5803 6195 c-44 -44 -43 -79 3 -83 55 -5 122 69 94 103 -21 25 -60
17 -97 -20z"/>
<path d="M5846 5948 c-22 -31 -20 -140 4 -266 31 -159 27 -193 -34 -285 l-19
-28 51 -49 c70 -68 130 -106 144 -92 15 15 43 140 63 280 21 144 15 184 -45
302 -45 89 -103 160 -131 160 -10 0 -25 -10 -33 -22z"/>
<path d="M2725 5360 c-11 -18 16 -60 37 -60 30 0 21 64 -9 68 -11 2 -24 -2
-28 -8z"/>
<path d="M10112 5208 c-30 -30 0 -78 37 -58 32 17 21 70 -14 70 -6 0 -16 -5
-23 -12z"/>
<path d="M2478 5189 c-24 -14 -23 -46 3 -54 28 -9 66 2 73 21 14 35 -36 57
-76 33z"/>
<path d="M6002 5119 c-33 -12 -27 -35 20 -69 46 -33 66 -37 74 -15 18 46 -45
102 -94 84z"/>
<path d="M7981 4931 c-12 -8 -12 -12 -2 -25 16 -19 45 -21 60 -3 21 26 -25 48
-58 28z"/>
<path d="M10033 4933 c-34 -13 11 -66 68 -78 36 -8 59 8 59 41 0 17 -8 28 -26
34 -26 10 -80 12 -101 3z"/>
<path d="M7913 4833 c-18 -6 -16 -48 1 -62 19 -16 56 2 56 27 0 32 -26 48 -57
35z"/>
<path d="M8282 4822 c-46 -46 -33 -123 17 -107 21 6 45 70 39 103 -5 24 -34
26 -56 4z"/>
<path d="M9906 4824 c-9 -8 -16 -19 -16 -23 0 -16 38 -41 53 -35 22 8 31 42
17 59 -16 19 -35 19 -54 -1z"/>
<path d="M6130 4746 c0 -36 89 -86 152 -86 70 0 77 13 27 47 -74 50 -179 73
-179 39z"/>
<path d="M9253 4753 c-18 -7 -16 -52 3 -60 22 -8 94 15 101 34 3 8 0 19 -8 24
-15 9 -76 11 -96 2z"/>
<path d="M9601 4731 c-21 -14 -5 -41 24 -41 29 0 45 27 24 41 -8 5 -18 9 -24
9 -5 0 -16 -4 -24 -9z"/>
<path d="M9369 4644 c-16 -20 -1 -48 29 -52 30 -5 67 35 51 54 -15 19 -63 18
-80 -2z"/>
<path d="M9674 4545 c-8 -19 3 -35 25 -35 10 0 24 -7 31 -15 19 -23 7 -49 -28
-60 -37 -10 -44 -40 -11 -48 13 -4 28 2 42 16 12 12 40 27 62 32 58 16 58 40
1 66 -25 11 -50 29 -56 39 -13 23 -58 27 -66 5z"/>
<path d="M6210 4517 c0 -20 30 -57 46 -57 20 0 18 34 -4 53 -22 20 -42 22 -42
4z"/>
<path d="M8078 4514 c-41 -22 -36 -44 10 -44 41 0 82 23 82 46 0 19 -56 18
-92 -2z"/>
<path d="M9314 4419 c-3 -6 -2 -15 4 -21 13 -13 71 -13 84 0 18 18 -1 32 -42
32 -21 0 -42 -5 -46 -11z"/>
<path d="M10074 4418 c-10 -15 23 -37 46 -31 11 3 20 14 20 24 0 14 -7 19 -29
19 -17 0 -33 -5 -37 -12z"/>
<path d="M6020 4390 c-24 -24 -26 -68 -4 -77 41 -16 101 50 74 82 -17 21 -46
19 -70 -5z"/>
<path d="M5265 4339 c-25 -23 -45 -45 -45 -49 0 -12 111 25 121 41 5 8 9 22 9
32 0 30 -38 19 -85 -24z"/>
<path d="M3215 4323 c-37 -8 -75 -25 -75 -34 0 -31 186 -42 214 -13 9 8 16 17
16 19 0 2 -7 11 -16 19 -15 15 -89 20 -139 9z"/>
<path d="M8949 4311 c-20 -16 -21 -21 -10 -35 7 -9 22 -16 33 -16 33 0 78 29
78 50 0 17 -7 20 -39 20 -23 0 -48 -8 -62 -19z"/>
<path d="M9333 4308 c-25 -28 -43 -62 -43 -82 0 -17 43 -22 75 -10 20 8 45 56
45 89 0 21 -5 25 -28 25 -17 0 -37 -9 -49 -22z"/>
<path d="M2445 4310 c-14 -22 -8 -73 10 -86 43 -31 154 2 163 48 6 31 -156 66
-173 38z"/>
<path d="M5143 4265 c-7 -20 0 -27 20 -19 25 9 30 34 6 34 -11 0 -22 -7 -26
-15z"/>
<path d="M9899 4229 c-13 -18 -44 -52 -68 -75 -38 -38 -42 -46 -30 -60 18 -22
84 -13 115 17 44 41 59 140 23 147 -10 2 -27 -11 -40 -29z"/>
<path d="M2161 4216 c-11 -13 -9 -17 12 -27 34 -15 79 -4 75 19 -4 23 -70 29
-87 8z"/>
<path d="M5510 4209 c-48 -29 -90 -70 -90 -87 0 -24 89 -10 134 20 43 30 70
64 61 78 -11 17 -68 11 -105 -11z"/>
<path d="M6210 4220 c-13 -9 -12 -12 4 -25 11 -8 27 -15 36 -15 24 0 54 25 46
38 -9 15 -65 15 -86 2z"/>
<path d="M7015 4220 c-4 -7 -1 -19 8 -27 19 -19 59 -8 55 15 -4 20 -53 29 -63
12z"/>
<path d="M7220 4215 c-10 -12 -8 -16 15 -25 14 -5 32 -10 40 -10 8 0 26 5 40
10 40 15 15 40 -40 40 -25 0 -48 -6 -55 -15z"/>
<path d="M1910 4195 c-16 -19 -4 -35 26 -35 28 0 44 28 23 41 -20 13 -35 11
-49 -6z"/>
<path d="M2895 4159 c-25 -23 -54 -60 -64 -83 -20 -46 -85 -109 -133 -129 -70
-30 -89 -87 -29 -87 39 0 126 39 168 74 18 15 53 63 79 106 26 44 57 83 71 89
19 9 24 18 21 39 -2 22 -8 28 -35 30 -26 3 -41 -5 -78 -39z"/>
<path d="M5817 4153 c-10 -3 -17 -12 -15 -21 4 -23 70 -29 87 -8 11 13 9 17
-14 26 -28 10 -29 11 -58 3z"/>
<path d="M8035 4147 c-24 -18 -11 -37 25 -37 36 0 49 19 25 37 -11 7 -22 13
-25 13 -3 0 -14 -6 -25 -13z"/>
<path d="M3383 4123 c-22 -8 -14 -32 13 -39 14 -4 37 -1 51 5 21 9 23 14 13
26 -12 15 -52 19 -77 8z"/>
<path d="M6029 4103 c-6 -17 -7 -40 -2 -58 7 -24 14 -30 38 -30 26 0 30 4 41
49 7 28 11 53 8 58 -3 4 -21 8 -40 8 -28 0 -36 -5 -45 -27z"/>
<path d="M7623 4114 c-11 -29 39 -44 78 -23 16 8 18 13 8 25 -16 20 -78 18
-86 -2z"/>
<path d="M8654 4120 c-17 -6 -37 -16 -43 -24 -35 -42 110 -50 152 -8 11 12 18
24 14 28 -11 11 -91 14 -123 4z"/>
<path d="M9083 4069 c-32 -9 -59 -40 -46 -53 22 -22 143 10 143 37 0 27 -39
33 -97 16z"/>
<path d="M6583 4034 c-9 -24 10 -49 38 -49 20 0 24 5 24 30 0 25 -4 30 -28 33
-18 2 -29 -2 -34 -14z"/>
<path d="M8865 4040 c-13 -21 11 -31 61 -28 36 2 49 7 49 18 0 19 -99 27 -110
10z"/>
<path d="M9464 4039 c-3 -6 -2 -15 4 -21 13 -13 71 -13 84 0 18 18 -1 32 -42
32 -21 0 -42 -5 -46 -11z"/>
<path d="M6872 4018 c-30 -30 3 -77 40 -57 30 16 16 69 -17 69 -6 0 -16 -5
-23 -12z"/>
<path d="M7403 4024 c-33 -14 3 -81 58 -110 16 -8 34 -12 40 -8 15 9 5 82 -13
100 -15 15 -67 26 -85 18z"/>
<path d="M9804 4015 c-3 -8 -1 -30 6 -50 9 -27 17 -35 35 -35 13 0 35 -12 48
-26 16 -17 32 -25 48 -22 34 4 30 31 -8 47 -18 8 -35 22 -38 32 -17 53 -78 90
-91 54z"/>
<path d="M2007 3993 c-21 -20 17 -45 50 -32 31 11 19 39 -16 39 -15 0 -31 -3
-34 -7z"/>
<path d="M5800 3981 c0 -23 33 -33 56 -16 23 16 9 35 -27 35 -22 0 -29 -5 -29
-19z"/>
<path d="M9394 3938 c-6 -10 20 -38 35 -38 17 1 33 20 28 34 -7 18 -52 22 -63
4z"/>
<path d="M7550 3915 c-16 -19 -5 -35 24 -35 31 0 50 22 34 38 -16 16 -43 15
-58 -3z"/>
<path d="M8468 3919 c-10 -5 -18 -16 -18 -24 0 -15 27 -45 40 -45 11 0 40 29
40 40 0 10 -29 40 -38 40 -4 0 -15 -5 -24 -11z"/>
<path d="M6884 3890 c-11 -4 -62 -47 -113 -94 -161 -148 -220 -176 -372 -176
-49 0 -91 -5 -94 -10 -9 -14 59 -41 121 -47 126 -13 261 35 376 134 92 80 130
129 126 167 -3 33 -13 39 -44 26z"/>
<path d="M8153 3884 c-6 -15 11 -34 32 -34 6 0 16 4 24 9 21 14 5 41 -24 41
-14 0 -28 -7 -32 -16z"/>
<path d="M7805 3864 c-14 -14 -14 -19 -2 -38 8 -11 31 -30 51 -40 19 -11 38
-28 42 -38 4 -15 13 -18 37 -16 47 4 45 44 -3 74 -19 12 -46 34 -60 48 -30 30
-42 32 -65 10z"/>
<path d="M5164 3838 c-7 -12 21 -38 42 -38 17 0 37 27 29 40 -8 14 -62 13 -71
-2z"/>
<path d="M6086 3829 c-19 -28 -5 -49 33 -49 37 0 53 14 49 41 -4 34 -60 39
-82 8z"/>
<path d="M8834 3839 c-3 -6 1 -18 9 -27 13 -13 21 -13 41 -4 17 7 24 17 20 27
-7 17 -59 21 -70 4z"/>
<path d="M1926 3814 c-9 -8 -16 -30 -16 -48 0 -56 87 -157 155 -180 39 -14 85
-10 85 6 0 6 -31 40 -69 77 -43 41 -72 78 -77 96 -8 35 -31 65 -50 65 -7 0
-20 -7 -28 -16z"/>
<path d="M2403 3819 c-33 -10 -53 -43 -35 -61 5 -5 25 -6 45 -3 45 9 103 43
91 55 -15 15 -66 20 -101 9z"/>
<path d="M4737 3820 c-58 -10 -77 -24 -77 -57 0 -34 23 -38 80 -14 27 12 76
24 109 27 32 4 65 10 72 15 44 27 -83 47 -184 29z"/>
<path d="M9283 3820 c-13 -5 -23 -14 -23 -19 0 -24 100 -30 120 -6 10 12 8 16
-15 25 -31 12 -52 12 -82 0z"/>
<path d="M9787 3823 c-10 -3 -17 -12 -15 -21 4 -21 63 -29 85 -11 13 12 13 14
-3 26 -18 13 -34 15 -67 6z"/>
<path d="M3984 3810 c-30 -12 -38 -28 -23 -47 27 -31 159 4 159 42 0 12 -13
15 -57 14 -32 0 -68 -4 -79 -9z"/>
<path d="M10001 3781 c-13 -24 8 -55 34 -50 28 6 42 34 26 53 -18 22 -48 20
-60 -3z"/>
<path d="M3108 3769 c-22 -12 -23 -42 -2 -60 31 -26 70 25 44 56 -14 17 -19
18 -42 4z"/>
<path d="M5065 3740 c-9 -15 13 -40 35 -40 26 0 43 23 28 38 -15 15 -55 16
-63 2z"/>
<path d="M5853 3734 c-11 -29 39 -44 78 -23 16 8 18 13 8 25 -16 20 -78 18
-86 -2z"/>
<path d="M2812 3723 c-15 -3 -22 -10 -20 -21 4 -24 76 -30 84 -7 4 9 5 17 3
19 -9 8 -46 13 -67 9z"/>
<path d="M4340 3724 c-8 -3 -21 -8 -29 -10 -28 -9 10 -34 53 -34 47 0 76 14
61 29 -13 12 -66 21 -85 15z"/>
<path d="M7220 3714 c-89 -14 -124 -40 -98 -71 31 -37 227 13 236 60 3 15 -5
17 -55 16 -32 -1 -69 -3 -83 -5z"/>
<path d="M6984 3681 c-44 -20 -74 -54 -74 -83 0 -29 60 -23 106 10 51 37 68
58 60 77 -7 20 -42 19 -92 -4z"/>
<path d="M3147 3663 c-26 -25 11 -70 68 -83 41 -9 52 2 41 43 -8 34 -87 63
-109 40z"/>
<path d="M2546 3634 c-18 -18 -21 -40 -6 -49 16 -10 149 16 161 31 26 32 -125
49 -155 18z"/>
<path d="M7550 3635 c-14 -17 -5 -51 15 -59 8 -3 24 3 36 13 18 15 20 21 10
39 -13 25 -43 29 -61 7z"/>
<path d="M8454 3609 c-3 -6 -2 -15 4 -21 13 -13 71 -13 84 0 18 18 -1 32 -42
32 -21 0 -42 -5 -46 -11z"/>
<path d="M9247 3606 c-27 -7 -54 -22 -62 -33 -8 -11 -28 -23 -45 -26 -32 -7
-41 -31 -14 -41 36 -14 83 -6 110 19 19 17 38 25 64 25 41 0 64 19 58 47 -4
23 -47 26 -111 9z"/>
<path d="M2343 3593 c-22 -8 -14 -32 12 -39 33 -8 75 3 75 20 0 22 -52 34 -87
19z"/>
<path d="M2927 3585 c-60 -15 -73 -27 -52 -45 17 -14 104 -18 124 -6 18 11 13
53 -7 58 -10 3 -39 0 -65 -7z"/>
<path d="M9516 3590 c-38 -7 -59 -25 -52 -45 1 -5 33 -10 70 -10 53 0 70 -4
80 -17 7 -10 23 -18 34 -18 26 0 64 47 60 74 -3 19 -11 21 -78 23 -41 0 -92
-2 -114 -7z"/>
<path d="M3632 3560 c-28 -12 -40 -39 -21 -51 22 -14 85 -10 99 6 6 8 10 22 8
32 -4 21 -50 28 -86 13z"/>
<path d="M8742 3538 c-18 -18 -14 -46 9 -58 26 -14 49 3 49 35 0 32 -35 46
-58 23z"/>
<path d="M9981 3541 c-23 -15 -5 -43 26 -39 20 2 28 9 28 23 0 22 -31 31 -54
16z"/>
<path d="M5700 3502 c0 -25 25 -35 51 -21 28 15 18 33 -19 37 -26 3 -32 0 -32
-16z"/>
<path d="M8011 3491 c-21 -14 -5 -41 24 -41 29 0 45 27 24 41 -8 5 -18 9 -24
9 -5 0 -16 -4 -24 -9z"/>
<path d="M6450 6018 c-19 -42 -26 -111 -14 -142 4 -10 18 -16 38 -16 17 0 42
-7 54 -16 13 -9 30 -13 38 -10 35 13 58 132 34 177 -14 25 -62 49 -100 49 -27
0 -34 -6 -50 -42z"/>
<path d="M7201 5078 c-18 -57 -30 -156 -22 -185 19 -72 73 3 72 100 -1 104
-29 151 -50 85z"/>
<path d="M2273 3141 c-72 -24 -122 -66 -146 -120 -26 -59 -33 -197 -29 -573
l4 -288 89 0 89 0 0 266 0 266 70 -4 c86 -5 120 -30 120 -88 0 -49 -29 -84
-97 -118 l-55 -28 69 -56 c69 -56 122 -88 144 -88 7 0 23 9 35 21 28 26 91 35
138 19 53 -17 66 -35 66 -89 0 -56 19 -79 72 -87 51 -9 95 17 107 64 6 20 11
98 11 172 1 184 12 262 44 309 14 20 26 42 26 49 0 26 -48 43 -119 43 -122 0
-155 -34 -107 -106 37 -54 35 -104 -4 -144 -33 -32 -84 -47 -126 -37 -29 8
-54 57 -54 108 0 42 6 49 58 82 49 30 53 49 16 73 -21 13 -67 19 -226 28 -208
11 -217 13 -218 58 0 10 7 33 15 53 19 46 78 73 161 74 80 0 124 9 124 26 0
16 -113 98 -163 119 -45 19 -50 18 -114 -4z"/>
<path d="M4424 3096 c-24 -24 -44 -47 -44 -52 0 -5 20 -20 45 -33 52 -28 102
-90 111 -139 11 -58 -10 -58 -44 0 -49 88 -140 158 -206 158 -30 0 -69 -50
-64 -82 2 -16 13 -25 39 -31 39 -9 88 -52 75 -64 -4 -5 -76 -11 -159 -14 -84
-4 -164 -11 -178 -17 -60 -24 -89 -104 -52 -144 13 -14 19 -46 24 -126 3 -59
11 -119 17 -133 25 -64 151 -134 216 -122 18 4 50 -5 94 -25 48 -22 90 -33
147 -38 93 -8 116 -18 168 -73 48 -51 72 -53 81 -8 3 17 9 150 12 295 l7 262
166 -1 c177 -1 216 -6 216 -29 0 -12 -20 -16 -87 -20 -122 -8 -168 -44 -188
-150 -18 -97 6 -175 70 -222 15 -11 56 -22 104 -28 78 -10 121 -28 189 -82 21
-17 32 -20 45 -12 31 19 52 76 52 140 0 50 5 68 31 108 l30 49 34 -50 c64 -95
200 -190 283 -197 44 -4 61 -12 80 -38 18 -24 35 -23 69 6 l28 24 6 234 c6
253 16 308 58 308 27 0 85 -52 105 -94 27 -56 21 -92 -20 -130 -31 -28 -36
-40 -36 -75 1 -65 43 -143 121 -222 38 -39 75 -69 83 -67 22 7 22 77 0 107
-25 35 -33 70 -21 93 24 45 172 5 298 -80 32 -23 76 -44 97 -47 42 -8 74 -25
105 -56 16 -16 23 -18 35 -9 23 20 33 77 39 230 4 80 13 187 21 237 25 164 20
177 -73 189 -32 4 -485 8 -1008 8 -522 1 -958 5 -967 9 -9 5 -19 26 -23 50
-11 65 -62 180 -96 215 -45 46 -80 43 -135 -12z m1243 -417 c16 -30 17 -140 2
-194 -13 -47 -45 -85 -71 -85 -22 0 -23 14 -3 69 10 29 12 64 8 124 -5 71 -3
85 12 100 21 22 36 18 52 -14z m568 12 c94 -43 130 -102 83 -135 -62 -44 -154
1 -165 81 -10 76 8 88 82 54z m280 -5 c38 -38 46 -167 14 -227 -10 -19 -12
-20 -29 -4 -15 14 -90 220 -90 248 0 4 18 7 40 7 30 0 47 -7 65 -24z m-2161
-27 c-52 -41 -88 -59 -118 -59 -48 0 -76 58 -38 79 9 6 57 11 106 11 l89 0
-39 -31z m1091 6 c14 -13 25 -29 25 -35 0 -22 -49 -60 -78 -60 -38 0 -82 35
-82 65 0 54 91 74 135 30z m-341 -111 c18 -47 -3 -114 -52 -166 -33 -36 -44
-35 -76 3 -39 46 -34 74 23 130 50 51 93 64 105 33z m-916 -34 c63 -49 67 -56
43 -69 -50 -27 -108 8 -118 72 -8 49 10 49 75 -3z m310 -36 c2 -24 -6 -43 -38
-82 -22 -29 -47 -52 -55 -52 -8 0 -29 13 -47 29 l-33 30 35 37 c75 78 133 95
138 38z"/>
<path d="M3409 3040 c-35 -34 -33 -58 9 -102 18 -20 36 -28 70 -30 48 -3 79
-31 63 -56 -11 -17 -114 -32 -232 -32 -209 0 -276 -40 -194 -113 19 -17 35
-36 35 -43 0 -7 -23 -26 -50 -43 -28 -17 -55 -43 -60 -57 -15 -38 -12 -87 6
-113 28 -40 127 -68 136 -39 5 15 96 13 146 -3 20 -6 47 -21 59 -32 l23 -20
71 33 c58 26 75 30 94 22 23 -11 27 -22 41 -112 5 -33 16 -55 44 -83 73 -72
89 -34 110 258 11 141 24 251 37 302 4 19 -2 26 -42 43 -32 14 -74 49 -138
116 -86 90 -146 134 -182 134 -9 0 -30 -13 -46 -30z m-69 -320 c10 -18 21 -20
110 -20 87 0 103 -3 120 -20 25 -25 27 -88 3 -97 -24 -9 -172 14 -199 32 -28
18 -78 101 -69 115 10 16 23 12 35 -10z"/>
<path d="M9233 2849 c-18 -5 -40 -21 -50 -35 -15 -24 -15 -29 16 -102 17 -42
31 -85 31 -94 0 -10 -13 -32 -28 -50 -50 -58 -62 -82 -62 -120 0 -31 7 -45 39
-77 65 -65 171 -79 230 -32 43 35 71 46 89 35 9 -5 32 -40 50 -78 27 -54 45
-76 95 -113 34 -25 94 -61 132 -79 65 -32 71 -33 83 -17 6 9 12 23 12 30 0 18
-53 75 -99 107 -59 41 -63 60 -59 268 l3 183 33 68 c18 37 31 71 27 77 -3 5
-22 14 -43 21 -49 14 -457 22 -499 8z m230 -123 c45 -19 68 -48 73 -93 6 -51
-5 -64 -58 -70 -73 -8 -88 6 -88 82 0 44 5 68 16 79 19 19 17 19 57 2z m-136
-258 c50 -47 2 -107 -49 -61 -22 20 -23 46 -2 67 20 21 23 20 51 -6z"/>
<path d="M7382 2843 c-12 -2 -38 -20 -58 -38 -30 -28 -34 -37 -25 -54 13 -23
54 -37 137 -46 109 -12 110 -28 1 -39 -107 -11 -174 -64 -197 -157 -21 -85 23
-184 125 -275 98 -89 180 -152 206 -159 32 -8 72 23 99 76 25 48 25 60 0 108
-35 70 -59 81 -170 81 -104 0 -130 11 -130 58 0 35 46 80 90 87 21 4 44 13 51
21 7 9 31 14 65 14 77 0 102 25 114 112 12 83 27 118 53 118 17 0 18 2 6 17
-20 24 -85 50 -154 61 -79 14 -184 21 -213 15z"/>
<path d="M8667 2841 c-36 -8 -66 -33 -67 -57 0 -26 36 -39 126 -44 80 -5 97
-9 119 -30 27 -26 32 -52 13 -68 -14 -11 -76 -31 -180 -57 -87 -22 -123 -53
-115 -101 10 -63 72 -124 126 -124 11 0 31 12 44 26 18 19 30 24 46 19 36 -11
81 -55 106 -104 37 -73 122 -138 147 -113 25 25 38 625 14 649 -10 11 -331 14
-379 4z"/>
<path d="M50 740 l0 -730 5945 0 5945 0 0 730 0 730 -5945 0 -5945 0 0 -730z
m11610 0 l0 -510 -5650 0 -5650 0 0 510 0 510 5650 0 5650 0 0 -510z"/>
<path d="M9912 1114 c-59 -29 -92 -65 -92 -100 0 -31 27 -44 94 -44 l56 0 0
-265 0 -265 100 0 100 0 0 265 0 265 63 0 c98 0 114 33 48 99 -51 51 -117 71
-231 71 -73 0 -94 -4 -138 -26z"/>
<path d="M8204 1110 c-89 -10 -110 -16 -120 -38 -4 -9 -10 -155 -12 -324 l-4
-308 65 0 c40 0 68 5 74 13 6 6 13 68 16 136 7 134 16 159 56 146 37 -11 83
-57 102 -103 21 -48 118 -156 161 -178 34 -17 78 -18 79 -1 3 27 -4 45 -42
102 -21 34 -41 74 -44 90 -3 17 3 74 14 129 12 54 21 113 21 131 0 39 -38 94
-105 153 -70 61 -105 68 -261 52z m201 -160 c23 -19 18 -54 -11 -81 -21 -19
-36 -24 -79 -23 -61 0 -85 15 -85 54 0 29 22 55 55 63 31 9 103 1 120 -13z"/>
<path d="M8960 1109 c-39 -12 -104 -69 -126 -111 -34 -64 -3 -142 82 -207 36
-27 57 -35 110 -40 69 -8 88 -21 100 -67 7 -28 -21 -94 -40 -94 -8 0 -32 14
-52 32 -29 26 -46 33 -94 36 -73 5 -100 -8 -100 -50 0 -44 78 -118 154 -147
107 -40 166 -24 245 65 71 81 108 189 80 240 -27 51 -213 154 -278 154 -35 0
-36 22 -2 52 35 32 55 35 77 13 18 -18 49 -19 93 -4 66 23 58 78 -16 111 -55
25 -178 33 -233 17z"/>
<path d="M9460 780 l0 -340 90 0 90 0 0 340 0 340 -90 0 -90 0 0 -340z"/>
<path d="M10466 1085 c-30 -31 -20 -64 47 -148 15 -19 52 -81 83 -137 30 -57
66 -116 79 -132 22 -26 25 -39 25 -103 0 -41 4 -85 10 -99 9 -24 15 -26 64
-26 31 0 58 5 63 12 6 7 13 47 17 88 7 84 35 152 109 267 66 103 107 188 107
222 0 38 -31 61 -84 61 -42 0 -74 -27 -159 -133 -21 -26 -45 -47 -53 -47 -8 0
-45 29 -83 64 -114 108 -190 145 -225 111z"/>
<path d="M7520 764 l0 -325 229 3 c126 2 231 5 234 8 14 15 15 48 3 65 -12 17
-30 20 -128 23 -62 2 -119 9 -125 14 -7 6 -13 30 -13 54 0 49 -5 45 105 61
l60 8 3 59 c2 32 -1 63 -6 68 -5 5 -38 12 -73 15 -35 3 -70 10 -76 16 -8 5
-13 32 -13 63 0 49 2 55 26 64 14 6 69 10 122 10 53 0 104 5 112 10 9 5 15 25
15 50 0 25 -6 45 -15 50 -8 5 -115 10 -237 10 l-223 0 0 -326z"/>
<path d="M5870 755 l0 -315 123 0 c181 0 309 37 336 97 6 13 27 31 46 39 44
18 50 39 50 179 -1 125 -11 153 -72 204 -89 74 -216 110 -390 111 l-93 0 0
-315z m309 160 c60 -30 101 -77 101 -115 0 -44 -41 -139 -76 -176 -29 -31 -36
-34 -93 -34 l-61 0 0 150 c0 92 4 159 12 175 15 33 53 33 117 0z"/>
<path d="M6530 755 l0 -315 90 0 90 0 0 315 0 315 -90 0 -90 0 0 -315z"/>
<path d="M6846 1048 c-9 -12 -16 -36 -16 -51 0 -52 67 -231 144 -384 63 -128
79 -152 106 -163 28 -11 34 -11 58 7 77 56 278 554 242 599 -13 15 -76 19 -97
6 -6 -4 -20 -35 -32 -69 -22 -65 -80 -171 -105 -193 -9 -7 -22 -10 -30 -7 -22
9 -80 92 -123 175 -20 41 -46 80 -57 88 -31 21 -72 17 -90 -8z"/>
<path d="M3281 1014 c-39 -49 -29 -75 65 -176 47 -50 93 -105 101 -122 12 -22
18 -67 21 -153 l4 -123 84 0 84 0 0 63 c1 163 18 220 101 332 45 61 79 127 79
154 0 33 -39 52 -80 41 -47 -13 -106 -63 -130 -111 -34 -66 -106 -66 -139 0
-11 21 -41 57 -67 80 -56 49 -93 54 -123 15z"/>
<path d="M4430 740 l0 -300 90 0 90 0 0 300 0 300 -90 0 -90 0 0 -300z"/>
<path d="M4753 1013 c-16 -23 -18 -60 -21 -300 l-4 -273 91 0 91 0 0 168 1
167 112 -115 c62 -63 117 -126 123 -140 6 -14 16 -37 23 -52 10 -27 14 -28 76
-28 l65 0 0 300 0 300 -85 0 -85 0 0 -135 c0 -74 -3 -135 -6 -135 -3 0 -68 54
-144 119 -129 111 -184 151 -209 151 -6 0 -18 -12 -28 -27z"/>
<path d="M892 843 c6 -200 22 -272 81 -359 51 -75 87 -89 237 -89 141 0 175
12 218 75 45 67 55 122 60 343 l4 207 -84 0 -85 0 -6 -122 c-4 -66 -7 -165 -7
-220 l0 -98 -104 0 -104 0 -7 220 -8 220 -99 0 -100 0 4 -177z"/>
<path d="M1620 715 l0 -305 90 0 90 0 0 131 c0 72 5 139 10 150 24 45 65 13
173 -133 66 -89 130 -148 160 -148 52 1 52 -3 55 315 l3 295 -69 0 c-39 0 -75
-5 -84 -12 -11 -9 -17 -39 -22 -102 -3 -48 -10 -95 -15 -103 -9 -17 -34 2
-158 119 -80 76 -121 98 -188 98 l-45 0 0 -305z"/>
<path d="M2330 715 l0 -305 90 0 90 0 0 305 0 305 -90 0 -90 0 0 -305z"/>
<path d="M2811 1010 c-68 -14 -114 -43 -136 -84 -26 -47 -14 -56 73 -56 l62 0
0 -230 0 -230 90 0 90 0 0 214 c0 238 2 246 64 246 35 0 56 15 56 41 0 25 -56
75 -99 88 -55 16 -149 21 -200 11z"/>
</g>
</svg>
