<?xml version="1.0" standalone="no"?>
<!DOCTYPE svg PUBLIC "-//W3C//DTD SVG 20010904//EN"
 "http://www.w3.org/TR/2001/REC-SVG-20010904/DTD/svg10.dtd">
<svg version="1.0" xmlns="http://www.w3.org/2000/svg"
 width="400.000000pt" height="400.000000pt" viewBox="0 0 400.000000 400.000000"
 preserveAspectRatio="xMidYMid meet">
<metadata>
Created by potrace 1.16, written by Peter Selinger 2001-2019
</metadata>
<g transform="translate(0.000000,400.000000) scale(0.100000,-0.100000)"
fill="#000000" stroke="none">
<path d="M1741 3285 c-356 -56 -664 -274 -800 -566 -73 -157 -104 -355 -63
-392 10 -10 30 -17 44 -17 38 0 58 29 58 86 0 70 36 207 76 287 136 272 419
454 759 487 141 14 169 24 173 65 8 63 -65 78 -247 50z"/>
<path d="M1730 3081 c-280 -60 -509 -234 -620 -474 -131 -281 -69 -608 160
-838 358 -360 981 -353 1326 14 154 164 224 350 211 567 -20 353 -300 652
-682 731 -116 24 -280 24 -395 0z m399 -66 c329 -77 571 -326 612 -631 34
-256 -95 -521 -329 -674 -158 -104 -319 -146 -527 -137 -155 7 -241 28 -365
93 -202 104 -334 262 -391 469 -30 110 -24 276 14 383 92 261 326 450 630 508
90 17 257 12 356 -11z"/>
<path d="M1859 2871 c-48 -49 -34 -114 31 -141 29 -12 30 -15 30 -77 0 -42 -4
-65 -12 -67 -97 -26 -129 -40 -162 -71 -21 -19 -44 -35 -50 -35 -6 0 -33 13
-61 28 -45 24 -51 31 -56 69 -6 50 -20 69 -63 83 -60 19 -126 -20 -126 -76 0
-46 8 -63 41 -79 37 -19 74 -19 108 1 26 15 30 15 90 -15 55 -28 61 -34 54
-54 -10 -28 -9 -155 1 -184 7 -19 1 -25 -55 -53 -60 -31 -64 -31 -90 -16 -40
24 -83 20 -118 -10 -75 -63 -3 -176 93 -144 45 14 59 32 65 83 6 39 10 44 65
73 l59 31 39 -38 c21 -21 58 -44 81 -52 l42 -14 3 -71 3 -72 -35 0 c-39 0 -94
-39 -82 -58 4 -7 33 -29 64 -48 31 -20 72 -55 91 -77 94 -108 265 -103 346 12
27 39 30 49 30 129 l0 87 -145 5 -145 5 -3 42 c-3 40 -2 42 40 61 24 10 61 34
82 52 l38 33 64 -31 c58 -29 64 -35 58 -56 -20 -79 94 -135 160 -77 85 74 -24
194 -123 135 -26 -15 -30 -15 -90 16 -47 23 -61 35 -57 47 27 70 28 131 2 194
-5 12 8 24 55 49 60 32 63 32 89 16 56 -33 126 -13 149 43 20 48 -13 101 -72
115 -60 14 -129 -50 -112 -103 5 -18 -3 -25 -59 -53 l-64 -31 -38 32 c-42 37
-114 71 -150 71 -23 0 -24 3 -24 70 0 58 3 72 18 77 68 24 85 102 31 147 -43
36 -91 35 -130 -3z m166 -401 c94 -58 91 -205 -5 -255 l-30 -16 0 48 c0 54 -5
65 -37 82 -31 16 -41 14 -68 -14 -18 -18 -25 -35 -25 -65 0 -46 -7 -48 -44
-19 -97 76 -62 219 63 260 41 13 106 4 146 -21z m-67 -304 c1 -82 7 -145 14
-153 8 -10 48 -13 154 -13 l144 0 0 -60 c0 -131 -72 -210 -190 -210 -84 0
-153 44 -179 113 -12 32 -15 449 -4 461 4 4 19 6 33 4 l25 -3 3 -139z"/>
<path d="M1690 1180 l0 -60 -140 0 c-136 0 -142 -1 -165 -25 -24 -23 -25 -29
-25 -158 0 -121 2 -137 21 -161 l20 -26 170 0 169 0 0 245 0 245 -25 0 c-24 0
-25 -3 -25 -60z m-5 -245 l0 -130 -135 0 -135 0 -3 124 c-2 93 1 127 10 133 7
4 69 7 138 6 l125 -3 0 -130z"/>
<path d="M800 980 l0 -230 25 0 25 0 0 230 0 230 -25 0 -25 0 0 -230z"/>
<path d="M2250 980 l0 -230 25 0 25 0 2 201 3 201 94 -114 c52 -62 99 -119
106 -126 8 -9 35 17 115 114 l105 127 3 -202 2 -201 25 0 25 0 0 230 0 230
-35 0 c-32 0 -42 -9 -132 -115 l-98 -116 -20 24 c-167 200 -175 207 -210 207
l-35 0 0 -230z"/>
<path d="M2850 980 l0 -230 230 0 230 0 0 25 0 25 -205 0 -205 0 0 205 0 205
-25 0 -25 0 0 -230z"/>
<path d="M930 935 l0 -185 25 0 24 0 3 158 3 157 135 0 135 0 3 -157 3 -158
24 0 25 0 0 160 c0 157 -1 161 -25 185 -24 25 -27 25 -190 25 l-165 0 0 -185z"/>
<path d="M1826 1099 c-26 -20 -26 -21 -26 -163 0 -192 -6 -186 189 -186 141 0
142 0 166 26 24 26 25 33 25 151 0 129 -11 174 -45 187 -9 3 -76 6 -149 6
-120 0 -136 -2 -160 -21z m292 -41 c14 -14 17 -225 4 -246 -7 -9 -41 -12 -138
-10 l-129 3 -3 119 c-1 66 0 126 2 133 7 18 246 19 264 1z"/>
</g>
</svg>
