<?xml version="1.0" standalone="no"?>
<!DOCTYPE svg PUBLIC "-//W3C//DTD SVG 20010904//EN"
 "http://www.w3.org/TR/2001/REC-SVG-20010904/DTD/svg10.dtd">
<svg version="1.0" xmlns="http://www.w3.org/2000/svg"
 width="512.000000pt" height="512.000000pt" viewBox="0 0 512.000000 512.000000"
 preserveAspectRatio="xMidYMid meet">
<metadata>
Created by potrace 1.16, written by Peter Selinger 2001-2019
</metadata>
<g transform="translate(0.000000,512.000000) scale(0.100000,-0.100000)"
fill="#000000" stroke="none">
<path d="M2438 5060 c-127 -32 -255 -140 -313 -262 -67 -142 -67 -293 1 -437
l35 -75 -243 -243 c-134 -134 -246 -243 -250 -243 -9 0 -639 329 -650 339 -3
3 -1 31 5 61 16 80 -3 196 -48 286 -162 331 -626 363 -836 58 -15 -23 -40 -76
-54 -117 -79 -238 30 -509 247 -612 197 -94 422 -56 585 98 l52 49 291 -152
c159 -83 290 -155 290 -158 0 -4 -157 -164 -349 -356 l-349 -349 -35 22 c-178
110 -446 79 -595 -71 -98 -97 -142 -206 -142 -348 0 -373 362 -603 699 -444
l75 35 347 -347 348 -348 -297 -155 -297 -156 -38 42 c-152 166 -430 195 -627
66 -110 -73 -184 -172 -209 -284 -15 -65 -13 -197 4 -264 71 -271 368 -418
646 -320 99 35 206 130 255 227 49 97 62 202 41 351 -1 14 66 53 311 182 173
91 317 165 320 165 4 0 119 -112 256 -249 l248 -248 -25 -44 c-124 -217 -58
-513 143 -648 85 -56 170 -81 281 -81 311 0 526 262 476 580 l-7 45 577 292
576 292 63 -58 c96 -91 203 -132 337 -130 220 2 398 137 461 348 20 69 21 226
1 300 -38 144 -130 256 -261 318 -78 37 -81 38 -199 38 -132 -1 -183 -15 -274
-76 -31 -21 -49 -28 -61 -22 -24 12 -730 595 -730 603 0 6 699 586 727 603 8
5 34 -5 71 -27 83 -51 135 -67 238 -73 160 -10 269 30 375 136 100 101 138
195 139 347 1 265 -183 460 -450 480 -139 11 -285 -42 -379 -136 l-50 -50
-578 297 c-318 163 -579 297 -580 298 -2 1 2 29 8 63 16 89 -2 208 -44 297
-50 103 -121 176 -223 227 -81 40 -89 42 -192 44 -59 2 -124 -1 -144 -6z m165
-311 c83 -23 147 -118 132 -196 -22 -120 -149 -187 -253 -134 -110 57 -133
186 -49 277 18 19 50 41 72 49 49 17 51 17 98 4z m-1996 -324 c48 -20 71 -41
94 -87 26 -50 24 -84 -7 -147 -49 -97 -137 -132 -233 -91 -55 24 -71 44 -90
118 -22 80 22 166 104 203 49 23 84 24 132 4z m2931 -440 l571 -290 -7 -40
c-15 -87 -6 -207 21 -273 l25 -63 -187 -157 c-102 -87 -275 -233 -384 -325
l-198 -167 -192 159 c-106 87 -191 165 -190 172 1 8 12 41 24 74 44 119 25
291 -46 410 -32 56 -131 146 -189 174 -191 89 -415 58 -568 -79 l-53 -47 -173
86 c-94 47 -171 89 -170 93 2 3 104 110 227 237 l223 232 32 -19 c191 -113
452 -84 601 68 27 27 52 49 55 48 3 -2 263 -133 578 -293z m1143 -294 c110
-69 110 -218 1 -295 -108 -77 -272 7 -272 139 1 146 151 232 271 156z m-2780
-207 l190 -96 -7 -31 c-4 -18 -10 -68 -13 -112 l-6 -79 -550 -182 c-465 -154
-551 -179 -559 -167 -6 12 78 102 365 389 206 206 378 374 382 374 4 0 94 -43
198 -96z m737 -98 c56 -29 102 -104 102 -163 -1 -85 -77 -164 -165 -171 -80
-7 -136 23 -169 91 -30 59 -32 93 -11 144 32 76 85 113 163 113 29 0 65 -6 80
-14z m-489 -419 c32 -52 132 -142 189 -171 153 -77 315 -73 478 13 l73 38 178
-149 c98 -82 178 -153 178 -158 0 -5 -80 -72 -178 -148 l-178 -140 -49 33
c-149 100 -349 112 -511 29 -64 -32 -142 -104 -176 -161 -14 -24 -27 -43 -30
-43 -3 0 -251 81 -551 180 l-547 180 0 90 0 90 110 35 c61 19 304 97 540 174
237 76 435 140 442 140 6 1 21 -14 32 -32z m-1552 -252 c48 -20 71 -41 94 -87
25 -48 24 -91 -2 -146 -25 -51 -81 -91 -137 -99 -83 -11 -176 55 -196 140 -16
66 35 155 109 188 49 23 84 24 132 4z m3153 -578 c195 -160 367 -301 381 -314
l26 -24 -23 -48 c-36 -75 -50 -175 -36 -262 6 -41 10 -74 9 -75 -1 0 -261
-132 -577 -292 l-574 -292 -46 44 c-162 159 -410 190 -605 75 l-31 -18 -234
234 c-129 129 -232 236 -230 238 3 2 84 45 181 95 l175 91 49 -49 c140 -142
375 -181 563 -93 68 32 170 127 204 190 64 118 80 284 39 398 -12 33 -23 66
-24 74 -3 16 374 330 388 323 6 -3 170 -136 365 -295z m-1890 -125 l205 -69 1
-64 c0 -35 4 -82 8 -104 l7 -41 -198 -97 c-109 -53 -202 -97 -208 -98 -5 0
-173 165 -371 368 -298 303 -360 370 -351 383 9 15 48 4 356 -96 190 -63 438
-144 551 -182z m805 14 c40 -31 74 -94 75 -139 0 -36 -25 -95 -53 -125 -34
-37 -71 -52 -128 -52 -191 0 -245 243 -74 335 47 25 134 16 180 -19z m1996
-312 c39 -19 77 -69 90 -116 18 -70 -27 -155 -105 -195 -71 -37 -201 10 -232
82 -64 153 99 304 247 229z m-4064 -699 c21 -9 46 -23 56 -33 29 -26 57 -87
57 -123 0 -50 -37 -117 -80 -146 -57 -37 -107 -40 -172 -10 -115 52 -138 172
-51 268 51 57 121 73 190 44z m2042 -335 c110 -55 129 -184 42 -271 -64 -65
-144 -71 -229 -19 -37 23 -72 88 -72 135 0 36 30 104 56 126 60 51 138 63 203
29z"/>
</g>
</svg>
