<?xml version="1.0" standalone="no"?>
<!DOCTYPE svg PUBLIC "-//W3C//DTD SVG 20010904//EN"
 "http://www.w3.org/TR/2001/REC-SVG-20010904/DTD/svg10.dtd">
<svg version="1.0" xmlns="http://www.w3.org/2000/svg"
 width="200.000000pt" height="200.000000pt" viewBox="0 0 200.000000 200.000000"
 preserveAspectRatio="xMidYMid meet">
<metadata>
Created by potrace 1.16, written by Peter Selinger 2001-2019
</metadata>
<g transform="translate(0.000000,200.000000) scale(0.100000,-0.100000)"
fill="#000000" stroke="none">
<path d="M668 1924 c-36 -19 -48 -43 -48 -94 0 -33 6 -48 30 -72 28 -27 30
-35 30 -102 l0 -73 -80 -5 c-128 -7 -171 -50 -178 -178 l-5 -80 -74 0 c-70 0
-76 2 -99 29 -49 59 -141 45 -170 -25 -30 -72 18 -144 98 -144 33 0 46 6 74
35 31 34 36 35 103 35 l71 0 0 -105 0 -105 -79 0 c-70 0 -80 2 -86 19 -3 11
-22 27 -42 36 -73 35 -148 -15 -148 -98 0 -54 47 -97 106 -97 35 0 47 6 75 35
31 34 36 35 103 35 l71 0 0 -105 0 -105 -79 0 c-70 0 -80 2 -86 19 -6 20 -61
51 -90 51 -57 0 -113 -72 -100 -131 10 -43 58 -79 107 -79 33 0 46 6 74 35 31
33 36 35 102 35 l69 0 5 -85 c3 -65 9 -92 24 -112 40 -53 68 -66 154 -71 l80
-5 0 -73 c0 -67 -2 -75 -30 -102 -24 -25 -30 -39 -30 -74 0 -54 19 -83 65 -98
26 -9 44 -9 70 0 46 15 65 44 65 98 0 35 -6 49 -30 74 -28 27 -30 35 -30 104
l0 74 100 0 100 0 0 -74 c0 -69 -2 -77 -30 -104 -24 -25 -30 -39 -30 -74 0
-54 19 -83 65 -98 26 -9 44 -9 70 0 46 15 65 44 65 98 0 35 -6 49 -30 74 -28
27 -30 35 -30 104 l0 74 100 0 100 0 0 -74 c0 -69 -2 -77 -30 -104 -24 -25
-30 -39 -30 -74 0 -54 19 -83 65 -98 73 -24 135 22 135 100 0 33 -6 48 -30 72
-28 27 -30 35 -30 102 l0 73 80 5 c128 7 171 50 178 178 l5 80 74 0 c70 0 76
-2 99 -29 49 -59 141 -45 170 25 30 72 -18 144 -98 144 -33 0 -46 -6 -74 -35
-31 -34 -36 -35 -103 -35 l-71 0 0 105 0 105 79 0 c70 0 80 -2 86 -19 3 -11
22 -27 42 -36 73 -35 148 15 148 98 0 54 -47 97 -106 97 -35 0 -47 -6 -75 -35
-31 -34 -36 -35 -103 -35 l-71 0 0 105 0 105 79 0 c70 0 80 -2 86 -19 3 -11
22 -27 42 -36 73 -35 148 15 148 98 0 54 -47 97 -106 97 -35 0 -47 -6 -75 -35
-31 -33 -36 -35 -102 -35 l-69 0 -5 85 c-3 65 -9 92 -24 112 -40 53 -68 66
-154 71 l-80 5 0 73 c0 67 2 75 30 102 40 40 43 110 6 147 -32 32 -85 41 -124
21 -39 -20 -52 -44 -52 -96 0 -33 6 -48 30 -72 28 -27 30 -35 30 -104 l0 -74
-100 0 -100 0 0 74 c0 69 2 77 30 104 58 58 33 158 -44 178 -103 25 -171 -102
-96 -178 28 -27 30 -35 30 -104 l0 -74 -100 0 -100 0 0 74 c0 69 2 77 30 104
24 24 30 39 30 72 0 52 -13 76 -50 95 -36 19 -67 19 -102 -1z m792 -464 c19
-19 20 -33 20 -460 0 -427 -1 -441 -20 -460 -19 -19 -33 -20 -460 -20 -427 0
-441 1 -460 20 -19 19 -20 33 -20 460 0 427 1 441 20 460 19 19 33 20 460 20
427 0 441 -1 460 -20z"/>
<path d="M920 1411 c-21 -21 -46 -62 -56 -90 -11 -32 -23 -50 -30 -47 -36 14
-142 27 -173 21 -117 -21 -128 -112 -30 -234 l49 -61 -50 -62 c-98 -121 -86
-213 29 -233 33 -5 138 7 175 21 7 3 19 -15 30 -47 10 -28 35 -69 56 -90 32
-34 43 -39 80 -39 37 0 48 5 80 39 21 21 46 62 56 90 11 32 23 50 30 47 36
-14 142 -27 173 -21 117 21 128 112 30 234 l-49 61 49 61 c98 122 87 213 -30
234 -31 6 -137 -7 -173 -21 -7 -3 -19 15 -30 47 -10 28 -35 69 -56 90 -32 34
-43 39 -80 39 -37 0 -48 -5 -80 -39z m108 -54 c20 -21 52 -86 52 -106 0 -5
-18 -16 -40 -25 -37 -15 -43 -15 -80 0 -22 9 -40 20 -40 25 0 33 60 129 80
129 4 0 16 -10 28 -23z m-242 -148 c39 -10 45 -15 40 -33 -3 -12 -6 -33 -6
-47 0 -19 -10 -33 -39 -52 l-40 -26 -45 51 c-46 50 -64 87 -51 107 8 14 85 14
141 0z m569 0 c13 -20 -5 -57 -51 -107 l-45 -51 -40 26 c-29 19 -39 33 -39 52
0 14 -3 36 -6 47 -5 18 0 23 33 32 51 13 140 14 148 1z m-293 -119 c52 -33 64
-59 54 -115 -6 -28 -17 -42 -54 -65 -26 -16 -53 -30 -60 -30 -21 0 -101 50
-112 70 -14 26 -12 83 3 103 15 22 87 66 107 66 8 1 36 -13 62 -29z m-242
-219 c0 -14 3 -35 6 -47 5 -18 -1 -23 -40 -33 -56 -14 -133 -14 -141 0 -13 20
5 57 51 107 l45 51 40 -26 c29 -19 39 -33 39 -52z m526 -26 c25 -47 14 -65
-41 -65 -25 0 -66 5 -91 11 -39 10 -45 15 -40 33 3 12 6 33 6 47 0 18 11 33
37 52 l37 27 37 -36 c20 -20 45 -51 55 -69z m-306 -71 c22 -9 40 -21 40 -28
-1 -22 -37 -91 -59 -110 -21 -19 -21 -19 -42 0 -22 19 -58 88 -59 110 0 9 52
38 77 43 2 1 21 -6 43 -15z"/>
<path d="M965 1091 c-62 -27 -79 -112 -31 -159 59 -60 161 -17 161 68 0 66
-72 116 -130 91z"/>
</g>
</svg>
